<?xml version="1.0" encoding="utf-8"?>
<!-- Generator: Adobe Illustrator 26.0.3, SVG Export Plug-In . SVG Version: 6.00 Build 0)  -->
<svg version="1.0" id="Calque_1" xmlns="http://www.w3.org/2000/svg" xmlns:xlink="http://www.w3.org/1999/xlink" x="0px" y="0px"
	 viewBox="0 0 512 512" style="enable-background:new 0 0 512 512;" xml:space="preserve">
<path style="fill:none;stroke:#1D1D1B;stroke-miterlimit:10;" d="M256-26.74"/>
<path style="fill:#EFF2FA;" d="M494.35,512H17.66C7.9,512,0,503.16,0,492.26V38.35c0-10.9,7.9-19.74,17.66-19.74h476.69
	c9.75,0,17.65,8.84,17.65,19.74v453.91C512,503.16,504.1,512,494.35,512z"/>
<path style="fill:#FF6464;" d="M512,37.24v74.47H0V37.24c0-10.29,7.9-18.62,17.66-18.62h476.69C504.1,18.62,512,26.95,512,37.24z"/>
<rect x="0" y="123.59" style="fill:#E4EAF6;" width="512" height="17.65"/>
<path style="fill:#C7CFE2;" d="M75.03,74.47L75.03,74.47c-7.31,0-13.24-6.25-13.24-13.96V13.96C61.79,6.25,67.72,0,75.03,0l0,0
	c7.31,0,13.24,6.25,13.24,13.96v46.55C88.28,68.22,82.35,74.47,75.03,74.47z"/>
<path style="fill:#AFB9D2;" d="M75.03,46.55c-7.31,0-13.24-6.25-13.24-13.96v27.93c0,7.71,5.93,13.96,13.24,13.96
	c7.31,0,13.24-6.25,13.24-13.96V32.58C88.28,40.29,82.35,46.55,75.03,46.55z"/>
<path style="fill:#C7CFE2;" d="M436.97,74.47L436.97,74.47c-7.31,0-13.24-6.25-13.24-13.96V13.96c0-7.71,5.93-13.96,13.24-13.96l0,0
	c7.31,0,13.24,6.25,13.24,13.96v46.55C450.21,68.22,444.28,74.47,436.97,74.47z"/>
<path style="fill:#AFB9D2;" d="M436.97,46.55c-7.31,0-13.24-6.25-13.24-13.96v27.93c0,7.71,5.93,13.96,13.24,13.96
	s13.24-6.25,13.24-13.96V32.58C450.21,40.29,444.28,46.55,436.97,46.55z"/>
<g>
	<path style="fill:#FF6464;" d="M235.09,320.78c-0.95-0.22-1.04-1.43-0.13-1.79c20.88-8.09,33.37-26,33.37-49.02
		c0-32.56-28.32-56.18-67.33-56.18c-33.77,0-59.53,17.66-67.24,46.09c-0.99,3.63-0.25,7.41,2.02,10.38c2.22,2.9,5.59,4.57,9.24,4.57
		c5.28,0,9.92-3.62,11.26-8.8c4.85-18.83,21.65-30.52,43.83-30.52c26.65,0,43.86,14.51,43.86,36.96c0,22.71-18.4,38.57-44.73,38.57
		h-16.14c-5.83,0-10.57,4.74-10.57,10.57c0,5.83,4.74,10.57,10.57,10.57h17.01c33.07,0,52.81,15.46,52.81,41.36
		c0,23.8-21.4,41.07-50.9,41.07c-25.44,0-45.13-12.39-50.17-31.58c-1.41-5.33-6.1-9.05-11.41-9.05c-3.65,0-7.02,1.66-9.27,4.55
		c-2.28,2.95-3.06,6.74-2.12,10.38c7.45,28.81,36.14,47.42,73.1,47.42c42.9,0,75.26-27.24,75.26-63.37
		C277.42,346.27,261.19,326.81,235.09,320.78z"/>
	<path style="fill:#FF6464;" d="M361.3,216.87c-5.94,0.02-11.66,1.79-16.55,5.13c-6.18,4.21-15.17,10.46-23.87,16.51
		c-8.69,6.03-17.08,11.86-22.07,15.26c-3.02,2.06-4.83,5.46-4.83,9.11c0,4.1,2.25,7.84,5.87,9.76c3.64,1.94,7.88,1.71,11.31-0.62
		c8.81-5.99,32.36-22.55,38.63-26.97c0.67-0.47,1.55,0.03,1.55,0.85v175.31c0,6.47,5.27,11.74,11.74,11.74
		c6.47,0,11.74-5.27,11.74-11.74V230.26C374.8,222.84,368.72,216.84,361.3,216.87z"/>
</g>
</svg>
