<svg id="Calque_1" data-name="Calque 1" xmlns="http://www.w3.org/2000/svg" viewBox="0 0 392.43 502.73"><defs><style>.cls-1{fill:#e9e9e9;}.cls-1,.cls-10,.cls-2,.cls-3,.cls-4,.cls-5,.cls-6,.cls-7,.cls-8,.cls-9{stroke:#1d1d1b;stroke-miterlimit:10;}.cls-2{fill:#d3d2d2;}.cls-3{fill:#7c7a7a;}.cls-4{fill:#54c0d7;}.cls-5{fill:#f7a942;}.cls-6{fill:#de6b5d;}.cls-7{fill:#918f90;}.cls-8{fill:#88ceda;}.cls-9{fill:#fdcd79;}.cls-10{fill:#f18b7a;}</style></defs><path class="cls-1" d="M349.84,506.86H87.74c-4.07-4.43-4-9.84-4-15.42Q83.87,255,83.72,18.61v-.28s0-.23,0-.45a19.6,19.6,0,0,1,2.11-9.52,10.11,10.11,0,0,1,4.84-3.19h356c6.52,6.34,4.87,14.5,4.87,22.25q0,75.51,0,151,0,117.3-.05,234.59l-91.24,0c-8.07,0-10.41,2.35-10.41,10.45Q349.83,465.15,349.84,506.86ZM255.18,178.27H400.89c8.62,0,11.53-3,11.53-11.74q0-46.93,0-93.88c0-8.59-3.08-11.73-11.56-11.73q-145.46,0-290.93,0c-8.21,0-10.44,2.22-10.45,10.3q0,48.16,0,96.33c0,8.71,2.07,10.71,11,10.72ZM99.48,295.4v91.91c0,7.58,2.37,10,9.79,10H237.35c7.58,0,10.75-3,10.75-10.49q.08-91.18,0-182.35c0-7.54-3.09-10.55-10.74-10.56q-64,0-128.08,0c-7.43,0-9.81,2.53-9.81,10.06Zm237.64-7.6h64.05c8.12,0,11.23-3,11.25-11q0-35.94,0-71.87c0-7.64-3.28-10.91-10.86-11-7.82-.06-15.64,0-23.47,0q-52.06,0-104.13,0c-7.72,0-10.17,2.33-10.17,9.6q0,37.17,0,74.32c0,7.56,2.35,9.94,9.79,9.94Q305.34,287.82,337.12,287.8Zm.17,109.53q32.26,0,64.53,0c7.16,0,10.55-3.14,10.58-10.22q.12-36.68,0-73.34c0-6.78-3.36-10.27-10-10.28q-64.78-.09-129.56,0c-6.6,0-9,2.64-9,9.27q0,37.63,0,75.29c0,6.82,2.54,9.28,9.45,9.28Q305.27,397.35,337.29,397.33Z" transform="translate(-59.78 -4.64)"/><path class="cls-2" d="M65.25,506.86c-4-2.57-5-6.24-5-10.88q.15-240.06.08-480.1c0-4.22.57-6.89,2.19-8.52,2.12-2.12,5.21-2.17,8.52-2.19,8.28,0,14.69,0,19.61,0a10.2,10.2,0,0,0-4.84,3.19,20.67,20.67,0,0,0-2.12,9.29q.21,236.88.06,473.76c0,5.59-.11,11,4,15.45Z" transform="translate(-59.78 -4.64)"/><path class="cls-2" d="M451.49,413c-.15,3.41-2.13,5.75-4.16,8.35q-40.89,41.33-82.12,82.29c-1.14,1.13-2.42,2.13-3.64,3.19H349.84q0-41.72,0-83.43c0-8.1,2.34-10.45,10.41-10.45Z" transform="translate(-59.78 -4.64)"/><path class="cls-3" d="M255.18,178.27H110.45c-8.9,0-11-2-11-10.72q0-48.17,0-96.33c0-8.08,2.24-10.3,10.45-10.3q145.47,0,290.93,0c8.48,0,11.56,3.14,11.56,11.73q0,46.93,0,93.88c0,8.79-2.91,11.74-11.53,11.74Zm.28-15.65c45.31,0,90.62-.06,135.92.09,4.3,0,5.53-1.14,5.5-5.47q-.3-37.65,0-75.29c0-4.33-1.19-5.49-5.49-5.48q-135.43.18-270.86,0c-4.3,0-5.54,1.14-5.5,5.47q.3,37.41,0,74.8c0,4.71,1.3,6,6,6C165.83,162.55,210.65,162.62,255.46,162.62Z" transform="translate(-59.78 -4.64)"/><path class="cls-4" d="M99.48,295.4V204c0-7.53,2.38-10.05,9.81-10.06q64,0,128.08,0c7.65,0,10.73,3,10.74,10.56q.06,91.17,0,182.35c0,7.52-3.17,10.49-10.75,10.49H109.27c-7.42,0-9.79-2.44-9.79-10Zm133,.23c0-26.89-.09-53.78.1-80.66,0-4.3-1.15-5.52-5.48-5.5q-53.29.25-106.58,0c-4.3,0-5.5,1.16-5.49,5.48q.23,80.67,0,161.33c0,4.3,1.15,5.52,5.48,5.5q53.28-.25,106.57,0c4.31,0,5.53-1.16,5.5-5.49C232.39,349.41,232.48,322.52,232.48,295.63Z" transform="translate(-59.78 -4.64)"/><path class="cls-5" d="M337.12,287.8q-31.77,0-63.55,0c-7.44,0-9.78-2.38-9.79-9.94q0-37.16,0-74.32c0-7.27,2.45-9.6,10.17-9.6q52.07,0,104.13,0c7.83,0,15.65,0,23.47,0,7.58,0,10.84,3.32,10.86,11q0,35.94,0,71.87c0,8-3.13,11-11.25,11Zm1-15.65c17.9,0,35.81-.1,53.71.08,3.81,0,5-1,5-4.94-.2-17.57-.17-35.15,0-52.73,0-3.67-.79-5.11-4.84-5.09q-54,.24-107.92,0c-3.61,0-4.78,1-4.74,4.69.17,17.57.23,35.16,0,52.73-.07,4.52,1.51,5.38,5.61,5.33C302.67,272,320.41,272.15,338.16,272.15Z" transform="translate(-59.78 -4.64)"/><path class="cls-6" d="M337.29,397.33q-32,0-64.05,0c-6.91,0-9.44-2.46-9.45-9.28q0-37.65,0-75.29c0-6.63,2.42-9.26,9-9.27q64.77-.09,129.56,0c6.67,0,10,3.5,10,10.28q.11,36.67,0,73.34c0,7.08-3.42,10.22-10.58,10.22Q369.56,397.35,337.29,397.33Zm.4-15.65c18.09,0,36.17-.07,54.26.07,3.43,0,4.95-.67,4.91-4.55q-.27-26.88,0-53.77c0-3.52-1.24-4.4-4.55-4.39q-54.27.13-108.54,0c-3.5,0-4.42,1.22-4.39,4.54.12,17.77.17,35.53,0,53.29,0,4,1.32,4.93,5.06,4.9C302.16,381.59,319.92,381.68,337.69,381.68Z" transform="translate(-59.78 -4.64)"/><path class="cls-7" d="M255.46,162.62c-44.81,0-89.63-.07-134.45.1-4.69,0-6-1.27-6-6q.35-37.4,0-74.8c0-4.33,1.2-5.48,5.5-5.47q135.42.18,270.86,0c4.3,0,5.52,1.15,5.49,5.48q-.3,37.64,0,75.29c0,4.33-1.2,5.49-5.5,5.47C346.08,162.56,300.77,162.62,255.46,162.62Z" transform="translate(-59.78 -4.64)"/><path class="cls-8" d="M232.48,295.63c0,26.89-.09,53.78.1,80.66,0,4.33-1.19,5.51-5.5,5.49q-53.28-.25-106.57,0c-4.33,0-5.49-1.2-5.48-5.5q.23-80.67,0-161.33c0-4.32,1.19-5.5,5.49-5.48q53.3.25,106.58,0c4.33,0,5.51,1.2,5.48,5.5C232.39,241.85,232.48,268.74,232.48,295.63Z" transform="translate(-59.78 -4.64)"/><path class="cls-9" d="M338.16,272.15c-17.75,0-35.49-.11-53.23.09-4.1.05-5.68-.81-5.61-5.33.26-17.57.2-35.16,0-52.73,0-3.68,1.13-4.7,4.74-4.69q54,.18,107.92,0c4.05,0,4.87,1.42,4.84,5.09-.15,17.58-.18,35.16,0,52.73,0,3.92-1.19,5-5,4.94C374,272.05,356.06,272.15,338.16,272.15Z" transform="translate(-59.78 -4.64)"/><path class="cls-10" d="M337.69,381.68c-17.77,0-35.53-.09-53.29.08-3.74,0-5.11-.9-5.06-4.9.2-17.76.15-35.52,0-53.29,0-3.32.89-4.55,4.39-4.54q54.27.17,108.54,0c3.31,0,4.58.87,4.55,4.39q-.23,26.88,0,53.77c0,3.88-1.48,4.57-4.91,4.55C373.86,381.61,355.78,381.68,337.69,381.68Z" transform="translate(-59.78 -4.64)"/></svg>