<?xml version="1.0" encoding="utf-8"?>
<!-- Generator: Adobe Illustrator 26.0.0, SVG Export Plug-In . SVG Version: 6.00 Build 0)  -->
<svg version="1.1" xmlns="http://www.w3.org/2000/svg" xmlns:xlink="http://www.w3.org/1999/xlink" x="0px" y="0px"
	 viewBox="0 0 4000 4000" style="enable-background:new 0 0 4000 4000;" xml:space="preserve">
<style type="text/css">
	.st0{display:none;}
	.st1{display:inline;fill:#1D1D1B;}
	.st2{display:inline;fill:#F6F6F6;}
	.st3{display:inline;fill:#3C3C3B;}
	.st4{display:inline;fill:#575756;}
	.st5{display:inline;fill:#00B8D7;}
	.st6{display:inline;}
	.st7{fill:#F6F6F6;}
	.st8{fill:#1D1D1B;}
	.st9{fill:#B42317;}
	.st10{fill:#3C3C3B;}
</style>
<g id="Main" class="st0">
	<path class="st1" d="M3966.09,135.59v2711.86H33.91V135.59C33.91,60.71,94.61,0,169.5,0h3661
		C3905.39,0,3966.09,60.71,3966.09,135.59z"/>
	<path class="st2" d="M2610.17,1559.9v-272.34l-271.81-116.53c-30.77-74.27-48.43-116.88-79.2-191.15l109.89-275.01
		c-92.07-92.07-100.48-100.48-192.55-192.56l-275.02,109.89c-74.27-30.77-116.88-48.43-191.15-79.2L1593.8,271.19h-272.34
		L1204.93,543c-74.27,30.77-116.88,48.43-191.15,79.2L738.77,512.31c-92.07,92.07-100.48,100.48-192.56,192.55l109.89,275.02
		c-30.77,74.27-48.43,116.88-79.2,191.15l-271.81,116.53v272.34l271.81,116.53c30.77,74.27,48.43,116.88,79.2,191.15l-109.89,275.02
		c92.07,92.07,100.48,100.48,192.55,192.56l275.02-109.89c74.27,30.77,116.88,48.43,191.15,79.2l116.53,271.81h272.34l116.53-271.81
		c74.27-30.77,116.88-48.43,191.15-79.2l275.02,109.9c92.07-92.07,100.48-100.48,192.56-192.55l-109.89-275.02
		c30.77-74.27,48.43-116.88,79.2-191.15L2610.17,1559.9z M1457.63,2033.9c-336.99,0-610.17-273.18-610.17-610.17
		s273.18-610.17,610.17-610.17s610.17,273.18,610.17,610.17S1794.61,2033.9,1457.63,2033.9L1457.63,2033.9z"/>
	<path class="st2" d="M3966.09,2847.46v271.19c0,74.88-60.7,135.59-135.59,135.59h-3661c-74.89,0-135.59-60.71-135.59-135.59
		v-271.19H3966.09z"/>
	<polygon class="st3" points="2522.04,3864.41 1477.96,3864.41 1661.02,3254.24 2338.98,3254.24 2414.31,3505.34 	"/>
	<rect x="1186.44" y="3864.41" class="st2" width="1627.12" height="135.59"/>
	<path class="st4" d="M3694.91,1288.14v1152.54c0,74.88-60.7,135.59-135.58,135.59h-2033.9c-74.89,0-135.59-60.71-135.59-135.59
		V1016.95c0-74.88,60.7-135.59,135.59-135.59h757.39c35.97,0,70.45,14.29,95.88,39.72l191.76,191.76
		c25.43,25.44,59.92,39.72,95.88,39.72h892.99C3634.2,1152.54,3694.91,1213.25,3694.91,1288.14z"/>
	<path class="st3" d="M2087.65,2217.43l-386.91-386.92l386.91-386.92l95.88,95.88l-291.05,291.04l291.05,291.04L2087.65,2217.43z"/>
	<path class="st3" d="M2348.1,2137.77l339.23-610.06l118.5,65.89l-339.23,610.06L2348.1,2137.77z"/>
	<polygon class="st3" points="3384,1830.51 2997.09,2217.43 2901.21,2121.56 3192.26,1830.51 3140.22,1778.48 2901.21,1539.47 
		2997.09,1443.59 3213.87,1660.37 	"/>
</g>
<g id="Infos" class="st0">
	<path class="st1" d="M1838.22,6.38C871.79,82.36,87.59,862.9,7.21,1828.97c-37.95,456.23,77.62,883.57,300.37,1236.54
		c24.95,39.55,29.74,88.47,10.77,131.21L6.38,3899.38c-26.52,59.74,34.5,120.77,94.24,94.24l702.66-311.97
		c42.75-18.98,91.66-14.2,131.21,10.77c352.96,222.73,780.27,338.3,1236.48,300.37c966.05-80.34,1746.61-864.49,1822.65-1830.89
		C4090.55,929.89,3070.21-90.5,1838.22,6.38z"/>
	<circle class="st5" cx="2000.04" cy="1999.96" r="1724.1"/>
	<g class="st6">
		<path class="st7" d="M2275.88,2965.53h-0.07c-38.09,0-68.96-30.88-68.96-68.96V1655.21c0-38.09,30.87-68.96,68.96-68.96h0.07
			c38.12,0,68.96-30.88,68.96-68.96c0-38.09-30.84-68.96-68.96-68.96h-551.71c-38.12,0-68.96,30.88-68.96,68.96
			c0,38.09,30.84,68.96,68.96,68.96h-0.07c38.09,0,68.96,30.87,68.96,68.96v1241.35c0,38.09-30.88,68.96-68.96,68.96h0.07
			c-38.12,0-68.96,30.87-68.96,68.96s30.84,68.96,68.96,68.96h551.71c38.12,0,68.96-30.88,68.96-68.96
			C2344.84,2996.4,2314,2965.53,2275.88,2965.53z"/>
		<circle class="st7" cx="2000.04" cy="1034.54" r="206.89"/>
	</g>
	<path class="st3" d="M2000.04,268.2c-956.42,0-1731.76,775.33-1731.76,1731.76s775.34,1731.76,1731.76,1731.76
		S3731.8,2956.38,3731.8,1999.96S2956.46,268.2,2000.04,268.2z M2000.04,3523.8c-841.6,0-1523.86-682.25-1523.86-1523.86
		S1158.44,476.09,2000.04,476.09S3523.9,1158.35,3523.9,1999.96S2841.65,3523.8,2000.04,3523.8z"/>
</g>
<g id="Alerte">
	<path class="st8" d="M1838.22,6.38C871.79,82.36,87.59,862.9,7.21,1828.97c-37.95,456.23,77.62,883.57,300.37,1236.54
		c24.95,39.55,29.74,88.47,10.77,131.21L6.38,3899.38c-26.52,59.74,34.5,120.77,94.24,94.24l702.66-311.97
		c42.75-18.98,91.66-14.2,131.21,10.77c352.96,222.73,780.27,338.3,1236.48,300.37c966.05-80.34,1746.61-864.49,1822.65-1830.89
		C4090.55,929.89,3070.21-90.5,1838.22,6.38z"/>
	<circle class="st9" cx="2000.04" cy="1999.96" r="1724.1"/>
	<path class="st10" d="M2000.04,268.2c-956.42,0-1731.76,775.33-1731.76,1731.76s775.34,1731.76,1731.76,1731.76
		S3731.8,2956.38,3731.8,1999.96S2956.46,268.2,2000.04,268.2z M2000.04,3523.8c-841.6,0-1523.86-682.25-1523.86-1523.86
		S1158.44,476.09,2000.04,476.09S3523.9,1158.35,3523.9,1999.96S2841.65,3523.8,2000.04,3523.8z"/>
	<path class="st7" d="M2011.6,2590.36h-23.12c-148.06,0-270.81-115.78-279.45-263.59l-77.98-1333.5
		c-4.48-76.62,23.15-152.58,75.82-208.42c52.66-55.84,126.88-87.86,203.64-87.86h179.08c76.75,0,150.97,32.02,203.63,87.85
		c52.67,55.83,80.3,131.8,75.83,208.42l-77.98,1333.5C2282.41,2474.58,2159.65,2590.36,2011.6,2590.36L2011.6,2590.36z"/>
	<path class="st7" d="M2000.04,3302.9c-154.35,0-279.93-125.58-279.93-279.93c0-154.35,125.58-279.93,279.93-279.93
		s279.93,125.58,279.93,279.93C2279.97,3177.32,2154.39,3302.9,2000.04,3302.9z"/>
</g>
</svg>
