<?xml version="1.0" encoding="utf-8"?>
<!-- Generator: Adobe Illustrator 26.0.3, SVG Export Plug-In . SVG Version: 6.00 Build 0)  -->
<svg version="1.1" id="Calque_1" xmlns="http://www.w3.org/2000/svg" xmlns:xlink="http://www.w3.org/1999/xlink" x="0px" y="0px"
	 viewBox="0 0 4000 4000" style="enable-background:new 0 0 4000 4000;" xml:space="preserve">
<style type="text/css">
	.st0{fill:#1D1D1B;}
</style>
<g>
	<path class="st0" d="M3350,650v2700H650V650H3350 M3656.1,0H343.9C154,0,0,154,0,343.9v3312.1C0,3846,154,4000,343.9,4000h3312.1
		c189.9,0,343.9-154,343.9-343.9V343.9C4000,154,3846,0,3656.1,0L3656.1,0z"/>
</g>
<path class="st0" d="M2803.2,947.2H1196.8c-137.9,0-249.6,111.7-249.6,249.6v1606.4c0,137.9,111.7,249.6,249.6,249.6h1606.4
	c137.9,0,249.6-111.7,249.6-249.6V1196.8C3052.8,1058.9,2941.1,947.2,2803.2,947.2z"/>
</svg>
