<?xml version="1.0" encoding="utf-8"?>
<!-- Generator: Adobe Illustrator 26.0.2, SVG Export Plug-In . SVG Version: 6.00 Build 0)  -->
<svg version="1.0" id="Calque_1" xmlns="http://www.w3.org/2000/svg" xmlns:xlink="http://www.w3.org/1999/xlink" x="0px" y="0px"
	 viewBox="0 0 4000 4000" style="enable-background:new 0 0 4000 4000;" xml:space="preserve">
<g id="copy">
	<path style="fill:#1D1D1B;" d="M3596.91,0H1326.14c-222.26,0.84-402.23,180.81-403.08,403.08v520h-520
		C180.8,923.92,0.83,1103.89-0.01,1326.15v2270.77C0.83,3819.18,180.8,3999.15,403.07,4000h2270.77
		c222.26-0.84,402.23-180.81,403.08-403.08v-520h520c222.26-0.84,402.23-180.81,403.08-403.08V403.08
		C3999.15,180.81,3819.18,0.84,3596.91,0z M2769.22,3596.92c0,52.68-42.7,95.38-95.38,95.38l0,0H403.07
		c-52.68,0-95.38-42.71-95.38-95.38l0,0V1326.15c0-52.68,42.71-95.38,95.38-95.38h2270.77c52.68,0,95.38,42.7,95.38,95.38l0,0
		V3596.92z M3692.3,2673.85c0,52.68-42.7,95.38-95.38,95.38l0,0h-520V1326.15c-0.84-222.26-180.81-402.23-403.08-403.08H1230.76
		v-520c0-52.68,42.71-95.38,95.38-95.38h2270.77c52.68,0,95.38,42.71,95.38,95.38l0,0v2270.78H3692.3z"/>
</g>
</svg>
