<?xml version="1.0" encoding="utf-8"?>
<!-- Generator: Adobe Illustrator 26.0.1, SVG Export Plug-In . SVG Version: 6.00 Build 0)  -->
<svg version="1.1" id="Calque_1" xmlns="http://www.w3.org/2000/svg" xmlns:xlink="http://www.w3.org/1999/xlink" x="0px" y="0px"
	 viewBox="0 0 4000 4000" style="enable-background:new 0 0 4000 4000;" xml:space="preserve">
<style type="text/css">
	.st0{display:none;}
	.st1{display:inline;}
	.st2{display:inline;fill:#AE252A;}
	.st3{display:inline;fill:#E7582E;}
	.st4{display:inline;fill:#63E136;}
	.st5{fill:#191919;}
	.st6{fill:#EDEDED;}
	.st7{fill:#BE1622;}
	.st8{fill:none;stroke:#191919;stroke-miterlimit:10;}
	.st9{fill:#1D1D1B;}
	.st10{display:inline;fill:#1D1D1B;}
</style>
<g id="ui_00000016065285449466594420000008692094061301031607_">
	<g id="BM_00000091703960848764136570000002387225860222170025_" class="st0">
		<g id="RDM_00000093143836727348746590000017638773347124601519_" class="st1">
			<g id="Difficile_00000159443024543908159410000016697112216605766583_" class="st0">
				<path class="st2" d="M2600,2349.6v-699.2c0-138.29-112.11-250.4-250.4-250.4h-699.2c-138.29,0-250.4,112.11-250.4,250.4v699.2
					c0,138.29,112.11,250.4,250.4,250.4h699.2C2487.89,2600,2600,2487.89,2600,2349.6z"/>
				<path class="st2" d="M3900,2349.6v-699.2c0-138.29-112.11-250.4-250.4-250.4h-699.2c-138.29,0-250.4,112.11-250.4,250.4v699.2
					c0,138.29,112.11,250.4,250.4,250.4h699.2C3787.89,2600,3900,2487.89,3900,2349.6z"/>
				<path class="st2" d="M1300,2349.6v-699.2c0-138.29-112.11-250.4-250.4-250.4H350.4c-138.29,0-250.4,112.11-250.4,250.4v699.2
					c0,138.29,112.11,250.4,250.4,250.4h699.2C1187.89,2600,1300,2487.89,1300,2349.6z"/>
			</g>
			<g id="Moyen_00000025410817992602495850000009804168492979719347_" class="st0">
				<path class="st3" d="M3250,2349.6v-699.2c0-138.29-112.11-250.4-250.4-250.4h-699.2c-138.29,0-250.4,112.11-250.4,250.4v699.2
					c0,138.29,112.11,250.4,250.4,250.4h699.2C3137.89,2600,3250,2487.89,3250,2349.6z"/>
				<path class="st3" d="M1950,2349.6v-699.2c0-138.29-112.11-250.4-250.4-250.4h-699.2c-138.29,0-250.4,112.11-250.4,250.4v699.2
					c0,138.29,112.11,250.4,250.4,250.4h699.2C1837.89,2600,1950,2487.89,1950,2349.6z"/>
			</g>
			<g id="Facile_00000013874590291824684900000010382790657893067952_" class="st0">
				<path class="st4" d="M2600,2349.6v-699.2c0-138.29-112.11-250.4-250.4-250.4h-699.2c-138.29,0-250.4,112.11-250.4,250.4v699.2
					c0,138.29,112.11,250.4,250.4,250.4h699.2C2487.89,2600,2600,2487.89,2600,2349.6z"/>
			</g>
			<g id="BM_00000054250173364064239560000008911398488636416647_">
				<g>
					<path class="st5" d="M2383.02,138.6c121.95,24.96,241.89,62.19,356.51,110.67c112.57,47.61,221.14,106.54,322.71,175.16
						c100.63,67.99,195.26,146.06,281.26,232.07c86.01,86,164.08,180.63,232.07,281.26c68.62,101.57,127.55,210.14,175.16,322.71
						c48.48,114.62,85.71,234.56,110.67,356.51c25.61,125.17,38.6,254.04,38.6,383.02c0,60.15-2.83,120.28-8.45,180.03
						c-6.41,68.35-16.48,136.2-30.15,202.99c-24.96,121.95-62.19,241.89-110.67,356.51c-47.61,112.57-106.54,221.14-175.16,322.71
						c-67.99,100.63-146.06,195.26-232.07,281.26c-86,86.01-180.63,164.08-281.26,232.07c-101.57,68.62-210.14,127.55-322.71,175.16
						c-114.62,48.48-234.56,85.71-356.51,110.67c-68.59,14.03-138.28,24.28-208.5,30.66v100.43
						C3197.37,3904.07,4000,3045.77,4000,2000S3197.37,95.93,2174.52,7.51v100.43C2244.74,114.32,2314.43,124.57,2383.02,138.6z
						 M1616.98,3861.4c-121.95-24.96-241.89-62.19-356.51-110.67c-112.57-47.61-221.14-106.54-322.71-175.16
						c-100.63-67.99-195.26-146.06-281.26-232.07c-86.01-86-164.08-180.63-232.07-281.26c-68.62-101.57-127.55-210.14-175.16-322.71
						c-48.48-114.62-85.71-234.56-110.67-356.51C112.99,2257.85,100,2128.98,100,2000s12.99-257.85,38.6-383.02
						c24.96-121.95,62.19-241.89,110.67-356.51c47.61-112.57,106.54-221.14,175.16-322.71C492.42,837.13,570.49,742.5,656.5,656.5
						c86-86.01,180.63-164.08,281.26-232.07c101.57-68.62,210.14-127.55,322.71-175.16c114.62-48.48,234.56-85.71,356.51-110.67
						c68.27-13.97,137.65-24.18,207.54-30.57V7.59C802.13,96.46,0,954.56,0,2000s802.13,1903.54,1824.52,1992.41v-100.44
						C1754.63,3885.58,1685.25,3875.37,1616.98,3861.4z"/>
					<g>
						<path class="st6" d="M2174.52,3892.06V2806.53c50.05-10.79,99.04-26.29,146.66-46.43c98.26-41.56,186.47-101.03,262.18-176.74
							c75.71-75.71,135.17-163.92,176.74-262.18c43.06-101.82,64.9-209.88,64.9-321.18c0-59.6-6.26-118.27-18.69-175.55
							c-10.78-49.69-26.21-98.33-46.21-145.63c-41.57-98.26-101.03-186.47-176.74-262.18c-75.71-75.71-163.92-135.17-262.18-176.74
							c-47.62-20.14-96.61-35.64-146.66-46.43V107.94c70.22,6.38,139.91,16.63,208.5,30.66c121.95,24.96,241.89,62.19,356.51,110.67
							c112.57,47.61,221.14,106.54,322.71,175.16c100.63,67.99,195.26,146.06,281.26,232.07c86.01,86,164.08,180.63,232.07,281.26
							c68.62,101.57,127.55,210.14,175.16,322.71c48.48,114.62,85.71,234.56,110.67,356.51c25.61,125.17,38.6,254.04,38.6,383.02
							c0,60.15-2.83,120.28-8.45,180.03c-6.41,68.35-16.48,136.2-30.15,202.99c-24.96,121.95-62.19,241.89-110.67,356.51
							c-47.61,112.57-106.54,221.14-175.16,322.71c-67.99,100.63-146.06,195.26-232.07,281.26
							c-86,86.01-180.63,164.08-281.26,232.07c-101.57,68.62-210.14,127.55-322.71,175.16c-114.62,48.48-234.56,85.71-356.51,110.67
							C2314.43,3875.43,2244.74,3885.68,2174.52,3892.06z"/>
					</g>
					<g>
						<path class="st6" d="M1824.52,3891.97c-69.89-6.39-139.27-16.6-207.54-30.57c-121.95-24.96-241.89-62.19-356.51-110.67
							c-112.57-47.61-221.14-106.54-322.71-175.16c-100.63-67.99-195.26-146.06-281.26-232.07
							c-86.01-86-164.08-180.63-232.07-281.26c-68.62-101.57-127.55-210.14-175.16-322.71c-48.48-114.62-85.71-234.56-110.67-356.51
							C112.99,2257.85,100,2128.98,100,2000s12.99-257.85,38.6-383.02c24.96-121.95,62.19-241.89,110.67-356.51
							c47.61-112.57,106.54-221.14,175.16-322.71C492.42,837.13,570.49,742.5,656.5,656.5c86-86.01,180.63-164.08,281.26-232.07
							c101.57-68.62,210.14-127.55,322.71-175.16c114.62-48.48,234.56-85.71,356.51-110.67c68.27-13.97,137.65-24.18,207.54-30.57
							v1085.65c-49.72,10.78-98.38,26.21-145.7,46.22c-98.26,41.57-186.47,101.03-262.18,176.74s-135.18,163.92-176.74,262.18
							c-43.06,101.82-64.9,209.88-64.9,321.18c0,111.3,21.84,219.36,64.9,321.18c41.56,98.26,101.03,186.47,176.74,262.18
							s163.92,135.18,262.18,176.74c47.32,20.01,95.98,35.44,145.7,46.22V3891.97z"/>
					</g>
					<path class="st5" d="M2400,2000c0-220.91-179.09-400-400-400s-400,179.09-400,400s179.09,400,400,400S2400,2220.91,2400,2000z
						 M1785.63,2214.37c-57.26-57.26-88.79-133.39-88.79-214.37c0-80.98,31.53-157.11,88.79-214.37s133.39-88.79,214.37-88.79
						s157.11,31.53,214.37,88.79s88.79,133.39,88.79,214.37c0,80.98-31.53,157.11-88.79,214.37
						c-57.26,57.26-133.39,88.79-214.37,88.79C1919.02,2303.16,1842.89,2271.63,1785.63,2214.37z"/>
					<g>
						<path class="st6" d="M2174.52,2441.79C2350.34,2372.1,2475,2200.33,2475,2000s-124.66-372.1-300.48-441.79
							c-54.05-21.43-112.93-33.21-174.52-33.21c-61.95,0-121.17,11.92-175.48,33.6C1649.2,1628.53,1525,1800.03,1525,2000
							s124.2,371.47,299.52,441.4c54.31,21.68,113.53,33.6,175.48,33.6C2061.59,2475,2120.47,2463.22,2174.52,2441.79z M1600,2000
							c0-220.91,179.09-400,400-400s400,179.09,400,400s-179.09,400-400,400S1600,2220.91,1600,2000z"/>
					</g>
					<g>
						<path class="st6" d="M2000,2303.16c-80.98,0-157.11-31.53-214.37-88.79c-57.26-57.26-88.79-133.39-88.79-214.37
							c0-80.98,31.53-157.11,88.79-214.37s133.39-88.79,214.37-88.79s157.11,31.53,214.37,88.79s88.79,133.39,88.79,214.37
							s-31.53,157.11-88.79,214.37C2157.11,2271.63,2080.98,2303.16,2000,2303.16z"/>
					</g>
					<g>
						<path class="st7" d="M1200,2000c0-107.93,21.17-212.71,62.93-311.44c40.29-95.27,97.96-180.81,171.39-254.24
							c73.41-73.42,158.95-131.08,254.24-171.39c45.68-19.32,93.21-34.39,141.25-44.81l19.7-4.27V30.65
							C1899.43,26.9,1949.94,25,2000,25c49.76,0,99.95,1.87,149.52,5.58v1183.08l19.73,4.25c48.39,10.43,96.23,25.58,142.19,45.02
							c95.29,40.31,180.83,97.98,254.24,171.39s131.08,158.96,171.39,254.24c19.31,45.67,34.39,93.18,44.8,141.19
							c12.02,55.41,18.12,112.69,18.12,170.25c0,107.92-21.17,212.71-62.93,311.44c-40.31,95.29-97.98,180.83-171.39,254.24
							c-73.43,73.43-158.97,131.1-254.24,171.39c-45.96,19.44-93.8,34.59-142.19,45.02l-19.73,4.25v1183.08
							c-49.57,3.7-99.76,5.58-149.52,5.58c-50.06,0-100.57-1.9-150.48-5.65V2786.16l-19.7-4.27
							c-48.05-10.42-95.57-25.5-141.26-44.82c-95.27-40.29-180.81-97.96-254.24-171.39c-73.43-73.43-131.1-158.97-171.39-254.24
							C1221.17,2212.71,1200,2107.93,1200,2000z M2500,2000c0-206.34-124.14-388.88-316.27-465.03
							c-58.52-23.2-120.34-34.97-183.73-34.97c-63.78,0-125.94,11.9-184.75,35.38C1623.75,1611.77,1500,1794.14,1500,2000
							c0,205.86,123.75,388.23,315.26,464.62c58.81,23.47,120.97,35.38,184.74,35.38c63.39,0,125.21-11.77,183.73-34.97
							C2375.86,2388.88,2500,2206.34,2500,2000z"/>
						<path class="st5" d="M2775,2000c0,104.56-20.51,206.07-60.95,301.7c-39.05,92.31-94.92,175.18-166.05,246.31
							c-71.14,71.15-154.01,127.01-246.3,166.04c-44.53,18.83-90.86,33.5-137.72,43.6l-39.46,8.51v40.37v1139.55
							c-41.39,2.6-83.11,3.92-124.52,3.92c-41.72,0-83.75-1.33-125.48-3.98v-1139.7V2766l-39.41-8.54
							c-46.53-10.09-92.57-24.69-136.82-43.41c-92.29-39.04-175.16-94.9-246.3-166.05c-71.15-71.14-127.01-154.01-166.04-246.3
							c-40.44-95.64-60.95-197.14-60.95-301.71c0-104.56,20.51-206.07,60.95-301.7c39.04-92.29,94.9-175.16,166.05-246.3
							c71.13-71.13,154-126.99,246.3-166.04c44.26-18.71,90.29-33.32,136.82-43.41l39.41-8.54v-40.32V53.98
							C1916.25,51.33,1958.28,50,2000,50c41.41,0,83.13,1.31,124.52,3.92v1139.55v40.37l39.46,8.51
							c46.86,10.1,93.2,24.77,137.72,43.6c92.31,39.05,175.18,94.92,246.31,166.05s126.99,154,166.04,246.3
							c18.71,44.25,33.31,90.26,43.4,136.76C2769.09,1888.73,2775,1944.22,2775,2000 M1475,2000
							c0,216.15,129.92,407.64,330.98,487.84c61.77,24.66,127.05,37.16,194.02,37.16c66.56,0,131.48-12.36,192.94-36.73
							C2394.66,2408.32,2525,2216.66,2525,2000s-130.34-408.32-332.05-488.27c-61.47-24.37-126.39-36.73-192.95-36.73
							c-66.97,0-132.24,12.5-194,37.16C1604.92,1592.36,1475,1783.85,1475,2000 M2825,2000c0-59.6-6.26-118.27-18.69-175.55
							c-10.78-49.69-26.21-98.33-46.21-145.63c-41.57-98.26-101.03-186.47-176.74-262.18s-163.92-135.17-262.18-176.74
							c-47.62-20.14-96.61-35.64-146.66-46.43V7.51C2117.01,2.54,2058.8,0,2000,0c-59.13,0-117.66,2.57-175.48,7.59v1186.09
							c-49.72,10.78-98.38,26.21-145.7,46.22c-98.26,41.57-186.47,101.03-262.18,176.74s-135.18,163.92-176.74,262.18
							c-43.06,101.82-64.9,209.88-64.9,321.18s21.84,219.36,64.9,321.18c41.56,98.26,101.03,186.47,176.74,262.18
							s163.92,135.18,262.18,176.74c47.32,20.01,95.98,35.44,145.7,46.22v1186.09c57.82,5.02,116.35,7.59,175.48,7.59
							c58.8,0,117.01-2.54,174.52-7.51V2806.53c50.05-10.79,99.04-26.29,146.66-46.43c98.26-41.56,186.47-101.03,262.18-176.74
							c75.71-75.71,135.17-163.92,176.74-262.18C2803.16,2219.36,2825,2111.3,2825,2000L2825,2000z M1525,2000
							c0-199.97,124.2-371.47,299.52-441.4c54.31-21.68,113.53-33.6,175.48-33.6c61.59,0,120.47,11.78,174.52,33.21
							C2350.34,1627.9,2475,1799.67,2475,2000s-124.66,372.1-300.48,441.79c-54.05,21.43-112.93,33.21-174.52,33.21
							c-61.95,0-121.17-11.92-175.48-33.6C1649.2,2371.47,1525,2199.97,1525,2000L1525,2000z"/>
					</g>
					<line class="st8" x1="3891.55" y1="2180.03" x2="3891.56" y2="2180.03"/>
				</g>
			</g>
		</g>
	</g>
	<g id="defisDifficile_00000117663077487832633300000010209868728698042018_" class="st0">
		<g id="RDM_00000086659103988358274790000000316392325340564398_" class="st1">
			<g id="Difficile_00000098914223352289467160000006249247825938798744_">
				<path class="st9" d="M2600,2349.6v-699.2c0-138.29-112.11-250.4-250.4-250.4h-699.2c-138.29,0-250.4,112.11-250.4,250.4v699.2
					c0,138.29,112.11,250.4,250.4,250.4h699.2C2487.89,2600,2600,2487.89,2600,2349.6z"/>
				<path class="st9" d="M3900,2349.6v-699.2c0-138.29-112.11-250.4-250.4-250.4h-699.2c-138.29,0-250.4,112.11-250.4,250.4v699.2
					c0,138.29,112.11,250.4,250.4,250.4h699.2C3787.89,2600,3900,2487.89,3900,2349.6z"/>
				<path class="st9" d="M1300,2349.6v-699.2c0-138.29-112.11-250.4-250.4-250.4H350.4c-138.29,0-250.4,112.11-250.4,250.4v699.2
					c0,138.29,112.11,250.4,250.4,250.4h699.2C1187.89,2600,1300,2487.89,1300,2349.6z"/>
			</g>
			<g id="Moyen_00000026160242264335892390000006464805269439517619_" class="st0">
				<path class="st10" d="M3250,2349.6v-699.2c0-138.29-112.11-250.4-250.4-250.4h-699.2c-138.29,0-250.4,112.11-250.4,250.4v699.2
					c0,138.29,112.11,250.4,250.4,250.4h699.2C3137.89,2600,3250,2487.89,3250,2349.6z"/>
				<path class="st10" d="M1950,2349.6v-699.2c0-138.29-112.11-250.4-250.4-250.4h-699.2c-138.29,0-250.4,112.11-250.4,250.4v699.2
					c0,138.29,112.11,250.4,250.4,250.4h699.2C1837.89,2600,1950,2487.89,1950,2349.6z"/>
			</g>
			<g id="Facile_00000152969655772666551200000017053548459806624404_" class="st0">
				<path class="st10" d="M2600,2349.6v-699.2c0-138.29-112.11-250.4-250.4-250.4h-699.2c-138.29,0-250.4,112.11-250.4,250.4v699.2
					c0,138.29,112.11,250.4,250.4,250.4h699.2C2487.89,2600,2600,2487.89,2600,2349.6z"/>
			</g>
			<g id="BM_00000021108998123524564720000004931582894918856334_" class="st0">
				<g class="st1">
					<path class="st5" d="M2383.02,138.6c121.95,24.96,241.89,62.19,356.51,110.67c112.57,47.61,221.14,106.54,322.71,175.16
						c100.63,67.99,195.26,146.06,281.26,232.07c86.01,86,164.08,180.63,232.07,281.26c68.62,101.57,127.55,210.14,175.16,322.71
						c48.48,114.62,85.71,234.56,110.67,356.51c25.61,125.17,38.6,254.04,38.6,383.02c0,60.15-2.83,120.28-8.45,180.03
						c-6.41,68.35-16.48,136.2-30.15,202.99c-24.96,121.95-62.19,241.89-110.67,356.51c-47.61,112.57-106.54,221.14-175.16,322.71
						c-67.99,100.63-146.06,195.26-232.07,281.26c-86,86.01-180.63,164.08-281.26,232.07c-101.57,68.62-210.14,127.55-322.71,175.16
						c-114.62,48.48-234.56,85.71-356.51,110.67c-68.59,14.03-138.28,24.28-208.5,30.66v100.43
						C3197.37,3904.07,4000,3045.77,4000,2000S3197.37,95.93,2174.52,7.51v100.43C2244.74,114.32,2314.43,124.57,2383.02,138.6z
						 M1616.98,3861.4c-121.95-24.96-241.89-62.19-356.51-110.67c-112.57-47.61-221.14-106.54-322.71-175.16
						c-100.63-67.99-195.26-146.06-281.26-232.07c-86.01-86-164.08-180.63-232.07-281.26c-68.62-101.57-127.55-210.14-175.16-322.71
						c-48.48-114.62-85.71-234.56-110.67-356.51C112.99,2257.85,100,2128.98,100,2000s12.99-257.85,38.6-383.02
						c24.96-121.95,62.19-241.89,110.67-356.51c47.61-112.57,106.54-221.14,175.16-322.71C492.42,837.13,570.49,742.5,656.5,656.5
						c86-86.01,180.63-164.08,281.26-232.07c101.57-68.62,210.14-127.55,322.71-175.16c114.62-48.48,234.56-85.71,356.51-110.67
						c68.27-13.97,137.65-24.18,207.54-30.57V7.59C802.13,96.46,0,954.56,0,2000s802.13,1903.54,1824.52,1992.41v-100.44
						C1754.63,3885.58,1685.25,3875.37,1616.98,3861.4z"/>
					<g>
						<path class="st6" d="M2174.52,3892.06V2806.53c50.05-10.79,99.04-26.29,146.66-46.43c98.26-41.56,186.47-101.03,262.18-176.74
							c75.71-75.71,135.17-163.92,176.74-262.18c43.06-101.82,64.9-209.88,64.9-321.18c0-59.6-6.26-118.27-18.69-175.55
							c-10.78-49.69-26.21-98.33-46.21-145.63c-41.57-98.26-101.03-186.47-176.74-262.18c-75.71-75.71-163.92-135.17-262.18-176.74
							c-47.62-20.14-96.61-35.64-146.66-46.43V107.94c70.22,6.38,139.91,16.63,208.5,30.66c121.95,24.96,241.89,62.19,356.51,110.67
							c112.57,47.61,221.14,106.54,322.71,175.16c100.63,67.99,195.26,146.06,281.26,232.07c86.01,86,164.08,180.63,232.07,281.26
							c68.62,101.57,127.55,210.14,175.16,322.71c48.48,114.62,85.71,234.56,110.67,356.51c25.61,125.17,38.6,254.04,38.6,383.02
							c0,60.15-2.83,120.28-8.45,180.03c-6.41,68.35-16.48,136.2-30.15,202.99c-24.96,121.95-62.19,241.89-110.67,356.51
							c-47.61,112.57-106.54,221.14-175.16,322.71c-67.99,100.63-146.06,195.26-232.07,281.26
							c-86,86.01-180.63,164.08-281.26,232.07c-101.57,68.62-210.14,127.55-322.71,175.16c-114.62,48.48-234.56,85.71-356.51,110.67
							C2314.43,3875.43,2244.74,3885.68,2174.52,3892.06z"/>
					</g>
					<g>
						<path class="st6" d="M1824.52,3891.97c-69.89-6.39-139.27-16.6-207.54-30.57c-121.95-24.96-241.89-62.19-356.51-110.67
							c-112.57-47.61-221.14-106.54-322.71-175.16c-100.63-67.99-195.26-146.06-281.26-232.07
							c-86.01-86-164.08-180.63-232.07-281.26c-68.62-101.57-127.55-210.14-175.16-322.71c-48.48-114.62-85.71-234.56-110.67-356.51
							C112.99,2257.85,100,2128.98,100,2000s12.99-257.85,38.6-383.02c24.96-121.95,62.19-241.89,110.67-356.51
							c47.61-112.57,106.54-221.14,175.16-322.71C492.42,837.13,570.49,742.5,656.5,656.5c86-86.01,180.63-164.08,281.26-232.07
							c101.57-68.62,210.14-127.55,322.71-175.16c114.62-48.48,234.56-85.71,356.51-110.67c68.27-13.97,137.65-24.18,207.54-30.57
							v1085.65c-49.72,10.78-98.38,26.21-145.7,46.22c-98.26,41.57-186.47,101.03-262.18,176.74s-135.18,163.92-176.74,262.18
							c-43.06,101.82-64.9,209.88-64.9,321.18c0,111.3,21.84,219.36,64.9,321.18c41.56,98.26,101.03,186.47,176.74,262.18
							s163.92,135.18,262.18,176.74c47.32,20.01,95.98,35.44,145.7,46.22V3891.97z"/>
					</g>
					<path class="st5" d="M2400,2000c0-220.91-179.09-400-400-400s-400,179.09-400,400s179.09,400,400,400S2400,2220.91,2400,2000z
						 M1785.63,2214.37c-57.26-57.26-88.79-133.39-88.79-214.37c0-80.98,31.53-157.11,88.79-214.37s133.39-88.79,214.37-88.79
						s157.11,31.53,214.37,88.79s88.79,133.39,88.79,214.37c0,80.98-31.53,157.11-88.79,214.37
						c-57.26,57.26-133.39,88.79-214.37,88.79C1919.02,2303.16,1842.89,2271.63,1785.63,2214.37z"/>
					<g>
						<path class="st6" d="M2174.52,2441.79C2350.34,2372.1,2475,2200.33,2475,2000s-124.66-372.1-300.48-441.79
							c-54.05-21.43-112.93-33.21-174.52-33.21c-61.95,0-121.17,11.92-175.48,33.6C1649.2,1628.53,1525,1800.03,1525,2000
							s124.2,371.47,299.52,441.4c54.31,21.68,113.53,33.6,175.48,33.6C2061.59,2475,2120.47,2463.22,2174.52,2441.79z M1600,2000
							c0-220.91,179.09-400,400-400s400,179.09,400,400s-179.09,400-400,400S1600,2220.91,1600,2000z"/>
					</g>
					<g>
						<path class="st6" d="M2000,2303.16c-80.98,0-157.11-31.53-214.37-88.79c-57.26-57.26-88.79-133.39-88.79-214.37
							c0-80.98,31.53-157.11,88.79-214.37s133.39-88.79,214.37-88.79s157.11,31.53,214.37,88.79s88.79,133.39,88.79,214.37
							s-31.53,157.11-88.79,214.37C2157.11,2271.63,2080.98,2303.16,2000,2303.16z"/>
					</g>
					<g>
						<path class="st7" d="M1200,2000c0-107.93,21.17-212.71,62.93-311.44c40.29-95.27,97.96-180.81,171.39-254.24
							c73.41-73.42,158.95-131.08,254.24-171.39c45.68-19.32,93.21-34.39,141.25-44.81l19.7-4.27V30.65
							C1899.43,26.9,1949.94,25,2000,25c49.76,0,99.95,1.87,149.52,5.58v1183.08l19.73,4.25c48.39,10.43,96.23,25.58,142.19,45.02
							c95.29,40.31,180.83,97.98,254.24,171.39s131.08,158.96,171.39,254.24c19.31,45.67,34.39,93.18,44.8,141.19
							c12.02,55.41,18.12,112.69,18.12,170.25c0,107.92-21.17,212.71-62.93,311.44c-40.31,95.29-97.98,180.83-171.39,254.24
							c-73.43,73.43-158.97,131.1-254.24,171.39c-45.96,19.44-93.8,34.59-142.19,45.02l-19.73,4.25v1183.08
							c-49.57,3.7-99.76,5.58-149.52,5.58c-50.06,0-100.57-1.9-150.48-5.65V2786.16l-19.7-4.27
							c-48.05-10.42-95.57-25.5-141.26-44.82c-95.27-40.29-180.81-97.96-254.24-171.39c-73.43-73.43-131.1-158.97-171.39-254.24
							C1221.17,2212.71,1200,2107.93,1200,2000z M2500,2000c0-206.34-124.14-388.88-316.27-465.03
							c-58.52-23.2-120.34-34.97-183.73-34.97c-63.78,0-125.94,11.9-184.75,35.38C1623.75,1611.77,1500,1794.14,1500,2000
							c0,205.86,123.75,388.23,315.26,464.62c58.81,23.47,120.97,35.38,184.74,35.38c63.39,0,125.21-11.77,183.73-34.97
							C2375.86,2388.88,2500,2206.34,2500,2000z"/>
						<path class="st5" d="M2775,2000c0,104.56-20.51,206.07-60.95,301.7c-39.05,92.31-94.92,175.18-166.05,246.31
							c-71.14,71.15-154.01,127.01-246.3,166.04c-44.53,18.83-90.86,33.5-137.72,43.6l-39.46,8.51v40.37v1139.55
							c-41.39,2.6-83.11,3.92-124.52,3.92c-41.72,0-83.75-1.33-125.48-3.98v-1139.7V2766l-39.41-8.54
							c-46.53-10.09-92.57-24.69-136.82-43.41c-92.29-39.04-175.16-94.9-246.3-166.05c-71.15-71.14-127.01-154.01-166.04-246.3
							c-40.44-95.64-60.95-197.14-60.95-301.71c0-104.56,20.51-206.07,60.95-301.7c39.04-92.29,94.9-175.16,166.05-246.3
							c71.13-71.13,154-126.99,246.3-166.04c44.26-18.71,90.29-33.32,136.82-43.41l39.41-8.54v-40.32V53.98
							C1916.25,51.33,1958.28,50,2000,50c41.41,0,83.13,1.31,124.52,3.92v1139.55v40.37l39.46,8.51
							c46.86,10.1,93.2,24.77,137.72,43.6c92.31,39.05,175.18,94.92,246.31,166.05s126.99,154,166.04,246.3
							c18.71,44.25,33.31,90.26,43.4,136.76C2769.09,1888.73,2775,1944.22,2775,2000 M1475,2000
							c0,216.15,129.92,407.64,330.98,487.84c61.77,24.66,127.05,37.16,194.02,37.16c66.56,0,131.48-12.36,192.94-36.73
							C2394.66,2408.32,2525,2216.66,2525,2000s-130.34-408.32-332.05-488.27c-61.47-24.37-126.39-36.73-192.95-36.73
							c-66.97,0-132.24,12.5-194,37.16C1604.92,1592.36,1475,1783.85,1475,2000 M2825,2000c0-59.6-6.26-118.27-18.69-175.55
							c-10.78-49.69-26.21-98.33-46.21-145.63c-41.57-98.26-101.03-186.47-176.74-262.18s-163.92-135.17-262.18-176.74
							c-47.62-20.14-96.61-35.64-146.66-46.43V7.51C2117.01,2.54,2058.8,0,2000,0c-59.13,0-117.66,2.57-175.48,7.59v1186.09
							c-49.72,10.78-98.38,26.21-145.7,46.22c-98.26,41.57-186.47,101.03-262.18,176.74s-135.18,163.92-176.74,262.18
							c-43.06,101.82-64.9,209.88-64.9,321.18s21.84,219.36,64.9,321.18c41.56,98.26,101.03,186.47,176.74,262.18
							s163.92,135.18,262.18,176.74c47.32,20.01,95.98,35.44,145.7,46.22v1186.09c57.82,5.02,116.35,7.59,175.48,7.59
							c58.8,0,117.01-2.54,174.52-7.51V2806.53c50.05-10.79,99.04-26.29,146.66-46.43c98.26-41.56,186.47-101.03,262.18-176.74
							c75.71-75.71,135.17-163.92,176.74-262.18C2803.16,2219.36,2825,2111.3,2825,2000L2825,2000z M1525,2000
							c0-199.97,124.2-371.47,299.52-441.4c54.31-21.68,113.53-33.6,175.48-33.6c61.59,0,120.47,11.78,174.52,33.21
							C2350.34,1627.9,2475,1799.67,2475,2000s-124.66,372.1-300.48,441.79c-54.05,21.43-112.93,33.21-174.52,33.21
							c-61.95,0-121.17-11.92-175.48-33.6C1649.2,2371.47,1525,2199.97,1525,2000L1525,2000z"/>
					</g>
					<line class="st8" x1="3891.55" y1="2180.03" x2="3891.56" y2="2180.03"/>
				</g>
			</g>
		</g>
	</g>
	<g id="defisMoyen_00000053506415604232497080000000489934037299319741_" class="st0">
		<g id="RDM_00000175303255004930868110000005194786009088973474_" class="st1">
			<g id="Difficile_00000163787644515171818210000011256619887121423236_" class="st0">
				<path class="st2" d="M2600,2349.6v-699.2c0-138.29-112.11-250.4-250.4-250.4h-699.2c-138.29,0-250.4,112.11-250.4,250.4v699.2
					c0,138.29,112.11,250.4,250.4,250.4h699.2C2487.89,2600,2600,2487.89,2600,2349.6z"/>
				<path class="st2" d="M3900,2349.6v-699.2c0-138.29-112.11-250.4-250.4-250.4h-699.2c-138.29,0-250.4,112.11-250.4,250.4v699.2
					c0,138.29,112.11,250.4,250.4,250.4h699.2C3787.89,2600,3900,2487.89,3900,2349.6z"/>
				<path class="st2" d="M1300,2349.6v-699.2c0-138.29-112.11-250.4-250.4-250.4H350.4c-138.29,0-250.4,112.11-250.4,250.4v699.2
					c0,138.29,112.11,250.4,250.4,250.4h699.2C1187.89,2600,1300,2487.89,1300,2349.6z"/>
			</g>
			<g id="Moyen_00000063623201426267626080000010600756114866870916_">
				<path class="st9" d="M3250,2349.6v-699.2c0-138.29-112.11-250.4-250.4-250.4h-699.2c-138.29,0-250.4,112.11-250.4,250.4v699.2
					c0,138.29,112.11,250.4,250.4,250.4h699.2C3137.89,2600,3250,2487.89,3250,2349.6z"/>
				<path class="st9" d="M1950,2349.6v-699.2c0-138.29-112.11-250.4-250.4-250.4h-699.2c-138.29,0-250.4,112.11-250.4,250.4v699.2
					c0,138.29,112.11,250.4,250.4,250.4h699.2C1837.89,2600,1950,2487.89,1950,2349.6z"/>
			</g>
			<g id="Facile_00000166636463300311530200000017321173863272917152_" class="st0">
				<path class="st10" d="M2600,2349.6v-699.2c0-138.29-112.11-250.4-250.4-250.4h-699.2c-138.29,0-250.4,112.11-250.4,250.4v699.2
					c0,138.29,112.11,250.4,250.4,250.4h699.2C2487.89,2600,2600,2487.89,2600,2349.6z"/>
			</g>
			<g id="BM_00000098923883978602439030000001097933301138966694_" class="st0">
				<g class="st1">
					<path class="st5" d="M2383.02,138.6c121.95,24.96,241.89,62.19,356.51,110.67c112.57,47.61,221.14,106.54,322.71,175.16
						c100.63,67.99,195.26,146.06,281.26,232.07c86.01,86,164.08,180.63,232.07,281.26c68.62,101.57,127.55,210.14,175.16,322.71
						c48.48,114.62,85.71,234.56,110.67,356.51c25.61,125.17,38.6,254.04,38.6,383.02c0,60.15-2.83,120.28-8.45,180.03
						c-6.41,68.35-16.48,136.2-30.15,202.99c-24.96,121.95-62.19,241.89-110.67,356.51c-47.61,112.57-106.54,221.14-175.16,322.71
						c-67.99,100.63-146.06,195.26-232.07,281.26c-86,86.01-180.63,164.08-281.26,232.07c-101.57,68.62-210.14,127.55-322.71,175.16
						c-114.62,48.48-234.56,85.71-356.51,110.67c-68.59,14.03-138.28,24.28-208.5,30.66v100.43
						C3197.37,3904.07,4000,3045.77,4000,2000S3197.37,95.93,2174.52,7.51v100.43C2244.74,114.32,2314.43,124.57,2383.02,138.6z
						 M1616.98,3861.4c-121.95-24.96-241.89-62.19-356.51-110.67c-112.57-47.61-221.14-106.54-322.71-175.16
						c-100.63-67.99-195.26-146.06-281.26-232.07c-86.01-86-164.08-180.63-232.07-281.26c-68.62-101.57-127.55-210.14-175.16-322.71
						c-48.48-114.62-85.71-234.56-110.67-356.51C112.99,2257.85,100,2128.98,100,2000s12.99-257.85,38.6-383.02
						c24.96-121.95,62.19-241.89,110.67-356.51c47.61-112.57,106.54-221.14,175.16-322.71C492.42,837.13,570.49,742.5,656.5,656.5
						c86-86.01,180.63-164.08,281.26-232.07c101.57-68.62,210.14-127.55,322.71-175.16c114.62-48.48,234.56-85.71,356.51-110.67
						c68.27-13.97,137.65-24.18,207.54-30.57V7.59C802.13,96.46,0,954.56,0,2000s802.13,1903.54,1824.52,1992.41v-100.44
						C1754.63,3885.58,1685.25,3875.37,1616.98,3861.4z"/>
					<g>
						<path class="st6" d="M2174.52,3892.06V2806.53c50.05-10.79,99.04-26.29,146.66-46.43c98.26-41.56,186.47-101.03,262.18-176.74
							c75.71-75.71,135.17-163.92,176.74-262.18c43.06-101.82,64.9-209.88,64.9-321.18c0-59.6-6.26-118.27-18.69-175.55
							c-10.78-49.69-26.21-98.33-46.21-145.63c-41.57-98.26-101.03-186.47-176.74-262.18c-75.71-75.71-163.92-135.17-262.18-176.74
							c-47.62-20.14-96.61-35.64-146.66-46.43V107.94c70.22,6.38,139.91,16.63,208.5,30.66c121.95,24.96,241.89,62.19,356.51,110.67
							c112.57,47.61,221.14,106.54,322.71,175.16c100.63,67.99,195.26,146.06,281.26,232.07c86.01,86,164.08,180.63,232.07,281.26
							c68.62,101.57,127.55,210.14,175.16,322.71c48.48,114.62,85.71,234.56,110.67,356.51c25.61,125.17,38.6,254.04,38.6,383.02
							c0,60.15-2.83,120.28-8.45,180.03c-6.41,68.35-16.48,136.2-30.15,202.99c-24.96,121.95-62.19,241.89-110.67,356.51
							c-47.61,112.57-106.54,221.14-175.16,322.71c-67.99,100.63-146.06,195.26-232.07,281.26
							c-86,86.01-180.63,164.08-281.26,232.07c-101.57,68.62-210.14,127.55-322.71,175.16c-114.62,48.48-234.56,85.71-356.51,110.67
							C2314.43,3875.43,2244.74,3885.68,2174.52,3892.06z"/>
					</g>
					<g>
						<path class="st6" d="M1824.52,3891.97c-69.89-6.39-139.27-16.6-207.54-30.57c-121.95-24.96-241.89-62.19-356.51-110.67
							c-112.57-47.61-221.14-106.54-322.71-175.16c-100.63-67.99-195.26-146.06-281.26-232.07
							c-86.01-86-164.08-180.63-232.07-281.26c-68.62-101.57-127.55-210.14-175.16-322.71c-48.48-114.62-85.71-234.56-110.67-356.51
							C112.99,2257.85,100,2128.98,100,2000s12.99-257.85,38.6-383.02c24.96-121.95,62.19-241.89,110.67-356.51
							c47.61-112.57,106.54-221.14,175.16-322.71C492.42,837.13,570.49,742.5,656.5,656.5c86-86.01,180.63-164.08,281.26-232.07
							c101.57-68.62,210.14-127.55,322.71-175.16c114.62-48.48,234.56-85.71,356.51-110.67c68.27-13.97,137.65-24.18,207.54-30.57
							v1085.65c-49.72,10.78-98.38,26.21-145.7,46.22c-98.26,41.57-186.47,101.03-262.18,176.74s-135.18,163.92-176.74,262.18
							c-43.06,101.82-64.9,209.88-64.9,321.18c0,111.3,21.84,219.36,64.9,321.18c41.56,98.26,101.03,186.47,176.74,262.18
							s163.92,135.18,262.18,176.74c47.32,20.01,95.98,35.44,145.7,46.22V3891.97z"/>
					</g>
					<path class="st5" d="M2400,2000c0-220.91-179.09-400-400-400s-400,179.09-400,400s179.09,400,400,400S2400,2220.91,2400,2000z
						 M1785.63,2214.37c-57.26-57.26-88.79-133.39-88.79-214.37c0-80.98,31.53-157.11,88.79-214.37s133.39-88.79,214.37-88.79
						s157.11,31.53,214.37,88.79s88.79,133.39,88.79,214.37c0,80.98-31.53,157.11-88.79,214.37
						c-57.26,57.26-133.39,88.79-214.37,88.79C1919.02,2303.16,1842.89,2271.63,1785.63,2214.37z"/>
					<g>
						<path class="st6" d="M2174.52,2441.79C2350.34,2372.1,2475,2200.33,2475,2000s-124.66-372.1-300.48-441.79
							c-54.05-21.43-112.93-33.21-174.52-33.21c-61.95,0-121.17,11.92-175.48,33.6C1649.2,1628.53,1525,1800.03,1525,2000
							s124.2,371.47,299.52,441.4c54.31,21.68,113.53,33.6,175.48,33.6C2061.59,2475,2120.47,2463.22,2174.52,2441.79z M1600,2000
							c0-220.91,179.09-400,400-400s400,179.09,400,400s-179.09,400-400,400S1600,2220.91,1600,2000z"/>
					</g>
					<g>
						<path class="st6" d="M2000,2303.16c-80.98,0-157.11-31.53-214.37-88.79c-57.26-57.26-88.79-133.39-88.79-214.37
							c0-80.98,31.53-157.11,88.79-214.37s133.39-88.79,214.37-88.79s157.11,31.53,214.37,88.79s88.79,133.39,88.79,214.37
							s-31.53,157.11-88.79,214.37C2157.11,2271.63,2080.98,2303.16,2000,2303.16z"/>
					</g>
					<g>
						<path class="st7" d="M1200,2000c0-107.93,21.17-212.71,62.93-311.44c40.29-95.27,97.96-180.81,171.39-254.24
							c73.41-73.42,158.95-131.08,254.24-171.39c45.68-19.32,93.21-34.39,141.25-44.81l19.7-4.27V30.65
							C1899.43,26.9,1949.94,25,2000,25c49.76,0,99.95,1.87,149.52,5.58v1183.08l19.73,4.25c48.39,10.43,96.23,25.58,142.19,45.02
							c95.29,40.31,180.83,97.98,254.24,171.39s131.08,158.96,171.39,254.24c19.31,45.67,34.39,93.18,44.8,141.19
							c12.02,55.41,18.12,112.69,18.12,170.25c0,107.92-21.17,212.71-62.93,311.44c-40.31,95.29-97.98,180.83-171.39,254.24
							c-73.43,73.43-158.97,131.1-254.24,171.39c-45.96,19.44-93.8,34.59-142.19,45.02l-19.73,4.25v1183.08
							c-49.57,3.7-99.76,5.58-149.52,5.58c-50.06,0-100.57-1.9-150.48-5.65V2786.16l-19.7-4.27
							c-48.05-10.42-95.57-25.5-141.26-44.82c-95.27-40.29-180.81-97.96-254.24-171.39c-73.43-73.43-131.1-158.97-171.39-254.24
							C1221.17,2212.71,1200,2107.93,1200,2000z M2500,2000c0-206.34-124.14-388.88-316.27-465.03
							c-58.52-23.2-120.34-34.97-183.73-34.97c-63.78,0-125.94,11.9-184.75,35.38C1623.75,1611.77,1500,1794.14,1500,2000
							c0,205.86,123.75,388.23,315.26,464.62c58.81,23.47,120.97,35.38,184.74,35.38c63.39,0,125.21-11.77,183.73-34.97
							C2375.86,2388.88,2500,2206.34,2500,2000z"/>
						<path class="st5" d="M2775,2000c0,104.56-20.51,206.07-60.95,301.7c-39.05,92.31-94.92,175.18-166.05,246.31
							c-71.14,71.15-154.01,127.01-246.3,166.04c-44.53,18.83-90.86,33.5-137.72,43.6l-39.46,8.51v40.37v1139.55
							c-41.39,2.6-83.11,3.92-124.52,3.92c-41.72,0-83.75-1.33-125.48-3.98v-1139.7V2766l-39.41-8.54
							c-46.53-10.09-92.57-24.69-136.82-43.41c-92.29-39.04-175.16-94.9-246.3-166.05c-71.15-71.14-127.01-154.01-166.04-246.3
							c-40.44-95.64-60.95-197.14-60.95-301.71c0-104.56,20.51-206.07,60.95-301.7c39.04-92.29,94.9-175.16,166.05-246.3
							c71.13-71.13,154-126.99,246.3-166.04c44.26-18.71,90.29-33.32,136.82-43.41l39.41-8.54v-40.32V53.98
							C1916.25,51.33,1958.28,50,2000,50c41.41,0,83.13,1.31,124.52,3.92v1139.55v40.37l39.46,8.51
							c46.86,10.1,93.2,24.77,137.72,43.6c92.31,39.05,175.18,94.92,246.31,166.05s126.99,154,166.04,246.3
							c18.71,44.25,33.31,90.26,43.4,136.76C2769.09,1888.73,2775,1944.22,2775,2000 M1475,2000
							c0,216.15,129.92,407.64,330.98,487.84c61.77,24.66,127.05,37.16,194.02,37.16c66.56,0,131.48-12.36,192.94-36.73
							C2394.66,2408.32,2525,2216.66,2525,2000s-130.34-408.32-332.05-488.27c-61.47-24.37-126.39-36.73-192.95-36.73
							c-66.97,0-132.24,12.5-194,37.16C1604.92,1592.36,1475,1783.85,1475,2000 M2825,2000c0-59.6-6.26-118.27-18.69-175.55
							c-10.78-49.69-26.21-98.33-46.21-145.63c-41.57-98.26-101.03-186.47-176.74-262.18s-163.92-135.17-262.18-176.74
							c-47.62-20.14-96.61-35.64-146.66-46.43V7.51C2117.01,2.54,2058.8,0,2000,0c-59.13,0-117.66,2.57-175.48,7.59v1186.09
							c-49.72,10.78-98.38,26.21-145.7,46.22c-98.26,41.57-186.47,101.03-262.18,176.74s-135.18,163.92-176.74,262.18
							c-43.06,101.82-64.9,209.88-64.9,321.18s21.84,219.36,64.9,321.18c41.56,98.26,101.03,186.47,176.74,262.18
							s163.92,135.18,262.18,176.74c47.32,20.01,95.98,35.44,145.7,46.22v1186.09c57.82,5.02,116.35,7.59,175.48,7.59
							c58.8,0,117.01-2.54,174.52-7.51V2806.53c50.05-10.79,99.04-26.29,146.66-46.43c98.26-41.56,186.47-101.03,262.18-176.74
							c75.71-75.71,135.17-163.92,176.74-262.18C2803.16,2219.36,2825,2111.3,2825,2000L2825,2000z M1525,2000
							c0-199.97,124.2-371.47,299.52-441.4c54.31-21.68,113.53-33.6,175.48-33.6c61.59,0,120.47,11.78,174.52,33.21
							C2350.34,1627.9,2475,1799.67,2475,2000s-124.66,372.1-300.48,441.79c-54.05,21.43-112.93,33.21-174.52,33.21
							c-61.95,0-121.17-11.92-175.48-33.6C1649.2,2371.47,1525,2199.97,1525,2000L1525,2000z"/>
					</g>
					<line class="st8" x1="3891.55" y1="2180.03" x2="3891.56" y2="2180.03"/>
				</g>
			</g>
		</g>
	</g>
	<g id="defisFacile_00000141439705581278855160000001121101279164460181_" class="st0">
		<g id="RDM_00000018956572654269418340000015075898515741537215_" class="st1">
			<g id="Difficile_00000010271676018724339070000016787589428599678894_" class="st0">
				<path class="st2" d="M2600,2349.6v-699.2c0-138.29-112.11-250.4-250.4-250.4h-699.2c-138.29,0-250.4,112.11-250.4,250.4v699.2
					c0,138.29,112.11,250.4,250.4,250.4h699.2C2487.89,2600,2600,2487.89,2600,2349.6z"/>
				<path class="st2" d="M3900,2349.6v-699.2c0-138.29-112.11-250.4-250.4-250.4h-699.2c-138.29,0-250.4,112.11-250.4,250.4v699.2
					c0,138.29,112.11,250.4,250.4,250.4h699.2C3787.89,2600,3900,2487.89,3900,2349.6z"/>
				<path class="st2" d="M1300,2349.6v-699.2c0-138.29-112.11-250.4-250.4-250.4H350.4c-138.29,0-250.4,112.11-250.4,250.4v699.2
					c0,138.29,112.11,250.4,250.4,250.4h699.2C1187.89,2600,1300,2487.89,1300,2349.6z"/>
			</g>
			<g id="Moyen_00000031181536307566774030000003085813101578975919_" class="st0">
				<path class="st3" d="M3250,2349.6v-699.2c0-138.29-112.11-250.4-250.4-250.4h-699.2c-138.29,0-250.4,112.11-250.4,250.4v699.2
					c0,138.29,112.11,250.4,250.4,250.4h699.2C3137.89,2600,3250,2487.89,3250,2349.6z"/>
				<path class="st3" d="M1950,2349.6v-699.2c0-138.29-112.11-250.4-250.4-250.4h-699.2c-138.29,0-250.4,112.11-250.4,250.4v699.2
					c0,138.29,112.11,250.4,250.4,250.4h699.2C1837.89,2600,1950,2487.89,1950,2349.6z"/>
			</g>
			<g id="Facile_00000135665750070853099800000015594031734583908534_">
				<path class="st9" d="M2600,2349.6v-699.2c0-138.29-112.11-250.4-250.4-250.4h-699.2c-138.29,0-250.4,112.11-250.4,250.4v699.2
					c0,138.29,112.11,250.4,250.4,250.4h699.2C2487.89,2600,2600,2487.89,2600,2349.6z"/>
			</g>
			<g id="BM_00000020396222715892720410000005869562552397939884_" class="st0">
				<g class="st1">
					<path class="st5" d="M2383.02,138.6c121.95,24.96,241.89,62.19,356.51,110.67c112.57,47.61,221.14,106.54,322.71,175.16
						c100.63,67.99,195.26,146.06,281.26,232.07c86.01,86,164.08,180.63,232.07,281.26c68.62,101.57,127.55,210.14,175.16,322.71
						c48.48,114.62,85.71,234.56,110.67,356.51c25.61,125.17,38.6,254.04,38.6,383.02c0,60.15-2.83,120.28-8.45,180.03
						c-6.41,68.35-16.48,136.2-30.15,202.99c-24.96,121.95-62.19,241.89-110.67,356.51c-47.61,112.57-106.54,221.14-175.16,322.71
						c-67.99,100.63-146.06,195.26-232.07,281.26c-86,86.01-180.63,164.08-281.26,232.07c-101.57,68.62-210.14,127.55-322.71,175.16
						c-114.62,48.48-234.56,85.71-356.51,110.67c-68.59,14.03-138.28,24.28-208.5,30.66v100.43
						C3197.37,3904.07,4000,3045.77,4000,2000S3197.37,95.93,2174.52,7.51v100.43C2244.74,114.32,2314.43,124.57,2383.02,138.6z
						 M1616.98,3861.4c-121.95-24.96-241.89-62.19-356.51-110.67c-112.57-47.61-221.14-106.54-322.71-175.16
						c-100.63-67.99-195.26-146.06-281.26-232.07c-86.01-86-164.08-180.63-232.07-281.26c-68.62-101.57-127.55-210.14-175.16-322.71
						c-48.48-114.62-85.71-234.56-110.67-356.51C112.99,2257.85,100,2128.98,100,2000s12.99-257.85,38.6-383.02
						c24.96-121.95,62.19-241.89,110.67-356.51c47.61-112.57,106.54-221.14,175.16-322.71C492.42,837.13,570.49,742.5,656.5,656.5
						c86-86.01,180.63-164.08,281.26-232.07c101.57-68.62,210.14-127.55,322.71-175.16c114.62-48.48,234.56-85.71,356.51-110.67
						c68.27-13.97,137.65-24.18,207.54-30.57V7.59C802.13,96.46,0,954.56,0,2000s802.13,1903.54,1824.52,1992.41v-100.44
						C1754.63,3885.58,1685.25,3875.37,1616.98,3861.4z"/>
					<g>
						<path class="st6" d="M2174.52,3892.06V2806.53c50.05-10.79,99.04-26.29,146.66-46.43c98.26-41.56,186.47-101.03,262.18-176.74
							c75.71-75.71,135.17-163.92,176.74-262.18c43.06-101.82,64.9-209.88,64.9-321.18c0-59.6-6.26-118.27-18.69-175.55
							c-10.78-49.69-26.21-98.33-46.21-145.63c-41.57-98.26-101.03-186.47-176.74-262.18c-75.71-75.71-163.92-135.17-262.18-176.74
							c-47.62-20.14-96.61-35.64-146.66-46.43V107.94c70.22,6.38,139.91,16.63,208.5,30.66c121.95,24.96,241.89,62.19,356.51,110.67
							c112.57,47.61,221.14,106.54,322.71,175.16c100.63,67.99,195.26,146.06,281.26,232.07c86.01,86,164.08,180.63,232.07,281.26
							c68.62,101.57,127.55,210.14,175.16,322.71c48.48,114.62,85.71,234.56,110.67,356.51c25.61,125.17,38.6,254.04,38.6,383.02
							c0,60.15-2.83,120.28-8.45,180.03c-6.41,68.35-16.48,136.2-30.15,202.99c-24.96,121.95-62.19,241.89-110.67,356.51
							c-47.61,112.57-106.54,221.14-175.16,322.71c-67.99,100.63-146.06,195.26-232.07,281.26
							c-86,86.01-180.63,164.08-281.26,232.07c-101.57,68.62-210.14,127.55-322.71,175.16c-114.62,48.48-234.56,85.71-356.51,110.67
							C2314.43,3875.43,2244.74,3885.68,2174.52,3892.06z"/>
					</g>
					<g>
						<path class="st6" d="M1824.52,3891.97c-69.89-6.39-139.27-16.6-207.54-30.57c-121.95-24.96-241.89-62.19-356.51-110.67
							c-112.57-47.61-221.14-106.54-322.71-175.16c-100.63-67.99-195.26-146.06-281.26-232.07
							c-86.01-86-164.08-180.63-232.07-281.26c-68.62-101.57-127.55-210.14-175.16-322.71c-48.48-114.62-85.71-234.56-110.67-356.51
							C112.99,2257.85,100,2128.98,100,2000s12.99-257.85,38.6-383.02c24.96-121.95,62.19-241.89,110.67-356.51
							c47.61-112.57,106.54-221.14,175.16-322.71C492.42,837.13,570.49,742.5,656.5,656.5c86-86.01,180.63-164.08,281.26-232.07
							c101.57-68.62,210.14-127.55,322.71-175.16c114.62-48.48,234.56-85.71,356.51-110.67c68.27-13.97,137.65-24.18,207.54-30.57
							v1085.65c-49.72,10.78-98.38,26.21-145.7,46.22c-98.26,41.57-186.47,101.03-262.18,176.74s-135.18,163.92-176.74,262.18
							c-43.06,101.82-64.9,209.88-64.9,321.18c0,111.3,21.84,219.36,64.9,321.18c41.56,98.26,101.03,186.47,176.74,262.18
							s163.92,135.18,262.18,176.74c47.32,20.01,95.98,35.44,145.7,46.22V3891.97z"/>
					</g>
					<path class="st5" d="M2400,2000c0-220.91-179.09-400-400-400s-400,179.09-400,400s179.09,400,400,400S2400,2220.91,2400,2000z
						 M1785.63,2214.37c-57.26-57.26-88.79-133.39-88.79-214.37c0-80.98,31.53-157.11,88.79-214.37s133.39-88.79,214.37-88.79
						s157.11,31.53,214.37,88.79s88.79,133.39,88.79,214.37c0,80.98-31.53,157.11-88.79,214.37
						c-57.26,57.26-133.39,88.79-214.37,88.79C1919.02,2303.16,1842.89,2271.63,1785.63,2214.37z"/>
					<g>
						<path class="st6" d="M2174.52,2441.79C2350.34,2372.1,2475,2200.33,2475,2000s-124.66-372.1-300.48-441.79
							c-54.05-21.43-112.93-33.21-174.52-33.21c-61.95,0-121.17,11.92-175.48,33.6C1649.2,1628.53,1525,1800.03,1525,2000
							s124.2,371.47,299.52,441.4c54.31,21.68,113.53,33.6,175.48,33.6C2061.59,2475,2120.47,2463.22,2174.52,2441.79z M1600,2000
							c0-220.91,179.09-400,400-400s400,179.09,400,400s-179.09,400-400,400S1600,2220.91,1600,2000z"/>
					</g>
					<g>
						<path class="st6" d="M2000,2303.16c-80.98,0-157.11-31.53-214.37-88.79c-57.26-57.26-88.79-133.39-88.79-214.37
							c0-80.98,31.53-157.11,88.79-214.37s133.39-88.79,214.37-88.79s157.11,31.53,214.37,88.79s88.79,133.39,88.79,214.37
							s-31.53,157.11-88.79,214.37C2157.11,2271.63,2080.98,2303.16,2000,2303.16z"/>
					</g>
					<g>
						<path class="st7" d="M1200,2000c0-107.93,21.17-212.71,62.93-311.44c40.29-95.27,97.96-180.81,171.39-254.24
							c73.41-73.42,158.95-131.08,254.24-171.39c45.68-19.32,93.21-34.39,141.25-44.81l19.7-4.27V30.65
							C1899.43,26.9,1949.94,25,2000,25c49.76,0,99.95,1.87,149.52,5.58v1183.08l19.73,4.25c48.39,10.43,96.23,25.58,142.19,45.02
							c95.29,40.31,180.83,97.98,254.24,171.39s131.08,158.96,171.39,254.24c19.31,45.67,34.39,93.18,44.8,141.19
							c12.02,55.41,18.12,112.69,18.12,170.25c0,107.92-21.17,212.71-62.93,311.44c-40.31,95.29-97.98,180.83-171.39,254.24
							c-73.43,73.43-158.97,131.1-254.24,171.39c-45.96,19.44-93.8,34.59-142.19,45.02l-19.73,4.25v1183.08
							c-49.57,3.7-99.76,5.58-149.52,5.58c-50.06,0-100.57-1.9-150.48-5.65V2786.16l-19.7-4.27
							c-48.05-10.42-95.57-25.5-141.26-44.82c-95.27-40.29-180.81-97.96-254.24-171.39c-73.43-73.43-131.1-158.97-171.39-254.24
							C1221.17,2212.71,1200,2107.93,1200,2000z M2500,2000c0-206.34-124.14-388.88-316.27-465.03
							c-58.52-23.2-120.34-34.97-183.73-34.97c-63.78,0-125.94,11.9-184.75,35.38C1623.75,1611.77,1500,1794.14,1500,2000
							c0,205.86,123.75,388.23,315.26,464.62c58.81,23.47,120.97,35.38,184.74,35.38c63.39,0,125.21-11.77,183.73-34.97
							C2375.86,2388.88,2500,2206.34,2500,2000z"/>
						<path class="st5" d="M2775,2000c0,104.56-20.51,206.07-60.95,301.7c-39.05,92.31-94.92,175.18-166.05,246.31
							c-71.14,71.15-154.01,127.01-246.3,166.04c-44.53,18.83-90.86,33.5-137.72,43.6l-39.46,8.51v40.37v1139.55
							c-41.39,2.6-83.11,3.92-124.52,3.92c-41.72,0-83.75-1.33-125.48-3.98v-1139.7V2766l-39.41-8.54
							c-46.53-10.09-92.57-24.69-136.82-43.41c-92.29-39.04-175.16-94.9-246.3-166.05c-71.15-71.14-127.01-154.01-166.04-246.3
							c-40.44-95.64-60.95-197.14-60.95-301.71c0-104.56,20.51-206.07,60.95-301.7c39.04-92.29,94.9-175.16,166.05-246.3
							c71.13-71.13,154-126.99,246.3-166.04c44.26-18.71,90.29-33.32,136.82-43.41l39.41-8.54v-40.32V53.98
							C1916.25,51.33,1958.28,50,2000,50c41.41,0,83.13,1.31,124.52,3.92v1139.55v40.37l39.46,8.51
							c46.86,10.1,93.2,24.77,137.72,43.6c92.31,39.05,175.18,94.92,246.31,166.05s126.99,154,166.04,246.3
							c18.71,44.25,33.31,90.26,43.4,136.76C2769.09,1888.73,2775,1944.22,2775,2000 M1475,2000
							c0,216.15,129.92,407.64,330.98,487.84c61.77,24.66,127.05,37.16,194.02,37.16c66.56,0,131.48-12.36,192.94-36.73
							C2394.66,2408.32,2525,2216.66,2525,2000s-130.34-408.32-332.05-488.27c-61.47-24.37-126.39-36.73-192.95-36.73
							c-66.97,0-132.24,12.5-194,37.16C1604.92,1592.36,1475,1783.85,1475,2000 M2825,2000c0-59.6-6.26-118.27-18.69-175.55
							c-10.78-49.69-26.21-98.33-46.21-145.63c-41.57-98.26-101.03-186.47-176.74-262.18s-163.92-135.17-262.18-176.74
							c-47.62-20.14-96.61-35.64-146.66-46.43V7.51C2117.01,2.54,2058.8,0,2000,0c-59.13,0-117.66,2.57-175.48,7.59v1186.09
							c-49.72,10.78-98.38,26.21-145.7,46.22c-98.26,41.57-186.47,101.03-262.18,176.74s-135.18,163.92-176.74,262.18
							c-43.06,101.82-64.9,209.88-64.9,321.18s21.84,219.36,64.9,321.18c41.56,98.26,101.03,186.47,176.74,262.18
							s163.92,135.18,262.18,176.74c47.32,20.01,95.98,35.44,145.7,46.22v1186.09c57.82,5.02,116.35,7.59,175.48,7.59
							c58.8,0,117.01-2.54,174.52-7.51V2806.53c50.05-10.79,99.04-26.29,146.66-46.43c98.26-41.56,186.47-101.03,262.18-176.74
							c75.71-75.71,135.17-163.92,176.74-262.18C2803.16,2219.36,2825,2111.3,2825,2000L2825,2000z M1525,2000
							c0-199.97,124.2-371.47,299.52-441.4c54.31-21.68,113.53-33.6,175.48-33.6c61.59,0,120.47,11.78,174.52,33.21
							C2350.34,1627.9,2475,1799.67,2475,2000s-124.66,372.1-300.48,441.79c-54.05,21.43-112.93,33.21-174.52,33.21
							c-61.95,0-121.17-11.92-175.48-33.6C1649.2,2371.47,1525,2199.97,1525,2000L1525,2000z"/>
					</g>
					<line class="st8" x1="3891.55" y1="2180.03" x2="3891.56" y2="2180.03"/>
				</g>
			</g>
		</g>
	</g>
	<g id="flecheDroite_00000039118711772541021070000013396549442709512862_" class="st0">
		<g class="st1">
			<g>
				<path class="st9" d="M2129.84,3917.14L3844.09,202.95c26.86-59.14,10.86-129.71-40-170.85
					c-50.86-41.43-123.14-42.86-175.42-3.43l-1628.53,1221.4L371.6,28.67c-52.28-39.43-124.85-38-175.42,3.14
					c-34.57,27.71-53.14,69.14-53.14,111.14c0,20.29,4.29,40.57,13.14,59.71l1714.24,3714.2c23.43,50.86,74,83.14,129.71,83.14
					C2055.84,4000,2106.41,3967.72,2129.84,3917.14z"/>
			</g>
		</g>
	</g>
	<g id="flecheGauche_00000161619226261066351740000004816582527717118595_" class="st0">
		<g class="st1">
			<g>
				<path class="st9" d="M1870.16,82.86L155.92,3797.06c-26.86,59.14-10.86,129.71,40,170.85c50.86,41.43,123.14,42.86,175.42,3.43
					l1628.53-1221.4L3628.4,3971.33c52.28,39.43,124.85,38,175.42-3.14c34.57-27.71,53.14-69.14,53.14-111.14
					c0-20.29-4.29-40.57-13.14-59.71L2129.58,83.14C2106.15,32.28,2055.58,0,1999.87,0S1893.59,32.28,1870.16,82.86z"/>
			</g>
		</g>
	</g>
	<g id="flecheBottom_00000029047029857584408190000009373824922276730813_" class="st0">
		<g class="st1">
			<g>
				<path class="st9" d="M82.86,2129.84l3714.2,1714.24c59.14,26.86,129.71,10.86,170.85-40c41.43-50.86,42.86-123.14,3.43-175.42
					l-1221.4-1628.53L3971.33,371.6c39.43-52.28,38-124.85-3.14-175.42c-27.71-34.57-69.14-53.14-111.14-53.14
					c-20.29,0-40.57,4.29-59.71,13.14L83.14,1870.42C32.28,1893.85,0,1944.42,0,2000.13C0,2055.84,32.29,2106.41,82.86,2129.84z"/>
			</g>
		</g>
	</g>
	<g id="flecheTop_00000089571156518958498480000015326257346211416226_">
		<g>
			<g>
				<path class="st9" d="M3917.15,1870.16L202.95,155.91c-59.14-26.86-129.71-10.86-170.85,40
					c-41.43,50.86-42.86,123.14-3.43,175.42l1221.4,1628.53L28.67,3628.39c-39.43,52.28-38,124.85,3.14,175.42
					c27.71,34.57,69.14,53.14,111.14,53.14c20.29,0,40.57-4.29,59.71-13.14l3714.2-1714.23c50.86-23.43,83.14-74,83.14-129.71
					C4000,1944.16,3967.72,1893.58,3917.15,1870.16z"/>
			</g>
		</g>
	</g>
</g>
</svg>
