<?xml version="1.0" encoding="utf-8"?>
<!-- Generator: Adobe Illustrator 26.0.1, SVG Export Plug-In . SVG Version: 6.00 Build 0)  -->
<svg version="1.1" id="Calque_1" xmlns="http://www.w3.org/2000/svg" xmlns:xlink="http://www.w3.org/1999/xlink" x="0px" y="0px"
	 viewBox="0 0 4000 4000" style="enable-background:new 0 0 4000 4000;" xml:space="preserve">
<style type="text/css">
	.st0{display:none;}
	.st1{display:inline;}
	.st2{display:inline;fill:#AE252A;}
	.st3{display:inline;fill:#E7582E;}
	.st4{display:inline;fill:#63E136;}
	.st5{fill:#191919;}
	.st6{fill:#EDEDED;}
	.st7{fill:#BE1622;}
	.st8{fill:none;stroke:#191919;stroke-miterlimit:10;}
	.st9{fill:#1D1D1B;}
	.st10{display:inline;fill:#1D1D1B;}
</style>
<g id="ui_00000016065285449466594420000008692094061301031607_">
	<g id="BM_00000091703960848764136570000002387225860222170025_" class="st0">
		<g id="RDM_00000093143836727348746590000017638773347124601519_" class="st1">
			<g id="Difficile_00000159443024543908159410000016697112216605766583_" class="st0">
				<path class="st2" d="M1400,1650.4v699.2c0,138.29,112.11,250.4,250.4,250.4h699.2c138.29,0,250.4-112.11,250.4-250.4v-699.2
					c0-138.29-112.11-250.4-250.4-250.4h-699.2C1512.11,1400,1400,1512.11,1400,1650.4z"/>
				<path class="st2" d="M100,1650.4v699.2c0,138.29,112.11,250.4,250.4,250.4h699.2c138.29,0,250.4-112.11,250.4-250.4v-699.2
					c0-138.29-112.11-250.4-250.4-250.4H350.4C212.11,1400,100,1512.11,100,1650.4z"/>
				<path class="st2" d="M2700,1650.4v699.2c0,138.29,112.11,250.4,250.4,250.4h699.2c138.29,0,250.4-112.11,250.4-250.4v-699.2
					c0-138.29-112.11-250.4-250.4-250.4h-699.2C2812.11,1400,2700,1512.11,2700,1650.4z"/>
			</g>
			<g id="Moyen_00000025410817992602495850000009804168492979719347_" class="st0">
				<path class="st3" d="M750,1650.4v699.2c0,138.29,112.11,250.4,250.4,250.4h699.2c138.29,0,250.4-112.11,250.4-250.4v-699.2
					c0-138.29-112.11-250.4-250.4-250.4h-699.2C862.11,1400,750,1512.11,750,1650.4z"/>
				<path class="st3" d="M2050,1650.4v699.2c0,138.29,112.11,250.4,250.4,250.4h699.2c138.29,0,250.4-112.11,250.4-250.4v-699.2
					c0-138.29-112.11-250.4-250.4-250.4h-699.2C2162.11,1400,2050,1512.11,2050,1650.4z"/>
			</g>
			<g id="Facile_00000013874590291824684900000010382790657893067952_" class="st0">
				<path class="st4" d="M1400,1650.4v699.2c0,138.29,112.11,250.4,250.4,250.4h699.2c138.29,0,250.4-112.11,250.4-250.4v-699.2
					c0-138.29-112.11-250.4-250.4-250.4h-699.2C1512.11,1400,1400,1512.11,1400,1650.4z"/>
			</g>
			<g id="BM_00000054250173364064239560000008911398488636416647_">
				<g>
					<path class="st5" d="M1616.98,3861.4c-121.95-24.96-241.89-62.19-356.51-110.67c-112.57-47.61-221.14-106.54-322.71-175.16
						c-100.63-67.99-195.26-146.06-281.26-232.07c-86.01-86-164.08-180.63-232.07-281.26c-68.62-101.57-127.55-210.14-175.16-322.71
						c-48.48-114.62-85.71-234.56-110.67-356.51C112.99,2257.85,100,2128.98,100,2000c0-60.15,2.83-120.28,8.45-180.03
						c6.41-68.35,16.48-136.2,30.15-202.99c24.96-121.95,62.19-241.89,110.67-356.51c47.61-112.57,106.54-221.14,175.16-322.71
						C492.42,837.13,570.49,742.5,656.5,656.5c86-86.01,180.63-164.08,281.26-232.07c101.57-68.62,210.14-127.55,322.71-175.16
						c114.62-48.48,234.56-85.71,356.51-110.67c68.59-14.03,138.28-24.28,208.5-30.66V7.51C802.63,95.93,0,954.23,0,2000
						s802.63,1904.07,1825.48,1992.49v-100.43C1755.26,3885.68,1685.57,3875.43,1616.98,3861.4z M2383.02,138.6
						c121.95,24.96,241.89,62.19,356.51,110.67c112.57,47.61,221.14,106.54,322.71,175.16c100.63,67.99,195.26,146.06,281.26,232.07
						c86.01,86,164.08,180.63,232.07,281.26c68.62,101.57,127.55,210.14,175.16,322.71c48.48,114.62,85.71,234.56,110.67,356.51
						c25.61,125.17,38.6,254.04,38.6,383.02s-12.99,257.85-38.6,383.02c-24.96,121.95-62.19,241.89-110.67,356.51
						c-47.61,112.57-106.54,221.14-175.16,322.71c-67.99,100.63-146.06,195.26-232.07,281.26c-86,86.01-180.63,164.08-281.26,232.07
						c-101.57,68.62-210.14,127.55-322.71,175.16c-114.62,48.48-234.56,85.71-356.51,110.67c-68.27,13.97-137.65,24.18-207.54,30.57
						v100.44C3197.87,3903.54,4000,3045.44,4000,2000S3197.87,96.46,2175.48,7.59v100.44
						C2245.37,114.42,2314.75,124.63,2383.02,138.6z"/>
					<g>
						<path class="st6" d="M1825.48,107.94v1085.53c-50.05,10.79-99.04,26.29-146.66,46.43
							c-98.26,41.56-186.47,101.03-262.18,176.74c-75.71,75.71-135.17,163.92-176.74,262.18c-43.06,101.82-64.9,209.88-64.9,321.18
							c0,59.6,6.26,118.27,18.69,175.55c10.78,49.69,26.21,98.33,46.21,145.63c41.57,98.26,101.03,186.47,176.74,262.18
							c75.71,75.71,163.92,135.17,262.18,176.74c47.62,20.14,96.61,35.64,146.66,46.43v1085.53
							c-70.22-6.38-139.91-16.63-208.5-30.66c-121.95-24.96-241.89-62.19-356.51-110.67c-112.57-47.61-221.14-106.54-322.71-175.16
							c-100.63-67.99-195.26-146.06-281.26-232.07c-86.01-86-164.08-180.63-232.07-281.26
							c-68.62-101.57-127.55-210.14-175.16-322.71c-48.48-114.62-85.71-234.56-110.67-356.51C112.99,2257.85,100,2128.98,100,2000
							c0-60.15,2.83-120.28,8.45-180.03c6.41-68.35,16.48-136.2,30.15-202.99c24.96-121.95,62.19-241.89,110.67-356.51
							c47.61-112.57,106.54-221.14,175.16-322.71C492.42,837.13,570.49,742.5,656.5,656.5c86-86.01,180.63-164.08,281.26-232.07
							c101.57-68.62,210.14-127.55,322.71-175.16c114.62-48.48,234.56-85.71,356.51-110.67
							C1685.57,124.57,1755.26,114.32,1825.48,107.94z"/>
					</g>
					<g>
						<path class="st6" d="M2175.48,108.03c69.89,6.39,139.27,16.6,207.54,30.57c121.95,24.96,241.89,62.19,356.51,110.67
							c112.57,47.61,221.14,106.54,322.71,175.16c100.63,67.99,195.26,146.06,281.26,232.07c86.01,86,164.08,180.63,232.07,281.26
							c68.62,101.57,127.55,210.14,175.16,322.71c48.48,114.62,85.71,234.56,110.67,356.51c25.61,125.17,38.6,254.04,38.6,383.02
							s-12.99,257.85-38.6,383.02c-24.96,121.95-62.19,241.89-110.67,356.51c-47.61,112.57-106.54,221.14-175.16,322.71
							c-67.99,100.63-146.06,195.26-232.07,281.26c-86,86.01-180.63,164.08-281.26,232.07
							c-101.57,68.62-210.14,127.55-322.71,175.16c-114.62,48.48-234.56,85.71-356.51,110.67
							c-68.27,13.97-137.65,24.18-207.54,30.57V2806.32c49.72-10.78,98.38-26.21,145.7-46.22
							c98.26-41.57,186.47-101.03,262.18-176.74s135.18-163.92,176.74-262.18c43.06-101.82,64.9-209.88,64.9-321.18
							c0-111.3-21.84-219.36-64.9-321.18c-41.56-98.26-101.03-186.47-176.74-262.18s-163.92-135.18-262.18-176.74
							c-47.32-20.01-95.98-35.44-145.7-46.22V108.03z"/>
					</g>
					<path class="st5" d="M1600,2000c0,220.91,179.09,400,400,400s400-179.09,400-400s-179.09-400-400-400S1600,1779.09,1600,2000z
						 M2214.37,1785.63c57.26,57.26,88.79,133.39,88.79,214.37c0,80.98-31.53,157.11-88.79,214.37s-133.39,88.79-214.37,88.79
						s-157.11-31.53-214.37-88.79s-88.79-133.39-88.79-214.37c0-80.98,31.53-157.11,88.79-214.37s133.39-88.79,214.37-88.79
						C2080.98,1696.84,2157.11,1728.37,2214.37,1785.63z"/>
					<g>
						<path class="st6" d="M1825.48,1558.21C1649.66,1627.9,1525,1799.67,1525,2000s124.66,372.1,300.48,441.79
							c54.05,21.43,112.93,33.21,174.52,33.21c61.95,0,121.17-11.92,175.48-33.6C2350.8,2371.47,2475,2199.97,2475,2000
							s-124.2-371.47-299.52-441.4c-54.31-21.68-113.53-33.6-175.48-33.6C1938.41,1525,1879.53,1536.78,1825.48,1558.21z M2400,2000
							c0,220.91-179.09,400-400,400s-400-179.09-400-400s179.09-400,400-400S2400,1779.09,2400,2000z"/>
					</g>
					<g>
						<path class="st6" d="M2000,1696.84c80.98,0,157.11,31.53,214.37,88.79s88.79,133.39,88.79,214.37
							c0,80.98-31.53,157.11-88.79,214.37s-133.39,88.79-214.37,88.79s-157.11-31.53-214.37-88.79s-88.79-133.39-88.79-214.37
							c0-80.98,31.53-157.11,88.79-214.37C1842.89,1728.37,1919.02,1696.84,2000,1696.84z"/>
					</g>
					<g>
						<path class="st7" d="M2800,2000c0,107.93-21.17,212.71-62.93,311.44c-40.29,95.27-97.96,180.81-171.39,254.24
							c-73.41,73.42-158.95,131.08-254.24,171.39c-45.68,19.32-93.21,34.39-141.25,44.81l-19.7,4.27v1183.2
							c-49.92,3.75-100.43,5.65-150.49,5.65c-49.76,0-99.95-1.87-149.52-5.58V2786.34l-19.73-4.25
							c-48.39-10.43-96.23-25.58-142.19-45.02c-95.29-40.31-180.83-97.98-254.24-171.39c-73.41-73.41-131.08-158.96-171.39-254.24
							c-19.31-45.67-34.39-93.18-44.8-141.19c-12.02-55.41-18.12-112.69-18.12-170.25c0-107.92,21.17-212.71,62.93-311.44
							c40.31-95.29,97.98-180.83,171.39-254.24c73.43-73.43,158.97-131.1,254.24-171.39c45.96-19.44,93.8-34.59,142.19-45.02
							l19.73-4.25V30.58c49.57-3.7,99.76-5.58,149.52-5.58c50.06,0,100.57,1.9,150.48,5.65v1183.19l19.7,4.27
							c48.05,10.42,95.57,25.5,141.26,44.82c95.27,40.29,180.81,97.96,254.24,171.39s131.1,158.97,171.39,254.24
							C2778.83,1787.29,2800,1892.07,2800,2000z M1500,2000c0,206.34,124.14,388.88,316.27,465.03
							c58.52,23.2,120.34,34.97,183.73,34.97c63.78,0,125.94-11.9,184.75-35.38C2376.25,2388.23,2500,2205.86,2500,2000
							s-123.75-388.23-315.26-464.62c-58.81-23.47-120.97-35.38-184.74-35.38c-63.39,0-125.21,11.77-183.73,34.97
							C1624.14,1611.12,1500,1793.66,1500,2000z"/>
						<path class="st5" d="M1225,2000c0-104.56,20.51-206.07,60.95-301.7c39.05-92.31,94.92-175.18,166.05-246.31
							c71.14-71.15,154.01-127.01,246.3-166.04c44.53-18.83,90.86-33.5,137.72-43.6l39.46-8.51v-40.37V53.92
							c41.39-2.6,83.11-3.92,124.52-3.92c41.72,0,83.75,1.33,125.48,3.98v1139.7V1234l39.41,8.54
							c46.53,10.09,92.57,24.69,136.82,43.41c92.29,39.04,175.16,94.9,246.3,166.05c71.15,71.14,127.01,154.01,166.04,246.3
							c40.44,95.64,60.95,197.14,60.95,301.71c0,104.56-20.51,206.07-60.95,301.7c-39.04,92.29-94.9,175.16-166.05,246.3
							c-71.13,71.13-154,126.99-246.3,166.04c-44.26,18.71-90.29,33.32-136.82,43.41l-39.41,8.54v40.32v1139.7
							c-41.72,2.65-83.75,3.98-125.47,3.98c-41.41,0-83.13-1.31-124.52-3.92V2806.53v-40.37l-39.46-8.51
							c-46.86-10.1-93.2-24.77-137.72-43.6c-92.31-39.05-175.18-94.92-246.31-166.05c-71.13-71.13-126.99-154-166.04-246.3
							c-18.71-44.25-33.31-90.26-43.4-136.76C1230.91,2111.27,1225,2055.78,1225,2000 M2525,2000
							c0-216.15-129.92-407.64-330.98-487.84C2132.25,1487.5,2066.97,1475,2000,1475c-66.56,0-131.48,12.36-192.94,36.73
							C1605.34,1591.68,1475,1783.34,1475,2000s130.34,408.32,332.05,488.27c61.47,24.37,126.39,36.73,192.95,36.73
							c66.97,0,132.24-12.5,194-37.16C2395.08,2407.64,2525,2216.15,2525,2000 M1175,2000c0,59.6,6.26,118.27,18.69,175.55
							c10.78,49.69,26.21,98.33,46.21,145.63c41.57,98.26,101.03,186.47,176.74,262.18c75.71,75.71,163.92,135.17,262.18,176.74
							c47.62,20.14,96.61,35.64,146.66,46.43v1185.96c57.51,4.97,115.72,7.51,174.52,7.51c59.13,0,117.66-2.57,175.48-7.59V2806.32
							c49.72-10.78,98.38-26.21,145.7-46.22c98.26-41.57,186.47-101.03,262.18-176.74s135.18-163.92,176.74-262.18
							c43.06-101.82,64.9-209.88,64.9-321.18c0-111.3-21.84-219.36-64.9-321.18c-41.56-98.26-101.03-186.47-176.74-262.18
							s-163.92-135.18-262.18-176.74c-47.32-20.01-95.98-35.44-145.7-46.22V7.59C2117.66,2.57,2059.13,0,2000,0
							c-58.8,0-117.01,2.54-174.52,7.51v1185.96c-50.05,10.79-99.04,26.29-146.66,46.43c-98.26,41.56-186.47,101.03-262.18,176.74
							c-75.71,75.71-135.17,163.92-176.74,262.18C1196.84,1780.64,1175,1888.7,1175,2000L1175,2000z M2475,2000
							c0,199.97-124.2,371.47-299.52,441.4c-54.31,21.68-113.53,33.6-175.48,33.6c-61.59,0-120.47-11.78-174.52-33.21
							C1649.66,2372.1,1525,2200.33,1525,2000s124.66-372.1,300.48-441.79c54.05-21.43,112.93-33.21,174.52-33.21
							c61.95,0,121.17,11.92,175.48,33.6C2350.8,1628.53,2475,1800.03,2475,2000L2475,2000z"/>
					</g>
					<line class="st8" x1="108.45" y1="1819.97" x2="108.44" y2="1819.97"/>
				</g>
			</g>
		</g>
	</g>
	<g id="defisDifficile_00000117663077487832633300000010209868728698042018_" class="st0">
		<g id="RDM_00000086659103988358274790000000316392325340564398_" class="st1">
			<g id="Difficile_00000098914223352289467160000006249247825938798744_">
				<path class="st9" d="M1400,1650.4v699.2c0,138.29,112.11,250.4,250.4,250.4h699.2c138.29,0,250.4-112.11,250.4-250.4v-699.2
					c0-138.29-112.11-250.4-250.4-250.4h-699.2C1512.11,1400,1400,1512.11,1400,1650.4z"/>
				<path class="st9" d="M100,1650.4v699.2c0,138.29,112.11,250.4,250.4,250.4h699.2c138.29,0,250.4-112.11,250.4-250.4v-699.2
					c0-138.29-112.11-250.4-250.4-250.4H350.4C212.11,1400,100,1512.11,100,1650.4z"/>
				<path class="st9" d="M2700,1650.4v699.2c0,138.29,112.11,250.4,250.4,250.4h699.2c138.29,0,250.4-112.11,250.4-250.4v-699.2
					c0-138.29-112.11-250.4-250.4-250.4h-699.2C2812.11,1400,2700,1512.11,2700,1650.4z"/>
			</g>
			<g id="Moyen_00000026160242264335892390000006464805269439517619_" class="st0">
				<path class="st10" d="M750,1650.4v699.2c0,138.29,112.11,250.4,250.4,250.4h699.2c138.29,0,250.4-112.11,250.4-250.4v-699.2
					c0-138.29-112.11-250.4-250.4-250.4h-699.2C862.11,1400,750,1512.11,750,1650.4z"/>
				<path class="st10" d="M2050,1650.4v699.2c0,138.29,112.11,250.4,250.4,250.4h699.2c138.29,0,250.4-112.11,250.4-250.4v-699.2
					c0-138.29-112.11-250.4-250.4-250.4h-699.2C2162.11,1400,2050,1512.11,2050,1650.4z"/>
			</g>
			<g id="Facile_00000152969655772666551200000017053548459806624404_" class="st0">
				<path class="st10" d="M1400,1650.4v699.2c0,138.29,112.11,250.4,250.4,250.4h699.2c138.29,0,250.4-112.11,250.4-250.4v-699.2
					c0-138.29-112.11-250.4-250.4-250.4h-699.2C1512.11,1400,1400,1512.11,1400,1650.4z"/>
			</g>
			<g id="BM_00000021108998123524564720000004931582894918856334_" class="st0">
				<g class="st1">
					<path class="st5" d="M1616.98,3861.4c-121.95-24.96-241.89-62.19-356.51-110.67c-112.57-47.61-221.14-106.54-322.71-175.16
						c-100.63-67.99-195.26-146.06-281.26-232.07c-86.01-86-164.08-180.63-232.07-281.26c-68.62-101.57-127.55-210.14-175.16-322.71
						c-48.48-114.62-85.71-234.56-110.67-356.51C112.99,2257.85,100,2128.98,100,2000c0-60.15,2.83-120.28,8.45-180.03
						c6.41-68.35,16.48-136.2,30.15-202.99c24.96-121.95,62.19-241.89,110.67-356.51c47.61-112.57,106.54-221.14,175.16-322.71
						C492.42,837.13,570.49,742.5,656.5,656.5c86-86.01,180.63-164.08,281.26-232.07c101.57-68.62,210.14-127.55,322.71-175.16
						c114.62-48.48,234.56-85.71,356.51-110.67c68.59-14.03,138.28-24.28,208.5-30.66V7.51C802.63,95.93,0,954.23,0,2000
						s802.63,1904.07,1825.48,1992.49v-100.43C1755.26,3885.68,1685.57,3875.43,1616.98,3861.4z M2383.02,138.6
						c121.95,24.96,241.89,62.19,356.51,110.67c112.57,47.61,221.14,106.54,322.71,175.16c100.63,67.99,195.26,146.06,281.26,232.07
						c86.01,86,164.08,180.63,232.07,281.26c68.62,101.57,127.55,210.14,175.16,322.71c48.48,114.62,85.71,234.56,110.67,356.51
						c25.61,125.17,38.6,254.04,38.6,383.02s-12.99,257.85-38.6,383.02c-24.96,121.95-62.19,241.89-110.67,356.51
						c-47.61,112.57-106.54,221.14-175.16,322.71c-67.99,100.63-146.06,195.26-232.07,281.26c-86,86.01-180.63,164.08-281.26,232.07
						c-101.57,68.62-210.14,127.55-322.71,175.16c-114.62,48.48-234.56,85.71-356.51,110.67c-68.27,13.97-137.65,24.18-207.54,30.57
						v100.44C3197.87,3903.54,4000,3045.44,4000,2000S3197.87,96.46,2175.48,7.59v100.44
						C2245.37,114.42,2314.75,124.63,2383.02,138.6z"/>
					<g>
						<path class="st6" d="M1825.48,107.94v1085.53c-50.05,10.79-99.04,26.29-146.66,46.43
							c-98.26,41.56-186.47,101.03-262.18,176.74c-75.71,75.71-135.17,163.92-176.74,262.18c-43.06,101.82-64.9,209.88-64.9,321.18
							c0,59.6,6.26,118.27,18.69,175.55c10.78,49.69,26.21,98.33,46.21,145.63c41.57,98.26,101.03,186.47,176.74,262.18
							c75.71,75.71,163.92,135.17,262.18,176.74c47.62,20.14,96.61,35.64,146.66,46.43v1085.53
							c-70.22-6.38-139.91-16.63-208.5-30.66c-121.95-24.96-241.89-62.19-356.51-110.67c-112.57-47.61-221.14-106.54-322.71-175.16
							c-100.63-67.99-195.26-146.06-281.26-232.07c-86.01-86-164.08-180.63-232.07-281.26
							c-68.62-101.57-127.55-210.14-175.16-322.71c-48.48-114.62-85.71-234.56-110.67-356.51C112.99,2257.85,100,2128.98,100,2000
							c0-60.15,2.83-120.28,8.45-180.03c6.41-68.35,16.48-136.2,30.15-202.99c24.96-121.95,62.19-241.89,110.67-356.51
							c47.61-112.57,106.54-221.14,175.16-322.71C492.42,837.13,570.49,742.5,656.5,656.5c86-86.01,180.63-164.08,281.26-232.07
							c101.57-68.62,210.14-127.55,322.71-175.16c114.62-48.48,234.56-85.71,356.51-110.67
							C1685.57,124.57,1755.26,114.32,1825.48,107.94z"/>
					</g>
					<g>
						<path class="st6" d="M2175.48,108.03c69.89,6.39,139.27,16.6,207.54,30.57c121.95,24.96,241.89,62.19,356.51,110.67
							c112.57,47.61,221.14,106.54,322.71,175.16c100.63,67.99,195.26,146.06,281.26,232.07c86.01,86,164.08,180.63,232.07,281.26
							c68.62,101.57,127.55,210.14,175.16,322.71c48.48,114.62,85.71,234.56,110.67,356.51c25.61,125.17,38.6,254.04,38.6,383.02
							s-12.99,257.85-38.6,383.02c-24.96,121.95-62.19,241.89-110.67,356.51c-47.61,112.57-106.54,221.14-175.16,322.71
							c-67.99,100.63-146.06,195.26-232.07,281.26c-86,86.01-180.63,164.08-281.26,232.07
							c-101.57,68.62-210.14,127.55-322.71,175.16c-114.62,48.48-234.56,85.71-356.51,110.67
							c-68.27,13.97-137.65,24.18-207.54,30.57V2806.32c49.72-10.78,98.38-26.21,145.7-46.22
							c98.26-41.57,186.47-101.03,262.18-176.74s135.18-163.92,176.74-262.18c43.06-101.82,64.9-209.88,64.9-321.18
							c0-111.3-21.84-219.36-64.9-321.18c-41.56-98.26-101.03-186.47-176.74-262.18s-163.92-135.18-262.18-176.74
							c-47.32-20.01-95.98-35.44-145.7-46.22V108.03z"/>
					</g>
					<path class="st5" d="M1600,2000c0,220.91,179.09,400,400,400s400-179.09,400-400s-179.09-400-400-400S1600,1779.09,1600,2000z
						 M2214.37,1785.63c57.26,57.26,88.79,133.39,88.79,214.37c0,80.98-31.53,157.11-88.79,214.37s-133.39,88.79-214.37,88.79
						s-157.11-31.53-214.37-88.79s-88.79-133.39-88.79-214.37c0-80.98,31.53-157.11,88.79-214.37s133.39-88.79,214.37-88.79
						C2080.98,1696.84,2157.11,1728.37,2214.37,1785.63z"/>
					<g>
						<path class="st6" d="M1825.48,1558.21C1649.66,1627.9,1525,1799.67,1525,2000s124.66,372.1,300.48,441.79
							c54.05,21.43,112.93,33.21,174.52,33.21c61.95,0,121.17-11.92,175.48-33.6C2350.8,2371.47,2475,2199.97,2475,2000
							s-124.2-371.47-299.52-441.4c-54.31-21.68-113.53-33.6-175.48-33.6C1938.41,1525,1879.53,1536.78,1825.48,1558.21z M2400,2000
							c0,220.91-179.09,400-400,400s-400-179.09-400-400s179.09-400,400-400S2400,1779.09,2400,2000z"/>
					</g>
					<g>
						<path class="st6" d="M2000,1696.84c80.98,0,157.11,31.53,214.37,88.79s88.79,133.39,88.79,214.37
							c0,80.98-31.53,157.11-88.79,214.37s-133.39,88.79-214.37,88.79s-157.11-31.53-214.37-88.79s-88.79-133.39-88.79-214.37
							c0-80.98,31.53-157.11,88.79-214.37C1842.89,1728.37,1919.02,1696.84,2000,1696.84z"/>
					</g>
					<g>
						<path class="st7" d="M2800,2000c0,107.93-21.17,212.71-62.93,311.44c-40.29,95.27-97.96,180.81-171.39,254.24
							c-73.41,73.42-158.95,131.08-254.24,171.39c-45.68,19.32-93.21,34.39-141.25,44.81l-19.7,4.27v1183.2
							c-49.92,3.75-100.43,5.65-150.49,5.65c-49.76,0-99.95-1.87-149.52-5.58V2786.34l-19.73-4.25
							c-48.39-10.43-96.23-25.58-142.19-45.02c-95.29-40.31-180.83-97.98-254.24-171.39c-73.41-73.41-131.08-158.96-171.39-254.24
							c-19.31-45.67-34.39-93.18-44.8-141.19c-12.02-55.41-18.12-112.69-18.12-170.25c0-107.92,21.17-212.71,62.93-311.44
							c40.31-95.29,97.98-180.83,171.39-254.24c73.43-73.43,158.97-131.1,254.24-171.39c45.96-19.44,93.8-34.59,142.19-45.02
							l19.73-4.25V30.58c49.57-3.7,99.76-5.58,149.52-5.58c50.06,0,100.57,1.9,150.48,5.65v1183.19l19.7,4.27
							c48.05,10.42,95.57,25.5,141.26,44.82c95.27,40.29,180.81,97.96,254.24,171.39s131.1,158.97,171.39,254.24
							C2778.83,1787.29,2800,1892.07,2800,2000z M1500,2000c0,206.34,124.14,388.88,316.27,465.03
							c58.52,23.2,120.34,34.97,183.73,34.97c63.78,0,125.94-11.9,184.75-35.38C2376.25,2388.23,2500,2205.86,2500,2000
							s-123.75-388.23-315.26-464.62c-58.81-23.47-120.97-35.38-184.74-35.38c-63.39,0-125.21,11.77-183.73,34.97
							C1624.14,1611.12,1500,1793.66,1500,2000z"/>
						<path class="st5" d="M1225,2000c0-104.56,20.51-206.07,60.95-301.7c39.05-92.31,94.92-175.18,166.05-246.31
							c71.14-71.15,154.01-127.01,246.3-166.04c44.53-18.83,90.86-33.5,137.72-43.6l39.46-8.51v-40.37V53.92
							c41.39-2.6,83.11-3.92,124.52-3.92c41.72,0,83.75,1.33,125.48,3.98v1139.7V1234l39.41,8.54
							c46.53,10.09,92.57,24.69,136.82,43.41c92.29,39.04,175.16,94.9,246.3,166.05c71.15,71.14,127.01,154.01,166.04,246.3
							c40.44,95.64,60.95,197.14,60.95,301.71c0,104.56-20.51,206.07-60.95,301.7c-39.04,92.29-94.9,175.16-166.05,246.3
							c-71.13,71.13-154,126.99-246.3,166.04c-44.26,18.71-90.29,33.32-136.82,43.41l-39.41,8.54v40.32v1139.7
							c-41.72,2.65-83.75,3.98-125.47,3.98c-41.41,0-83.13-1.31-124.52-3.92V2806.53v-40.37l-39.46-8.51
							c-46.86-10.1-93.2-24.77-137.72-43.6c-92.31-39.05-175.18-94.92-246.31-166.05c-71.13-71.13-126.99-154-166.04-246.3
							c-18.71-44.25-33.31-90.26-43.4-136.76C1230.91,2111.27,1225,2055.78,1225,2000 M2525,2000
							c0-216.15-129.92-407.64-330.98-487.84C2132.25,1487.5,2066.97,1475,2000,1475c-66.56,0-131.48,12.36-192.94,36.73
							C1605.34,1591.68,1475,1783.34,1475,2000s130.34,408.32,332.05,488.27c61.47,24.37,126.39,36.73,192.95,36.73
							c66.97,0,132.24-12.5,194-37.16C2395.08,2407.64,2525,2216.15,2525,2000 M1175,2000c0,59.6,6.26,118.27,18.69,175.55
							c10.78,49.69,26.21,98.33,46.21,145.63c41.57,98.26,101.03,186.47,176.74,262.18c75.71,75.71,163.92,135.17,262.18,176.74
							c47.62,20.14,96.61,35.64,146.66,46.43v1185.96c57.51,4.97,115.72,7.51,174.52,7.51c59.13,0,117.66-2.57,175.48-7.59V2806.32
							c49.72-10.78,98.38-26.21,145.7-46.22c98.26-41.57,186.47-101.03,262.18-176.74s135.18-163.92,176.74-262.18
							c43.06-101.82,64.9-209.88,64.9-321.18c0-111.3-21.84-219.36-64.9-321.18c-41.56-98.26-101.03-186.47-176.74-262.18
							s-163.92-135.18-262.18-176.74c-47.32-20.01-95.98-35.44-145.7-46.22V7.59C2117.66,2.57,2059.13,0,2000,0
							c-58.8,0-117.01,2.54-174.52,7.51v1185.96c-50.05,10.79-99.04,26.29-146.66,46.43c-98.26,41.56-186.47,101.03-262.18,176.74
							c-75.71,75.71-135.17,163.92-176.74,262.18C1196.84,1780.64,1175,1888.7,1175,2000L1175,2000z M2475,2000
							c0,199.97-124.2,371.47-299.52,441.4c-54.31,21.68-113.53,33.6-175.48,33.6c-61.59,0-120.47-11.78-174.52-33.21
							C1649.66,2372.1,1525,2200.33,1525,2000s124.66-372.1,300.48-441.79c54.05-21.43,112.93-33.21,174.52-33.21
							c61.95,0,121.17,11.92,175.48,33.6C2350.8,1628.53,2475,1800.03,2475,2000L2475,2000z"/>
					</g>
					<line class="st8" x1="108.45" y1="1819.97" x2="108.44" y2="1819.97"/>
				</g>
			</g>
		</g>
	</g>
	<g id="defisMoyen_00000053506415604232497080000000489934037299319741_" class="st0">
		<g id="RDM_00000175303255004930868110000005194786009088973474_" class="st1">
			<g id="Difficile_00000163787644515171818210000011256619887121423236_" class="st0">
				<path class="st2" d="M1400,1650.4v699.2c0,138.29,112.11,250.4,250.4,250.4h699.2c138.29,0,250.4-112.11,250.4-250.4v-699.2
					c0-138.29-112.11-250.4-250.4-250.4h-699.2C1512.11,1400,1400,1512.11,1400,1650.4z"/>
				<path class="st2" d="M100,1650.4v699.2c0,138.29,112.11,250.4,250.4,250.4h699.2c138.29,0,250.4-112.11,250.4-250.4v-699.2
					c0-138.29-112.11-250.4-250.4-250.4H350.4C212.11,1400,100,1512.11,100,1650.4z"/>
				<path class="st2" d="M2700,1650.4v699.2c0,138.29,112.11,250.4,250.4,250.4h699.2c138.29,0,250.4-112.11,250.4-250.4v-699.2
					c0-138.29-112.11-250.4-250.4-250.4h-699.2C2812.11,1400,2700,1512.11,2700,1650.4z"/>
			</g>
			<g id="Moyen_00000063623201426267626080000010600756114866870916_">
				<path class="st9" d="M750,1650.4v699.2c0,138.29,112.11,250.4,250.4,250.4h699.2c138.29,0,250.4-112.11,250.4-250.4v-699.2
					c0-138.29-112.11-250.4-250.4-250.4h-699.2C862.11,1400,750,1512.11,750,1650.4z"/>
				<path class="st9" d="M2050,1650.4v699.2c0,138.29,112.11,250.4,250.4,250.4h699.2c138.29,0,250.4-112.11,250.4-250.4v-699.2
					c0-138.29-112.11-250.4-250.4-250.4h-699.2C2162.11,1400,2050,1512.11,2050,1650.4z"/>
			</g>
			<g id="Facile_00000166636463300311530200000017321173863272917152_" class="st0">
				<path class="st10" d="M1400,1650.4v699.2c0,138.29,112.11,250.4,250.4,250.4h699.2c138.29,0,250.4-112.11,250.4-250.4v-699.2
					c0-138.29-112.11-250.4-250.4-250.4h-699.2C1512.11,1400,1400,1512.11,1400,1650.4z"/>
			</g>
			<g id="BM_00000098923883978602439030000001097933301138966694_" class="st0">
				<g class="st1">
					<path class="st5" d="M1616.98,3861.4c-121.95-24.96-241.89-62.19-356.51-110.67c-112.57-47.61-221.14-106.54-322.71-175.16
						c-100.63-67.99-195.26-146.06-281.26-232.07c-86.01-86-164.08-180.63-232.07-281.26c-68.62-101.57-127.55-210.14-175.16-322.71
						c-48.48-114.62-85.71-234.56-110.67-356.51C112.99,2257.85,100,2128.98,100,2000c0-60.15,2.83-120.28,8.45-180.03
						c6.41-68.35,16.48-136.2,30.15-202.99c24.96-121.95,62.19-241.89,110.67-356.51c47.61-112.57,106.54-221.14,175.16-322.71
						C492.42,837.13,570.49,742.5,656.5,656.5c86-86.01,180.63-164.08,281.26-232.07c101.57-68.62,210.14-127.55,322.71-175.16
						c114.62-48.48,234.56-85.71,356.51-110.67c68.59-14.03,138.28-24.28,208.5-30.66V7.51C802.63,95.93,0,954.23,0,2000
						s802.63,1904.07,1825.48,1992.49v-100.43C1755.26,3885.68,1685.57,3875.43,1616.98,3861.4z M2383.02,138.6
						c121.95,24.96,241.89,62.19,356.51,110.67c112.57,47.61,221.14,106.54,322.71,175.16c100.63,67.99,195.26,146.06,281.26,232.07
						c86.01,86,164.08,180.63,232.07,281.26c68.62,101.57,127.55,210.14,175.16,322.71c48.48,114.62,85.71,234.56,110.67,356.51
						c25.61,125.17,38.6,254.04,38.6,383.02s-12.99,257.85-38.6,383.02c-24.96,121.95-62.19,241.89-110.67,356.51
						c-47.61,112.57-106.54,221.14-175.16,322.71c-67.99,100.63-146.06,195.26-232.07,281.26c-86,86.01-180.63,164.08-281.26,232.07
						c-101.57,68.62-210.14,127.55-322.71,175.16c-114.62,48.48-234.56,85.71-356.51,110.67c-68.27,13.97-137.65,24.18-207.54,30.57
						v100.44C3197.87,3903.54,4000,3045.44,4000,2000S3197.87,96.46,2175.48,7.59v100.44
						C2245.37,114.42,2314.75,124.63,2383.02,138.6z"/>
					<g>
						<path class="st6" d="M1825.48,107.94v1085.53c-50.05,10.79-99.04,26.29-146.66,46.43
							c-98.26,41.56-186.47,101.03-262.18,176.74c-75.71,75.71-135.17,163.92-176.74,262.18c-43.06,101.82-64.9,209.88-64.9,321.18
							c0,59.6,6.26,118.27,18.69,175.55c10.78,49.69,26.21,98.33,46.21,145.63c41.57,98.26,101.03,186.47,176.74,262.18
							c75.71,75.71,163.92,135.17,262.18,176.74c47.62,20.14,96.61,35.64,146.66,46.43v1085.53
							c-70.22-6.38-139.91-16.63-208.5-30.66c-121.95-24.96-241.89-62.19-356.51-110.67c-112.57-47.61-221.14-106.54-322.71-175.16
							c-100.63-67.99-195.26-146.06-281.26-232.07c-86.01-86-164.08-180.63-232.07-281.26
							c-68.62-101.57-127.55-210.14-175.16-322.71c-48.48-114.62-85.71-234.56-110.67-356.51C112.99,2257.85,100,2128.98,100,2000
							c0-60.15,2.83-120.28,8.45-180.03c6.41-68.35,16.48-136.2,30.15-202.99c24.96-121.95,62.19-241.89,110.67-356.51
							c47.61-112.57,106.54-221.14,175.16-322.71C492.42,837.13,570.49,742.5,656.5,656.5c86-86.01,180.63-164.08,281.26-232.07
							c101.57-68.62,210.14-127.55,322.71-175.16c114.62-48.48,234.56-85.71,356.51-110.67
							C1685.57,124.57,1755.26,114.32,1825.48,107.94z"/>
					</g>
					<g>
						<path class="st6" d="M2175.48,108.03c69.89,6.39,139.27,16.6,207.54,30.57c121.95,24.96,241.89,62.19,356.51,110.67
							c112.57,47.61,221.14,106.54,322.71,175.16c100.63,67.99,195.26,146.06,281.26,232.07c86.01,86,164.08,180.63,232.07,281.26
							c68.62,101.57,127.55,210.14,175.16,322.71c48.48,114.62,85.71,234.56,110.67,356.51c25.61,125.17,38.6,254.04,38.6,383.02
							s-12.99,257.85-38.6,383.02c-24.96,121.95-62.19,241.89-110.67,356.51c-47.61,112.57-106.54,221.14-175.16,322.71
							c-67.99,100.63-146.06,195.26-232.07,281.26c-86,86.01-180.63,164.08-281.26,232.07
							c-101.57,68.62-210.14,127.55-322.71,175.16c-114.62,48.48-234.56,85.71-356.51,110.67
							c-68.27,13.97-137.65,24.18-207.54,30.57V2806.32c49.72-10.78,98.38-26.21,145.7-46.22
							c98.26-41.57,186.47-101.03,262.18-176.74s135.18-163.92,176.74-262.18c43.06-101.82,64.9-209.88,64.9-321.18
							c0-111.3-21.84-219.36-64.9-321.18c-41.56-98.26-101.03-186.47-176.74-262.18s-163.92-135.18-262.18-176.74
							c-47.32-20.01-95.98-35.44-145.7-46.22V108.03z"/>
					</g>
					<path class="st5" d="M1600,2000c0,220.91,179.09,400,400,400s400-179.09,400-400s-179.09-400-400-400S1600,1779.09,1600,2000z
						 M2214.37,1785.63c57.26,57.26,88.79,133.39,88.79,214.37c0,80.98-31.53,157.11-88.79,214.37s-133.39,88.79-214.37,88.79
						s-157.11-31.53-214.37-88.79s-88.79-133.39-88.79-214.37c0-80.98,31.53-157.11,88.79-214.37s133.39-88.79,214.37-88.79
						C2080.98,1696.84,2157.11,1728.37,2214.37,1785.63z"/>
					<g>
						<path class="st6" d="M1825.48,1558.21C1649.66,1627.9,1525,1799.67,1525,2000s124.66,372.1,300.48,441.79
							c54.05,21.43,112.93,33.21,174.52,33.21c61.95,0,121.17-11.92,175.48-33.6C2350.8,2371.47,2475,2199.97,2475,2000
							s-124.2-371.47-299.52-441.4c-54.31-21.68-113.53-33.6-175.48-33.6C1938.41,1525,1879.53,1536.78,1825.48,1558.21z M2400,2000
							c0,220.91-179.09,400-400,400s-400-179.09-400-400s179.09-400,400-400S2400,1779.09,2400,2000z"/>
					</g>
					<g>
						<path class="st6" d="M2000,1696.84c80.98,0,157.11,31.53,214.37,88.79s88.79,133.39,88.79,214.37
							c0,80.98-31.53,157.11-88.79,214.37s-133.39,88.79-214.37,88.79s-157.11-31.53-214.37-88.79s-88.79-133.39-88.79-214.37
							c0-80.98,31.53-157.11,88.79-214.37C1842.89,1728.37,1919.02,1696.84,2000,1696.84z"/>
					</g>
					<g>
						<path class="st7" d="M2800,2000c0,107.93-21.17,212.71-62.93,311.44c-40.29,95.27-97.96,180.81-171.39,254.24
							c-73.41,73.42-158.95,131.08-254.24,171.39c-45.68,19.32-93.21,34.39-141.25,44.81l-19.7,4.27v1183.2
							c-49.92,3.75-100.43,5.65-150.49,5.65c-49.76,0-99.95-1.87-149.52-5.58V2786.34l-19.73-4.25
							c-48.39-10.43-96.23-25.58-142.19-45.02c-95.29-40.31-180.83-97.98-254.24-171.39c-73.41-73.41-131.08-158.96-171.39-254.24
							c-19.31-45.67-34.39-93.18-44.8-141.19c-12.02-55.41-18.12-112.69-18.12-170.25c0-107.92,21.17-212.71,62.93-311.44
							c40.31-95.29,97.98-180.83,171.39-254.24c73.43-73.43,158.97-131.1,254.24-171.39c45.96-19.44,93.8-34.59,142.19-45.02
							l19.73-4.25V30.58c49.57-3.7,99.76-5.58,149.52-5.58c50.06,0,100.57,1.9,150.48,5.65v1183.19l19.7,4.27
							c48.05,10.42,95.57,25.5,141.26,44.82c95.27,40.29,180.81,97.96,254.24,171.39s131.1,158.97,171.39,254.24
							C2778.83,1787.29,2800,1892.07,2800,2000z M1500,2000c0,206.34,124.14,388.88,316.27,465.03
							c58.52,23.2,120.34,34.97,183.73,34.97c63.78,0,125.94-11.9,184.75-35.38C2376.25,2388.23,2500,2205.86,2500,2000
							s-123.75-388.23-315.26-464.62c-58.81-23.47-120.97-35.38-184.74-35.38c-63.39,0-125.21,11.77-183.73,34.97
							C1624.14,1611.12,1500,1793.66,1500,2000z"/>
						<path class="st5" d="M1225,2000c0-104.56,20.51-206.07,60.95-301.7c39.05-92.31,94.92-175.18,166.05-246.31
							c71.14-71.15,154.01-127.01,246.3-166.04c44.53-18.83,90.86-33.5,137.72-43.6l39.46-8.51v-40.37V53.92
							c41.39-2.6,83.11-3.92,124.52-3.92c41.72,0,83.75,1.33,125.48,3.98v1139.7V1234l39.41,8.54
							c46.53,10.09,92.57,24.69,136.82,43.41c92.29,39.04,175.16,94.9,246.3,166.05c71.15,71.14,127.01,154.01,166.04,246.3
							c40.44,95.64,60.95,197.14,60.95,301.71c0,104.56-20.51,206.07-60.95,301.7c-39.04,92.29-94.9,175.16-166.05,246.3
							c-71.13,71.13-154,126.99-246.3,166.04c-44.26,18.71-90.29,33.32-136.82,43.41l-39.41,8.54v40.32v1139.7
							c-41.72,2.65-83.75,3.98-125.47,3.98c-41.41,0-83.13-1.31-124.52-3.92V2806.53v-40.37l-39.46-8.51
							c-46.86-10.1-93.2-24.77-137.72-43.6c-92.31-39.05-175.18-94.92-246.31-166.05c-71.13-71.13-126.99-154-166.04-246.3
							c-18.71-44.25-33.31-90.26-43.4-136.76C1230.91,2111.27,1225,2055.78,1225,2000 M2525,2000
							c0-216.15-129.92-407.64-330.98-487.84C2132.25,1487.5,2066.97,1475,2000,1475c-66.56,0-131.48,12.36-192.94,36.73
							C1605.34,1591.68,1475,1783.34,1475,2000s130.34,408.32,332.05,488.27c61.47,24.37,126.39,36.73,192.95,36.73
							c66.97,0,132.24-12.5,194-37.16C2395.08,2407.64,2525,2216.15,2525,2000 M1175,2000c0,59.6,6.26,118.27,18.69,175.55
							c10.78,49.69,26.21,98.33,46.21,145.63c41.57,98.26,101.03,186.47,176.74,262.18c75.71,75.71,163.92,135.17,262.18,176.74
							c47.62,20.14,96.61,35.64,146.66,46.43v1185.96c57.51,4.97,115.72,7.51,174.52,7.51c59.13,0,117.66-2.57,175.48-7.59V2806.32
							c49.72-10.78,98.38-26.21,145.7-46.22c98.26-41.57,186.47-101.03,262.18-176.74s135.18-163.92,176.74-262.18
							c43.06-101.82,64.9-209.88,64.9-321.18c0-111.3-21.84-219.36-64.9-321.18c-41.56-98.26-101.03-186.47-176.74-262.18
							s-163.92-135.18-262.18-176.74c-47.32-20.01-95.98-35.44-145.7-46.22V7.59C2117.66,2.57,2059.13,0,2000,0
							c-58.8,0-117.01,2.54-174.52,7.51v1185.96c-50.05,10.79-99.04,26.29-146.66,46.43c-98.26,41.56-186.47,101.03-262.18,176.74
							c-75.71,75.71-135.17,163.92-176.74,262.18C1196.84,1780.64,1175,1888.7,1175,2000L1175,2000z M2475,2000
							c0,199.97-124.2,371.47-299.52,441.4c-54.31,21.68-113.53,33.6-175.48,33.6c-61.59,0-120.47-11.78-174.52-33.21
							C1649.66,2372.1,1525,2200.33,1525,2000s124.66-372.1,300.48-441.79c54.05-21.43,112.93-33.21,174.52-33.21
							c61.95,0,121.17,11.92,175.48,33.6C2350.8,1628.53,2475,1800.03,2475,2000L2475,2000z"/>
					</g>
					<line class="st8" x1="108.45" y1="1819.97" x2="108.44" y2="1819.97"/>
				</g>
			</g>
		</g>
	</g>
	<g id="defisFacile_00000141439705581278855160000001121101279164460181_" class="st0">
		<g id="RDM_00000018956572654269418340000015075898515741537215_" class="st1">
			<g id="Difficile_00000010271676018724339070000016787589428599678894_" class="st0">
				<path class="st2" d="M1400,1650.4v699.2c0,138.29,112.11,250.4,250.4,250.4h699.2c138.29,0,250.4-112.11,250.4-250.4v-699.2
					c0-138.29-112.11-250.4-250.4-250.4h-699.2C1512.11,1400,1400,1512.11,1400,1650.4z"/>
				<path class="st2" d="M100,1650.4v699.2c0,138.29,112.11,250.4,250.4,250.4h699.2c138.29,0,250.4-112.11,250.4-250.4v-699.2
					c0-138.29-112.11-250.4-250.4-250.4H350.4C212.11,1400,100,1512.11,100,1650.4z"/>
				<path class="st2" d="M2700,1650.4v699.2c0,138.29,112.11,250.4,250.4,250.4h699.2c138.29,0,250.4-112.11,250.4-250.4v-699.2
					c0-138.29-112.11-250.4-250.4-250.4h-699.2C2812.11,1400,2700,1512.11,2700,1650.4z"/>
			</g>
			<g id="Moyen_00000031181536307566774030000003085813101578975919_" class="st0">
				<path class="st3" d="M750,1650.4v699.2c0,138.29,112.11,250.4,250.4,250.4h699.2c138.29,0,250.4-112.11,250.4-250.4v-699.2
					c0-138.29-112.11-250.4-250.4-250.4h-699.2C862.11,1400,750,1512.11,750,1650.4z"/>
				<path class="st3" d="M2050,1650.4v699.2c0,138.29,112.11,250.4,250.4,250.4h699.2c138.29,0,250.4-112.11,250.4-250.4v-699.2
					c0-138.29-112.11-250.4-250.4-250.4h-699.2C2162.11,1400,2050,1512.11,2050,1650.4z"/>
			</g>
			<g id="Facile_00000135665750070853099800000015594031734583908534_">
				<path class="st9" d="M1400,1650.4v699.2c0,138.29,112.11,250.4,250.4,250.4h699.2c138.29,0,250.4-112.11,250.4-250.4v-699.2
					c0-138.29-112.11-250.4-250.4-250.4h-699.2C1512.11,1400,1400,1512.11,1400,1650.4z"/>
			</g>
			<g id="BM_00000020396222715892720410000005869562552397939884_" class="st0">
				<g class="st1">
					<path class="st5" d="M1616.98,3861.4c-121.95-24.96-241.89-62.19-356.51-110.67c-112.57-47.61-221.14-106.54-322.71-175.16
						c-100.63-67.99-195.26-146.06-281.26-232.07c-86.01-86-164.08-180.63-232.07-281.26c-68.62-101.57-127.55-210.14-175.16-322.71
						c-48.48-114.62-85.71-234.56-110.67-356.51C112.99,2257.85,100,2128.98,100,2000c0-60.15,2.83-120.28,8.45-180.03
						c6.41-68.35,16.48-136.2,30.15-202.99c24.96-121.95,62.19-241.89,110.67-356.51c47.61-112.57,106.54-221.14,175.16-322.71
						C492.42,837.13,570.49,742.5,656.5,656.5c86-86.01,180.63-164.08,281.26-232.07c101.57-68.62,210.14-127.55,322.71-175.16
						c114.62-48.48,234.56-85.71,356.51-110.67c68.59-14.03,138.28-24.28,208.5-30.66V7.51C802.63,95.93,0,954.23,0,2000
						s802.63,1904.07,1825.48,1992.49v-100.43C1755.26,3885.68,1685.57,3875.43,1616.98,3861.4z M2383.02,138.6
						c121.95,24.96,241.89,62.19,356.51,110.67c112.57,47.61,221.14,106.54,322.71,175.16c100.63,67.99,195.26,146.06,281.26,232.07
						c86.01,86,164.08,180.63,232.07,281.26c68.62,101.57,127.55,210.14,175.16,322.71c48.48,114.62,85.71,234.56,110.67,356.51
						c25.61,125.17,38.6,254.04,38.6,383.02s-12.99,257.85-38.6,383.02c-24.96,121.95-62.19,241.89-110.67,356.51
						c-47.61,112.57-106.54,221.14-175.16,322.71c-67.99,100.63-146.06,195.26-232.07,281.26c-86,86.01-180.63,164.08-281.26,232.07
						c-101.57,68.62-210.14,127.55-322.71,175.16c-114.62,48.48-234.56,85.71-356.51,110.67c-68.27,13.97-137.65,24.18-207.54,30.57
						v100.44C3197.87,3903.54,4000,3045.44,4000,2000S3197.87,96.46,2175.48,7.59v100.44
						C2245.37,114.42,2314.75,124.63,2383.02,138.6z"/>
					<g>
						<path class="st6" d="M1825.48,107.94v1085.53c-50.05,10.79-99.04,26.29-146.66,46.43
							c-98.26,41.56-186.47,101.03-262.18,176.74c-75.71,75.71-135.17,163.92-176.74,262.18c-43.06,101.82-64.9,209.88-64.9,321.18
							c0,59.6,6.26,118.27,18.69,175.55c10.78,49.69,26.21,98.33,46.21,145.63c41.57,98.26,101.03,186.47,176.74,262.18
							c75.71,75.71,163.92,135.17,262.18,176.74c47.62,20.14,96.61,35.64,146.66,46.43v1085.53
							c-70.22-6.38-139.91-16.63-208.5-30.66c-121.95-24.96-241.89-62.19-356.51-110.67c-112.57-47.61-221.14-106.54-322.71-175.16
							c-100.63-67.99-195.26-146.06-281.26-232.07c-86.01-86-164.08-180.63-232.07-281.26
							c-68.62-101.57-127.55-210.14-175.16-322.71c-48.48-114.62-85.71-234.56-110.67-356.51C112.99,2257.85,100,2128.98,100,2000
							c0-60.15,2.83-120.28,8.45-180.03c6.41-68.35,16.48-136.2,30.15-202.99c24.96-121.95,62.19-241.89,110.67-356.51
							c47.61-112.57,106.54-221.14,175.16-322.71C492.42,837.13,570.49,742.5,656.5,656.5c86-86.01,180.63-164.08,281.26-232.07
							c101.57-68.62,210.14-127.55,322.71-175.16c114.62-48.48,234.56-85.71,356.51-110.67
							C1685.57,124.57,1755.26,114.32,1825.48,107.94z"/>
					</g>
					<g>
						<path class="st6" d="M2175.48,108.03c69.89,6.39,139.27,16.6,207.54,30.57c121.95,24.96,241.89,62.19,356.51,110.67
							c112.57,47.61,221.14,106.54,322.71,175.16c100.63,67.99,195.26,146.06,281.26,232.07c86.01,86,164.08,180.63,232.07,281.26
							c68.62,101.57,127.55,210.14,175.16,322.71c48.48,114.62,85.71,234.56,110.67,356.51c25.61,125.17,38.6,254.04,38.6,383.02
							s-12.99,257.85-38.6,383.02c-24.96,121.95-62.19,241.89-110.67,356.51c-47.61,112.57-106.54,221.14-175.16,322.71
							c-67.99,100.63-146.06,195.26-232.07,281.26c-86,86.01-180.63,164.08-281.26,232.07
							c-101.57,68.62-210.14,127.55-322.71,175.16c-114.62,48.48-234.56,85.71-356.51,110.67
							c-68.27,13.97-137.65,24.18-207.54,30.57V2806.32c49.72-10.78,98.38-26.21,145.7-46.22
							c98.26-41.57,186.47-101.03,262.18-176.74s135.18-163.92,176.74-262.18c43.06-101.82,64.9-209.88,64.9-321.18
							c0-111.3-21.84-219.36-64.9-321.18c-41.56-98.26-101.03-186.47-176.74-262.18s-163.92-135.18-262.18-176.74
							c-47.32-20.01-95.98-35.44-145.7-46.22V108.03z"/>
					</g>
					<path class="st5" d="M1600,2000c0,220.91,179.09,400,400,400s400-179.09,400-400s-179.09-400-400-400S1600,1779.09,1600,2000z
						 M2214.37,1785.63c57.26,57.26,88.79,133.39,88.79,214.37c0,80.98-31.53,157.11-88.79,214.37s-133.39,88.79-214.37,88.79
						s-157.11-31.53-214.37-88.79s-88.79-133.39-88.79-214.37c0-80.98,31.53-157.11,88.79-214.37s133.39-88.79,214.37-88.79
						C2080.98,1696.84,2157.11,1728.37,2214.37,1785.63z"/>
					<g>
						<path class="st6" d="M1825.48,1558.21C1649.66,1627.9,1525,1799.67,1525,2000s124.66,372.1,300.48,441.79
							c54.05,21.43,112.93,33.21,174.52,33.21c61.95,0,121.17-11.92,175.48-33.6C2350.8,2371.47,2475,2199.97,2475,2000
							s-124.2-371.47-299.52-441.4c-54.31-21.68-113.53-33.6-175.48-33.6C1938.41,1525,1879.53,1536.78,1825.48,1558.21z M2400,2000
							c0,220.91-179.09,400-400,400s-400-179.09-400-400s179.09-400,400-400S2400,1779.09,2400,2000z"/>
					</g>
					<g>
						<path class="st6" d="M2000,1696.84c80.98,0,157.11,31.53,214.37,88.79s88.79,133.39,88.79,214.37
							c0,80.98-31.53,157.11-88.79,214.37s-133.39,88.79-214.37,88.79s-157.11-31.53-214.37-88.79s-88.79-133.39-88.79-214.37
							c0-80.98,31.53-157.11,88.79-214.37C1842.89,1728.37,1919.02,1696.84,2000,1696.84z"/>
					</g>
					<g>
						<path class="st7" d="M2800,2000c0,107.93-21.17,212.71-62.93,311.44c-40.29,95.27-97.96,180.81-171.39,254.24
							c-73.41,73.42-158.95,131.08-254.24,171.39c-45.68,19.32-93.21,34.39-141.25,44.81l-19.7,4.27v1183.2
							c-49.92,3.75-100.43,5.65-150.49,5.65c-49.76,0-99.95-1.87-149.52-5.58V2786.34l-19.73-4.25
							c-48.39-10.43-96.23-25.58-142.19-45.02c-95.29-40.31-180.83-97.98-254.24-171.39c-73.41-73.41-131.08-158.96-171.39-254.24
							c-19.31-45.67-34.39-93.18-44.8-141.19c-12.02-55.41-18.12-112.69-18.12-170.25c0-107.92,21.17-212.71,62.93-311.44
							c40.31-95.29,97.98-180.83,171.39-254.24c73.43-73.43,158.97-131.1,254.24-171.39c45.96-19.44,93.8-34.59,142.19-45.02
							l19.73-4.25V30.58c49.57-3.7,99.76-5.58,149.52-5.58c50.06,0,100.57,1.9,150.48,5.65v1183.19l19.7,4.27
							c48.05,10.42,95.57,25.5,141.26,44.82c95.27,40.29,180.81,97.96,254.24,171.39s131.1,158.97,171.39,254.24
							C2778.83,1787.29,2800,1892.07,2800,2000z M1500,2000c0,206.34,124.14,388.88,316.27,465.03
							c58.52,23.2,120.34,34.97,183.73,34.97c63.78,0,125.94-11.9,184.75-35.38C2376.25,2388.23,2500,2205.86,2500,2000
							s-123.75-388.23-315.26-464.62c-58.81-23.47-120.97-35.38-184.74-35.38c-63.39,0-125.21,11.77-183.73,34.97
							C1624.14,1611.12,1500,1793.66,1500,2000z"/>
						<path class="st5" d="M1225,2000c0-104.56,20.51-206.07,60.95-301.7c39.05-92.31,94.92-175.18,166.05-246.31
							c71.14-71.15,154.01-127.01,246.3-166.04c44.53-18.83,90.86-33.5,137.72-43.6l39.46-8.51v-40.37V53.92
							c41.39-2.6,83.11-3.92,124.52-3.92c41.72,0,83.75,1.33,125.48,3.98v1139.7V1234l39.41,8.54
							c46.53,10.09,92.57,24.69,136.82,43.41c92.29,39.04,175.16,94.9,246.3,166.05c71.15,71.14,127.01,154.01,166.04,246.3
							c40.44,95.64,60.95,197.14,60.95,301.71c0,104.56-20.51,206.07-60.95,301.7c-39.04,92.29-94.9,175.16-166.05,246.3
							c-71.13,71.13-154,126.99-246.3,166.04c-44.26,18.71-90.29,33.32-136.82,43.41l-39.41,8.54v40.32v1139.7
							c-41.72,2.65-83.75,3.98-125.47,3.98c-41.41,0-83.13-1.31-124.52-3.92V2806.53v-40.37l-39.46-8.51
							c-46.86-10.1-93.2-24.77-137.72-43.6c-92.31-39.05-175.18-94.92-246.31-166.05c-71.13-71.13-126.99-154-166.04-246.3
							c-18.71-44.25-33.31-90.26-43.4-136.76C1230.91,2111.27,1225,2055.78,1225,2000 M2525,2000
							c0-216.15-129.92-407.64-330.98-487.84C2132.25,1487.5,2066.97,1475,2000,1475c-66.56,0-131.48,12.36-192.94,36.73
							C1605.34,1591.68,1475,1783.34,1475,2000s130.34,408.32,332.05,488.27c61.47,24.37,126.39,36.73,192.95,36.73
							c66.97,0,132.24-12.5,194-37.16C2395.08,2407.64,2525,2216.15,2525,2000 M1175,2000c0,59.6,6.26,118.27,18.69,175.55
							c10.78,49.69,26.21,98.33,46.21,145.63c41.57,98.26,101.03,186.47,176.74,262.18c75.71,75.71,163.92,135.17,262.18,176.74
							c47.62,20.14,96.61,35.64,146.66,46.43v1185.96c57.51,4.97,115.72,7.51,174.52,7.51c59.13,0,117.66-2.57,175.48-7.59V2806.32
							c49.72-10.78,98.38-26.21,145.7-46.22c98.26-41.57,186.47-101.03,262.18-176.74s135.18-163.92,176.74-262.18
							c43.06-101.82,64.9-209.88,64.9-321.18c0-111.3-21.84-219.36-64.9-321.18c-41.56-98.26-101.03-186.47-176.74-262.18
							s-163.92-135.18-262.18-176.74c-47.32-20.01-95.98-35.44-145.7-46.22V7.59C2117.66,2.57,2059.13,0,2000,0
							c-58.8,0-117.01,2.54-174.52,7.51v1185.96c-50.05,10.79-99.04,26.29-146.66,46.43c-98.26,41.56-186.47,101.03-262.18,176.74
							c-75.71,75.71-135.17,163.92-176.74,262.18C1196.84,1780.64,1175,1888.7,1175,2000L1175,2000z M2475,2000
							c0,199.97-124.2,371.47-299.52,441.4c-54.31,21.68-113.53,33.6-175.48,33.6c-61.59,0-120.47-11.78-174.52-33.21
							C1649.66,2372.1,1525,2200.33,1525,2000s124.66-372.1,300.48-441.79c54.05-21.43,112.93-33.21,174.52-33.21
							c61.95,0,121.17,11.92,175.48,33.6C2350.8,1628.53,2475,1800.03,2475,2000L2475,2000z"/>
					</g>
					<line class="st8" x1="108.45" y1="1819.97" x2="108.44" y2="1819.97"/>
				</g>
			</g>
		</g>
	</g>
	<g id="flecheDroite_00000039118711772541021070000013396549442709512862_" class="st0">
		<g class="st1">
			<g>
				<path class="st9" d="M1870.16,82.86L155.91,3797.05c-26.86,59.14-10.86,129.71,40,170.85c50.86,41.43,123.14,42.86,175.42,3.43
					l1628.53-1221.4l1628.54,1221.4c52.28,39.43,124.85,38,175.42-3.14c34.57-27.71,53.14-69.14,53.14-111.14
					c0-20.29-4.29-40.57-13.14-59.71L2129.58,83.14C2106.15,32.28,2055.58,0,1999.87,0C1944.16,0,1893.59,32.28,1870.16,82.86z"/>
			</g>
		</g>
	</g>
	<g id="flecheGauche_00000161619226261066351740000004816582527717118595_" class="st0">
		<g class="st1">
			<g>
				<path class="st9" d="M2129.84,3917.14l1714.24-3714.2c26.86-59.14,10.86-129.71-40-170.85
					c-50.86-41.43-123.14-42.86-175.42-3.43l-1628.53,1221.4L371.6,28.67c-52.28-39.43-124.85-38-175.42,3.14
					c-34.57,27.71-53.14,69.14-53.14,111.14c0,20.29,4.29,40.57,13.14,59.71l1714.24,3714.2c23.43,50.86,74,83.14,129.71,83.14
					C2055.84,4000,2106.41,3967.72,2129.84,3917.14z"/>
			</g>
		</g>
	</g>
	<g id="flecheBottom_00000029047029857584408190000009373824922276730813_" class="st0">
		<g class="st1">
			<g>
				<path class="st9" d="M3917.14,1870.16L202.94,155.92c-59.14-26.86-129.71-10.86-170.85,40
					c-41.43,50.86-42.86,123.14-3.43,175.42l1221.4,1628.53L28.67,3628.4c-39.43,52.28-38,124.85,3.14,175.42
					c27.71,34.57,69.14,53.14,111.14,53.14c20.29,0,40.57-4.29,59.71-13.14l3714.2-1714.24c50.86-23.43,83.14-74,83.14-129.71
					C4000,1944.16,3967.71,1893.59,3917.14,1870.16z"/>
			</g>
		</g>
	</g>
	<g id="flecheTop_00000089571156518958498480000015326257346211416226_">
		<g>
			<g>
				<path class="st9" d="M82.85,2129.84l3714.2,1714.25c59.14,26.86,129.71,10.86,170.85-40c41.43-50.86,42.86-123.14,3.43-175.42
					l-1221.4-1628.53l1221.4-1628.53c39.43-52.28,38-124.85-3.14-175.42c-27.71-34.57-69.14-53.14-111.14-53.14
					c-20.29,0-40.57,4.29-59.71,13.14L83.14,1870.42C32.28,1893.85,0,1944.42,0,2000.13C0,2055.84,32.28,2106.42,82.85,2129.84z"/>
			</g>
		</g>
	</g>
</g>
</svg>
