<?xml version="1.0" encoding="utf-8"?>
<!-- Generator: Adobe Illustrator 26.0.1, SVG Export Plug-In . SVG Version: 6.00 Build 0)  -->
<svg version="1.1" id="Calque_1" xmlns="http://www.w3.org/2000/svg" xmlns:xlink="http://www.w3.org/1999/xlink" x="0px" y="0px"
	 viewBox="0 0 4000 4000" style="enable-background:new 0 0 4000 4000;" xml:space="preserve">
<style type="text/css">
	.st0{display:none;}
	.st1{display:inline;}
	.st2{display:inline;fill:#AE252A;}
	.st3{display:inline;fill:#E7582E;}
	.st4{display:inline;fill:#63E136;}
	.st5{fill:#191919;}
	.st6{fill:#EDEDED;}
	.st7{fill:#BE1622;}
	.st8{fill:none;stroke:#191919;stroke-miterlimit:10;}
	.st9{fill:#1D1D1B;}
	.st10{display:inline;fill:#1D1D1B;}
</style>
<g id="ui_00000016065285449466594420000008692094061301031607_">
	<g id="BM_00000091703960848764136570000002387225860222170025_" class="st0">
		<g id="RDM_00000093143836727348746590000017638773347124601519_" class="st1">
			<g id="Difficile_00000159443024543908159410000016697112216605766583_" class="st0">
				<path class="st2" d="M1650.4,2600h699.2c138.29,0,250.4-112.11,250.4-250.4v-699.2c0-138.29-112.11-250.4-250.4-250.4h-699.2
					c-138.29,0-250.4,112.11-250.4,250.4v699.2C1400,2487.89,1512.11,2600,1650.4,2600z"/>
				<path class="st2" d="M1650.4,3900h699.2c138.29,0,250.4-112.11,250.4-250.4v-699.2c0-138.29-112.11-250.4-250.4-250.4h-699.2
					c-138.29,0-250.4,112.11-250.4,250.4v699.2C1400,3787.89,1512.11,3900,1650.4,3900z"/>
				<path class="st2" d="M1650.4,1300h699.2c138.29,0,250.4-112.11,250.4-250.4V350.4c0-138.29-112.11-250.4-250.4-250.4h-699.2
					c-138.29,0-250.4,112.11-250.4,250.4v699.2C1400,1187.89,1512.11,1300,1650.4,1300z"/>
			</g>
			<g id="Moyen_00000025410817992602495850000009804168492979719347_" class="st0">
				<path class="st3" d="M1650.4,3250h699.2c138.29,0,250.4-112.11,250.4-250.4v-699.2c0-138.29-112.11-250.4-250.4-250.4h-699.2
					c-138.29,0-250.4,112.11-250.4,250.4v699.2C1400,3137.89,1512.11,3250,1650.4,3250z"/>
				<path class="st3" d="M1650.4,1950h699.2c138.29,0,250.4-112.11,250.4-250.4v-699.2c0-138.29-112.11-250.4-250.4-250.4h-699.2
					c-138.29,0-250.4,112.11-250.4,250.4v699.2C1400,1837.89,1512.11,1950,1650.4,1950z"/>
			</g>
			<g id="Facile_00000013874590291824684900000010382790657893067952_" class="st0">
				<path class="st4" d="M1650.4,2600h699.2c138.29,0,250.4-112.11,250.4-250.4v-699.2c0-138.29-112.11-250.4-250.4-250.4h-699.2
					c-138.29,0-250.4,112.11-250.4,250.4v699.2C1400,2487.89,1512.11,2600,1650.4,2600z"/>
			</g>
			<g id="BM_00000054250173364064239560000008911398488636416647_">
				<g>
					<path class="st5" d="M3861.4,2383.02c-24.96,121.95-62.19,241.89-110.67,356.51c-47.61,112.57-106.54,221.14-175.16,322.71
						c-67.99,100.63-146.06,195.26-232.07,281.26c-86,86.01-180.63,164.08-281.26,232.07c-101.57,68.62-210.14,127.55-322.71,175.16
						c-114.62,48.48-234.56,85.71-356.51,110.67c-125.17,25.61-254.04,38.6-383.02,38.6c-60.15,0-120.28-2.83-180.03-8.45
						c-68.35-6.41-136.2-16.48-202.99-30.15c-121.95-24.96-241.89-62.19-356.51-110.67c-112.57-47.61-221.14-106.54-322.71-175.16
						c-100.63-67.99-195.26-146.06-281.26-232.07c-86.01-86-164.08-180.63-232.07-281.26c-68.62-101.57-127.55-210.14-175.16-322.71
						c-48.48-114.62-85.71-234.56-110.67-356.51c-14.03-68.59-24.28-138.28-30.66-208.5H7.51C95.93,3197.37,954.23,4000,2000,4000
						s1904.07-802.63,1992.49-1825.48h-100.43C3885.68,2244.74,3875.43,2314.43,3861.4,2383.02z M138.6,1616.98
						c24.96-121.95,62.19-241.89,110.67-356.51c47.61-112.57,106.54-221.14,175.16-322.71C492.42,837.13,570.49,742.5,656.5,656.5
						c86-86.01,180.63-164.08,281.26-232.07c101.57-68.62,210.14-127.55,322.71-175.16c114.62-48.48,234.56-85.71,356.51-110.67
						C1742.15,112.99,1871.02,100,2000,100s257.85,12.99,383.02,38.6c121.95,24.96,241.89,62.19,356.51,110.67
						c112.57,47.61,221.14,106.54,322.71,175.16c100.63,67.99,195.26,146.06,281.26,232.07c86.01,86,164.08,180.63,232.07,281.26
						c68.62,101.57,127.55,210.14,175.16,322.71c48.48,114.62,85.71,234.56,110.67,356.51c13.97,68.27,24.18,137.65,30.57,207.54
						h100.44C3903.54,802.13,3045.44,0,2000,0S96.46,802.13,7.59,1824.52h100.44C114.42,1754.63,124.63,1685.25,138.6,1616.98z"/>
					<g>
						<path class="st6" d="M107.94,2174.52h1085.53c10.79,50.05,26.29,99.04,46.43,146.66c41.56,98.26,101.03,186.47,176.74,262.18
							c75.71,75.71,163.92,135.17,262.18,176.74c101.82,43.06,209.88,64.9,321.18,64.9c59.6,0,118.27-6.26,175.55-18.69
							c49.69-10.78,98.33-26.21,145.63-46.21c98.26-41.57,186.47-101.03,262.18-176.74c75.71-75.71,135.17-163.92,176.74-262.18
							c20.14-47.62,35.64-96.61,46.43-146.66h1085.53c-6.38,70.22-16.63,139.91-30.66,208.5
							c-24.96,121.95-62.19,241.89-110.67,356.51c-47.61,112.57-106.54,221.14-175.16,322.71
							c-67.99,100.63-146.06,195.26-232.07,281.26c-86,86.01-180.63,164.08-281.26,232.07
							c-101.57,68.62-210.14,127.55-322.71,175.16c-114.62,48.48-234.56,85.71-356.51,110.67c-125.17,25.61-254.04,38.6-383.02,38.6
							c-60.15,0-120.28-2.83-180.03-8.45c-68.35-6.41-136.2-16.48-202.99-30.15c-121.95-24.96-241.89-62.19-356.51-110.67
							c-112.57-47.61-221.14-106.54-322.71-175.16c-100.63-67.99-195.26-146.06-281.26-232.07
							c-86.01-86-164.08-180.63-232.07-281.26c-68.62-101.57-127.55-210.14-175.16-322.71c-48.48-114.62-85.71-234.56-110.67-356.51
							C124.57,2314.43,114.32,2244.74,107.94,2174.52z"/>
					</g>
					<g>
						<path class="st6" d="M108.03,1824.52c6.39-69.89,16.6-139.27,30.57-207.54c24.96-121.95,62.19-241.89,110.67-356.51
							c47.61-112.57,106.54-221.14,175.16-322.71C492.42,837.13,570.49,742.5,656.5,656.5c86-86.01,180.63-164.08,281.26-232.07
							c101.57-68.62,210.14-127.55,322.71-175.16c114.62-48.48,234.56-85.71,356.51-110.67C1742.15,112.99,1871.02,100,2000,100
							s257.85,12.99,383.02,38.6c121.95,24.96,241.89,62.19,356.51,110.67c112.57,47.61,221.14,106.54,322.71,175.16
							c100.63,67.99,195.26,146.06,281.26,232.07c86.01,86,164.08,180.63,232.07,281.26c68.62,101.57,127.55,210.14,175.16,322.71
							c48.48,114.62,85.71,234.56,110.67,356.51c13.97,68.27,24.18,137.65,30.57,207.54H2806.32
							c-10.78-49.72-26.21-98.38-46.22-145.7c-41.57-98.26-101.03-186.47-176.74-262.18s-163.92-135.18-262.18-176.74
							c-101.82-43.06-209.88-64.9-321.18-64.9c-111.3,0-219.36,21.84-321.18,64.9c-98.26,41.56-186.47,101.03-262.18,176.74
							s-135.18,163.92-176.74,262.18c-20.01,47.32-35.44,95.98-46.22,145.7H108.03z"/>
					</g>
					<path class="st5" d="M2000,2400c220.91,0,400-179.09,400-400c0-220.91-179.09-400-400-400s-400,179.09-400,400
						S1779.09,2400,2000,2400z M1785.63,1785.63c57.26-57.26,133.39-88.79,214.37-88.79c80.98,0,157.11,31.53,214.37,88.79
						s88.79,133.39,88.79,214.37s-31.53,157.11-88.79,214.37s-133.39,88.79-214.37,88.79c-80.98,0-157.11-31.53-214.37-88.79
						s-88.79-133.39-88.79-214.37C1696.84,1919.02,1728.37,1842.89,1785.63,1785.63z"/>
					<g>
						<path class="st6" d="M1558.21,2174.52C1627.9,2350.34,1799.67,2475,2000,2475s372.1-124.66,441.79-300.48
							c21.43-54.05,33.21-112.93,33.21-174.52c0-61.95-11.92-121.17-33.6-175.48C2371.47,1649.2,2199.97,1525,2000,1525
							s-371.47,124.2-441.4,299.52c-21.68,54.31-33.6,113.53-33.6,175.48C1525,2061.59,1536.78,2120.47,1558.21,2174.52z M2000,1600
							c220.91,0,400,179.09,400,400s-179.09,400-400,400s-400-179.09-400-400C1600,1779.09,1779.09,1600,2000,1600z"/>
					</g>
					<g>
						<path class="st6" d="M1696.84,2000c0-80.98,31.53-157.11,88.79-214.37s133.39-88.79,214.37-88.79
							c80.98,0,157.11,31.53,214.37,88.79s88.79,133.39,88.79,214.37s-31.53,157.11-88.79,214.37s-133.39,88.79-214.37,88.79
							c-80.98,0-157.11-31.53-214.37-88.79S1696.84,2080.98,1696.84,2000z"/>
					</g>
					<g>
						<path class="st7" d="M2000,1200c107.93,0,212.71,21.17,311.44,62.93c95.27,40.29,180.81,97.96,254.24,171.39
							c73.42,73.41,131.08,158.95,171.39,254.24c19.32,45.68,34.39,93.21,44.81,141.25l4.27,19.7h1183.2
							c3.75,49.92,5.65,100.43,5.65,150.49c0,49.76-1.87,99.95-5.58,149.52H2786.34l-4.25,19.73
							c-10.43,48.39-25.58,96.23-45.02,142.19c-40.31,95.29-97.98,180.83-171.39,254.24c-73.41,73.41-158.96,131.08-254.24,171.39
							c-45.67,19.31-93.18,34.39-141.19,44.8c-55.41,12.02-112.69,18.12-170.25,18.12c-107.92,0-212.71-21.17-311.44-62.93
							c-95.29-40.31-180.83-97.98-254.24-171.39c-73.43-73.43-131.1-158.97-171.39-254.24c-19.44-45.96-34.59-93.8-45.02-142.19
							l-4.25-19.73H30.58c-3.7-49.57-5.58-99.76-5.58-149.52c0-50.06,1.9-100.57,5.65-150.48h1183.19l4.27-19.7
							c10.42-48.05,25.5-95.57,44.82-141.26c40.29-95.27,97.96-180.81,171.39-254.24s158.97-131.1,254.24-171.39
							C1787.29,1221.17,1892.07,1200,2000,1200z M2000,2500c206.34,0,388.88-124.14,465.03-316.27
							c23.2-58.52,34.97-120.34,34.97-183.73c0-63.78-11.9-125.94-35.38-184.75C2388.23,1623.75,2205.86,1500,2000,1500
							s-388.23,123.75-464.62,315.26c-23.47,58.81-35.38,120.97-35.38,184.74c0,63.39,11.77,125.21,34.97,183.73
							C1611.12,2375.86,1793.66,2500,2000,2500z"/>
						<path class="st5" d="M2000,2775c-104.56,0-206.07-20.51-301.7-60.95c-92.31-39.05-175.18-94.92-246.31-166.05
							c-71.15-71.14-127.01-154.01-166.04-246.3c-18.83-44.53-33.5-90.86-43.6-137.72l-8.51-39.46h-40.37H53.92
							C51.32,2083.13,50,2041.41,50,2000c0-41.72,1.33-83.75,3.98-125.48h1139.7H1234l8.54-39.41
							c10.09-46.53,24.69-92.57,43.41-136.82c39.04-92.29,94.9-175.16,166.05-246.3c71.14-71.15,154.01-127.01,246.3-166.04
							c95.64-40.44,197.14-60.95,301.71-60.95c104.56,0,206.07,20.51,301.7,60.95c92.29,39.04,175.16,94.9,246.3,166.05
							c71.13,71.13,126.99,154,166.04,246.3c18.71,44.26,33.32,90.29,43.41,136.82l8.54,39.41h40.32h1139.7
							c2.65,41.72,3.98,83.75,3.98,125.47c0,41.41-1.31,83.13-3.92,124.52H2806.53h-40.37l-8.51,39.46
							c-10.1,46.86-24.77,93.2-43.6,137.72c-39.05,92.31-94.92,175.18-166.05,246.31c-71.13,71.13-154,126.99-246.3,166.04
							c-44.25,18.71-90.26,33.31-136.76,43.4C2111.27,2769.09,2055.78,2775,2000,2775 M2000,1475
							c-216.15,0-407.64,129.92-487.84,330.98C1487.5,1867.75,1475,1933.03,1475,2000c0,66.56,12.36,131.48,36.73,192.94
							C1591.68,2394.66,1783.34,2525,2000,2525s408.32-130.34,488.27-332.05c24.37-61.47,36.73-126.39,36.73-192.95
							c0-66.97-12.5-132.24-37.16-194C2407.64,1604.92,2216.15,1475,2000,1475 M2000,2825c59.6,0,118.27-6.26,175.55-18.69
							c49.69-10.78,98.33-26.21,145.63-46.21c98.26-41.57,186.47-101.03,262.18-176.74c75.71-75.71,135.17-163.92,176.74-262.18
							c20.14-47.62,35.64-96.61,46.43-146.66h1185.96c4.97-57.51,7.51-115.72,7.51-174.52c0-59.13-2.57-117.66-7.59-175.48H2806.32
							c-10.78-49.72-26.21-98.38-46.22-145.7c-41.57-98.26-101.03-186.47-176.74-262.18s-163.92-135.18-262.18-176.74
							c-101.82-43.06-209.88-64.9-321.18-64.9c-111.3,0-219.36,21.84-321.18,64.9c-98.26,41.56-186.47,101.03-262.18,176.74
							s-135.18,163.92-176.74,262.18c-20.01,47.32-35.44,95.98-46.22,145.7H7.59C2.57,1882.34,0,1940.87,0,2000
							c0,58.8,2.54,117.01,7.51,174.52h1185.96c10.79,50.05,26.29,99.04,46.43,146.66c41.56,98.26,101.03,186.47,176.74,262.18
							c75.71,75.71,163.92,135.17,262.18,176.74C1780.64,2803.16,1888.7,2825,2000,2825L2000,2825z M2000,1525
							c199.97,0,371.47,124.2,441.4,299.52c21.68,54.31,33.6,113.53,33.6,175.48c0,61.59-11.78,120.47-33.21,174.52
							C2372.1,2350.34,2200.33,2475,2000,2475s-372.1-124.66-441.79-300.48c-21.43-54.05-33.21-112.93-33.21-174.52
							c0-61.95,11.92-121.17,33.6-175.48C1628.53,1649.2,1800.03,1525,2000,1525L2000,1525z"/>
					</g>
					<line class="st8" x1="1819.97" y1="3891.55" x2="1819.97" y2="3891.56"/>
				</g>
			</g>
		</g>
	</g>
	<g id="defisDifficile_00000117663077487832633300000010209868728698042018_" class="st0">
		<g id="RDM_00000086659103988358274790000000316392325340564398_" class="st1">
			<g id="Difficile_00000098914223352289467160000006249247825938798744_">
				<path class="st9" d="M1650.4,2600h699.2c138.29,0,250.4-112.11,250.4-250.4v-699.2c0-138.29-112.11-250.4-250.4-250.4h-699.2
					c-138.29,0-250.4,112.11-250.4,250.4v699.2C1400,2487.89,1512.11,2600,1650.4,2600z"/>
				<path class="st9" d="M1650.4,3900h699.2c138.29,0,250.4-112.11,250.4-250.4v-699.2c0-138.29-112.11-250.4-250.4-250.4h-699.2
					c-138.29,0-250.4,112.11-250.4,250.4v699.2C1400,3787.89,1512.11,3900,1650.4,3900z"/>
				<path class="st9" d="M1650.4,1300h699.2c138.29,0,250.4-112.11,250.4-250.4V350.4c0-138.29-112.11-250.4-250.4-250.4h-699.2
					c-138.29,0-250.4,112.11-250.4,250.4v699.2C1400,1187.89,1512.11,1300,1650.4,1300z"/>
			</g>
			<g id="Moyen_00000026160242264335892390000006464805269439517619_" class="st0">
				<path class="st10" d="M1650.4,3250h699.2c138.29,0,250.4-112.11,250.4-250.4v-699.2c0-138.29-112.11-250.4-250.4-250.4h-699.2
					c-138.29,0-250.4,112.11-250.4,250.4v699.2C1400,3137.89,1512.11,3250,1650.4,3250z"/>
				<path class="st10" d="M1650.4,1950h699.2c138.29,0,250.4-112.11,250.4-250.4v-699.2c0-138.29-112.11-250.4-250.4-250.4h-699.2
					c-138.29,0-250.4,112.11-250.4,250.4v699.2C1400,1837.89,1512.11,1950,1650.4,1950z"/>
			</g>
			<g id="Facile_00000152969655772666551200000017053548459806624404_" class="st0">
				<path class="st10" d="M1650.4,2600h699.2c138.29,0,250.4-112.11,250.4-250.4v-699.2c0-138.29-112.11-250.4-250.4-250.4h-699.2
					c-138.29,0-250.4,112.11-250.4,250.4v699.2C1400,2487.89,1512.11,2600,1650.4,2600z"/>
			</g>
			<g id="BM_00000021108998123524564720000004931582894918856334_" class="st0">
				<g class="st1">
					<path class="st5" d="M3861.4,2383.02c-24.96,121.95-62.19,241.89-110.67,356.51c-47.61,112.57-106.54,221.14-175.16,322.71
						c-67.99,100.63-146.06,195.26-232.07,281.26c-86,86.01-180.63,164.08-281.26,232.07c-101.57,68.62-210.14,127.55-322.71,175.16
						c-114.62,48.48-234.56,85.71-356.51,110.67c-125.17,25.61-254.04,38.6-383.02,38.6c-60.15,0-120.28-2.83-180.03-8.45
						c-68.35-6.41-136.2-16.48-202.99-30.15c-121.95-24.96-241.89-62.19-356.51-110.67c-112.57-47.61-221.14-106.54-322.71-175.16
						c-100.63-67.99-195.26-146.06-281.26-232.07c-86.01-86-164.08-180.63-232.07-281.26c-68.62-101.57-127.55-210.14-175.16-322.71
						c-48.48-114.62-85.71-234.56-110.67-356.51c-14.03-68.59-24.28-138.28-30.66-208.5H7.51C95.93,3197.37,954.23,4000,2000,4000
						s1904.07-802.63,1992.49-1825.48h-100.43C3885.68,2244.74,3875.43,2314.43,3861.4,2383.02z M138.6,1616.98
						c24.96-121.95,62.19-241.89,110.67-356.51c47.61-112.57,106.54-221.14,175.16-322.71C492.42,837.13,570.49,742.5,656.5,656.5
						c86-86.01,180.63-164.08,281.26-232.07c101.57-68.62,210.14-127.55,322.71-175.16c114.62-48.48,234.56-85.71,356.51-110.67
						C1742.15,112.99,1871.02,100,2000,100s257.85,12.99,383.02,38.6c121.95,24.96,241.89,62.19,356.51,110.67
						c112.57,47.61,221.14,106.54,322.71,175.16c100.63,67.99,195.26,146.06,281.26,232.07c86.01,86,164.08,180.63,232.07,281.26
						c68.62,101.57,127.55,210.14,175.16,322.71c48.48,114.62,85.71,234.56,110.67,356.51c13.97,68.27,24.18,137.65,30.57,207.54
						h100.44C3903.54,802.13,3045.44,0,2000,0S96.46,802.13,7.59,1824.52h100.44C114.42,1754.63,124.63,1685.25,138.6,1616.98z"/>
					<g>
						<path class="st6" d="M107.94,2174.52h1085.53c10.79,50.05,26.29,99.04,46.43,146.66c41.56,98.26,101.03,186.47,176.74,262.18
							c75.71,75.71,163.92,135.17,262.18,176.74c101.82,43.06,209.88,64.9,321.18,64.9c59.6,0,118.27-6.26,175.55-18.69
							c49.69-10.78,98.33-26.21,145.63-46.21c98.26-41.57,186.47-101.03,262.18-176.74c75.71-75.71,135.17-163.92,176.74-262.18
							c20.14-47.62,35.64-96.61,46.43-146.66h1085.53c-6.38,70.22-16.63,139.91-30.66,208.5
							c-24.96,121.95-62.19,241.89-110.67,356.51c-47.61,112.57-106.54,221.14-175.16,322.71
							c-67.99,100.63-146.06,195.26-232.07,281.26c-86,86.01-180.63,164.08-281.26,232.07
							c-101.57,68.62-210.14,127.55-322.71,175.16c-114.62,48.48-234.56,85.71-356.51,110.67c-125.17,25.61-254.04,38.6-383.02,38.6
							c-60.15,0-120.28-2.83-180.03-8.45c-68.35-6.41-136.2-16.48-202.99-30.15c-121.95-24.96-241.89-62.19-356.51-110.67
							c-112.57-47.61-221.14-106.54-322.71-175.16c-100.63-67.99-195.26-146.06-281.26-232.07
							c-86.01-86-164.08-180.63-232.07-281.26c-68.62-101.57-127.55-210.14-175.16-322.71c-48.48-114.62-85.71-234.56-110.67-356.51
							C124.57,2314.43,114.32,2244.74,107.94,2174.52z"/>
					</g>
					<g>
						<path class="st6" d="M108.03,1824.52c6.39-69.89,16.6-139.27,30.57-207.54c24.96-121.95,62.19-241.89,110.67-356.51
							c47.61-112.57,106.54-221.14,175.16-322.71C492.42,837.13,570.49,742.5,656.5,656.5c86-86.01,180.63-164.08,281.26-232.07
							c101.57-68.62,210.14-127.55,322.71-175.16c114.62-48.48,234.56-85.71,356.51-110.67C1742.15,112.99,1871.02,100,2000,100
							s257.85,12.99,383.02,38.6c121.95,24.96,241.89,62.19,356.51,110.67c112.57,47.61,221.14,106.54,322.71,175.16
							c100.63,67.99,195.26,146.06,281.26,232.07c86.01,86,164.08,180.63,232.07,281.26c68.62,101.57,127.55,210.14,175.16,322.71
							c48.48,114.62,85.71,234.56,110.67,356.51c13.97,68.27,24.18,137.65,30.57,207.54H2806.32
							c-10.78-49.72-26.21-98.38-46.22-145.7c-41.57-98.26-101.03-186.47-176.74-262.18s-163.92-135.18-262.18-176.74
							c-101.82-43.06-209.88-64.9-321.18-64.9c-111.3,0-219.36,21.84-321.18,64.9c-98.26,41.56-186.47,101.03-262.18,176.74
							s-135.18,163.92-176.74,262.18c-20.01,47.32-35.44,95.98-46.22,145.7H108.03z"/>
					</g>
					<path class="st5" d="M2000,2400c220.91,0,400-179.09,400-400c0-220.91-179.09-400-400-400s-400,179.09-400,400
						S1779.09,2400,2000,2400z M1785.63,1785.63c57.26-57.26,133.39-88.79,214.37-88.79c80.98,0,157.11,31.53,214.37,88.79
						s88.79,133.39,88.79,214.37s-31.53,157.11-88.79,214.37s-133.39,88.79-214.37,88.79c-80.98,0-157.11-31.53-214.37-88.79
						s-88.79-133.39-88.79-214.37C1696.84,1919.02,1728.37,1842.89,1785.63,1785.63z"/>
					<g>
						<path class="st6" d="M1558.21,2174.52C1627.9,2350.34,1799.67,2475,2000,2475s372.1-124.66,441.79-300.48
							c21.43-54.05,33.21-112.93,33.21-174.52c0-61.95-11.92-121.17-33.6-175.48C2371.47,1649.2,2199.97,1525,2000,1525
							s-371.47,124.2-441.4,299.52c-21.68,54.31-33.6,113.53-33.6,175.48C1525,2061.59,1536.78,2120.47,1558.21,2174.52z M2000,1600
							c220.91,0,400,179.09,400,400s-179.09,400-400,400s-400-179.09-400-400C1600,1779.09,1779.09,1600,2000,1600z"/>
					</g>
					<g>
						<path class="st6" d="M1696.84,2000c0-80.98,31.53-157.11,88.79-214.37s133.39-88.79,214.37-88.79
							c80.98,0,157.11,31.53,214.37,88.79s88.79,133.39,88.79,214.37s-31.53,157.11-88.79,214.37s-133.39,88.79-214.37,88.79
							c-80.98,0-157.11-31.53-214.37-88.79S1696.84,2080.98,1696.84,2000z"/>
					</g>
					<g>
						<path class="st7" d="M2000,1200c107.93,0,212.71,21.17,311.44,62.93c95.27,40.29,180.81,97.96,254.24,171.39
							c73.42,73.41,131.08,158.95,171.39,254.24c19.32,45.68,34.39,93.21,44.81,141.25l4.27,19.7h1183.2
							c3.75,49.92,5.65,100.43,5.65,150.49c0,49.76-1.87,99.95-5.58,149.52H2786.34l-4.25,19.73
							c-10.43,48.39-25.58,96.23-45.02,142.19c-40.31,95.29-97.98,180.83-171.39,254.24c-73.41,73.41-158.96,131.08-254.24,171.39
							c-45.67,19.31-93.18,34.39-141.19,44.8c-55.41,12.02-112.69,18.12-170.25,18.12c-107.92,0-212.71-21.17-311.44-62.93
							c-95.29-40.31-180.83-97.98-254.24-171.39c-73.43-73.43-131.1-158.97-171.39-254.24c-19.44-45.96-34.59-93.8-45.02-142.19
							l-4.25-19.73H30.58c-3.7-49.57-5.58-99.76-5.58-149.52c0-50.06,1.9-100.57,5.65-150.48h1183.19l4.27-19.7
							c10.42-48.05,25.5-95.57,44.82-141.26c40.29-95.27,97.96-180.81,171.39-254.24s158.97-131.1,254.24-171.39
							C1787.29,1221.17,1892.07,1200,2000,1200z M2000,2500c206.34,0,388.88-124.14,465.03-316.27
							c23.2-58.52,34.97-120.34,34.97-183.73c0-63.78-11.9-125.94-35.38-184.75C2388.23,1623.75,2205.86,1500,2000,1500
							s-388.23,123.75-464.62,315.26c-23.47,58.81-35.38,120.97-35.38,184.74c0,63.39,11.77,125.21,34.97,183.73
							C1611.12,2375.86,1793.66,2500,2000,2500z"/>
						<path class="st5" d="M2000,2775c-104.56,0-206.07-20.51-301.7-60.95c-92.31-39.05-175.18-94.92-246.31-166.05
							c-71.15-71.14-127.01-154.01-166.04-246.3c-18.83-44.53-33.5-90.86-43.6-137.72l-8.51-39.46h-40.37H53.92
							C51.32,2083.13,50,2041.41,50,2000c0-41.72,1.33-83.75,3.98-125.48h1139.7H1234l8.54-39.41
							c10.09-46.53,24.69-92.57,43.41-136.82c39.04-92.29,94.9-175.16,166.05-246.3c71.14-71.15,154.01-127.01,246.3-166.04
							c95.64-40.44,197.14-60.95,301.71-60.95c104.56,0,206.07,20.51,301.7,60.95c92.29,39.04,175.16,94.9,246.3,166.05
							c71.13,71.13,126.99,154,166.04,246.3c18.71,44.26,33.32,90.29,43.41,136.82l8.54,39.41h40.32h1139.7
							c2.65,41.72,3.98,83.75,3.98,125.47c0,41.41-1.31,83.13-3.92,124.52H2806.53h-40.37l-8.51,39.46
							c-10.1,46.86-24.77,93.2-43.6,137.72c-39.05,92.31-94.92,175.18-166.05,246.31c-71.13,71.13-154,126.99-246.3,166.04
							c-44.25,18.71-90.26,33.31-136.76,43.4C2111.27,2769.09,2055.78,2775,2000,2775 M2000,1475
							c-216.15,0-407.64,129.92-487.84,330.98C1487.5,1867.75,1475,1933.03,1475,2000c0,66.56,12.36,131.48,36.73,192.94
							C1591.68,2394.66,1783.34,2525,2000,2525s408.32-130.34,488.27-332.05c24.37-61.47,36.73-126.39,36.73-192.95
							c0-66.97-12.5-132.24-37.16-194C2407.64,1604.92,2216.15,1475,2000,1475 M2000,2825c59.6,0,118.27-6.26,175.55-18.69
							c49.69-10.78,98.33-26.21,145.63-46.21c98.26-41.57,186.47-101.03,262.18-176.74c75.71-75.71,135.17-163.92,176.74-262.18
							c20.14-47.62,35.64-96.61,46.43-146.66h1185.96c4.97-57.51,7.51-115.72,7.51-174.52c0-59.13-2.57-117.66-7.59-175.48H2806.32
							c-10.78-49.72-26.21-98.38-46.22-145.7c-41.57-98.26-101.03-186.47-176.74-262.18s-163.92-135.18-262.18-176.74
							c-101.82-43.06-209.88-64.9-321.18-64.9c-111.3,0-219.36,21.84-321.18,64.9c-98.26,41.56-186.47,101.03-262.18,176.74
							s-135.18,163.92-176.74,262.18c-20.01,47.32-35.44,95.98-46.22,145.7H7.59C2.57,1882.34,0,1940.87,0,2000
							c0,58.8,2.54,117.01,7.51,174.52h1185.96c10.79,50.05,26.29,99.04,46.43,146.66c41.56,98.26,101.03,186.47,176.74,262.18
							c75.71,75.71,163.92,135.17,262.18,176.74C1780.64,2803.16,1888.7,2825,2000,2825L2000,2825z M2000,1525
							c199.97,0,371.47,124.2,441.4,299.52c21.68,54.31,33.6,113.53,33.6,175.48c0,61.59-11.78,120.47-33.21,174.52
							C2372.1,2350.34,2200.33,2475,2000,2475s-372.1-124.66-441.79-300.48c-21.43-54.05-33.21-112.93-33.21-174.52
							c0-61.95,11.92-121.17,33.6-175.48C1628.53,1649.2,1800.03,1525,2000,1525L2000,1525z"/>
					</g>
					<line class="st8" x1="1819.97" y1="3891.55" x2="1819.97" y2="3891.56"/>
				</g>
			</g>
		</g>
	</g>
	<g id="defisMoyen_00000053506415604232497080000000489934037299319741_" class="st0">
		<g id="RDM_00000175303255004930868110000005194786009088973474_" class="st1">
			<g id="Difficile_00000163787644515171818210000011256619887121423236_" class="st0">
				<path class="st2" d="M1650.4,2600h699.2c138.29,0,250.4-112.11,250.4-250.4v-699.2c0-138.29-112.11-250.4-250.4-250.4h-699.2
					c-138.29,0-250.4,112.11-250.4,250.4v699.2C1400,2487.89,1512.11,2600,1650.4,2600z"/>
				<path class="st2" d="M1650.4,3900h699.2c138.29,0,250.4-112.11,250.4-250.4v-699.2c0-138.29-112.11-250.4-250.4-250.4h-699.2
					c-138.29,0-250.4,112.11-250.4,250.4v699.2C1400,3787.89,1512.11,3900,1650.4,3900z"/>
				<path class="st2" d="M1650.4,1300h699.2c138.29,0,250.4-112.11,250.4-250.4V350.4c0-138.29-112.11-250.4-250.4-250.4h-699.2
					c-138.29,0-250.4,112.11-250.4,250.4v699.2C1400,1187.89,1512.11,1300,1650.4,1300z"/>
			</g>
			<g id="Moyen_00000063623201426267626080000010600756114866870916_">
				<path class="st9" d="M1650.4,3250h699.2c138.29,0,250.4-112.11,250.4-250.4v-699.2c0-138.29-112.11-250.4-250.4-250.4h-699.2
					c-138.29,0-250.4,112.11-250.4,250.4v699.2C1400,3137.89,1512.11,3250,1650.4,3250z"/>
				<path class="st9" d="M1650.4,1950h699.2c138.29,0,250.4-112.11,250.4-250.4v-699.2c0-138.29-112.11-250.4-250.4-250.4h-699.2
					c-138.29,0-250.4,112.11-250.4,250.4v699.2C1400,1837.89,1512.11,1950,1650.4,1950z"/>
			</g>
			<g id="Facile_00000166636463300311530200000017321173863272917152_" class="st0">
				<path class="st10" d="M1650.4,2600h699.2c138.29,0,250.4-112.11,250.4-250.4v-699.2c0-138.29-112.11-250.4-250.4-250.4h-699.2
					c-138.29,0-250.4,112.11-250.4,250.4v699.2C1400,2487.89,1512.11,2600,1650.4,2600z"/>
			</g>
			<g id="BM_00000098923883978602439030000001097933301138966694_" class="st0">
				<g class="st1">
					<path class="st5" d="M3861.4,2383.02c-24.96,121.95-62.19,241.89-110.67,356.51c-47.61,112.57-106.54,221.14-175.16,322.71
						c-67.99,100.63-146.06,195.26-232.07,281.26c-86,86.01-180.63,164.08-281.26,232.07c-101.57,68.62-210.14,127.55-322.71,175.16
						c-114.62,48.48-234.56,85.71-356.51,110.67c-125.17,25.61-254.04,38.6-383.02,38.6c-60.15,0-120.28-2.83-180.03-8.45
						c-68.35-6.41-136.2-16.48-202.99-30.15c-121.95-24.96-241.89-62.19-356.51-110.67c-112.57-47.61-221.14-106.54-322.71-175.16
						c-100.63-67.99-195.26-146.06-281.26-232.07c-86.01-86-164.08-180.63-232.07-281.26c-68.62-101.57-127.55-210.14-175.16-322.71
						c-48.48-114.62-85.71-234.56-110.67-356.51c-14.03-68.59-24.28-138.28-30.66-208.5H7.51C95.93,3197.37,954.23,4000,2000,4000
						s1904.07-802.63,1992.49-1825.48h-100.43C3885.68,2244.74,3875.43,2314.43,3861.4,2383.02z M138.6,1616.98
						c24.96-121.95,62.19-241.89,110.67-356.51c47.61-112.57,106.54-221.14,175.16-322.71C492.42,837.13,570.49,742.5,656.5,656.5
						c86-86.01,180.63-164.08,281.26-232.07c101.57-68.62,210.14-127.55,322.71-175.16c114.62-48.48,234.56-85.71,356.51-110.67
						C1742.15,112.99,1871.02,100,2000,100s257.85,12.99,383.02,38.6c121.95,24.96,241.89,62.19,356.51,110.67
						c112.57,47.61,221.14,106.54,322.71,175.16c100.63,67.99,195.26,146.06,281.26,232.07c86.01,86,164.08,180.63,232.07,281.26
						c68.62,101.57,127.55,210.14,175.16,322.71c48.48,114.62,85.71,234.56,110.67,356.51c13.97,68.27,24.18,137.65,30.57,207.54
						h100.44C3903.54,802.13,3045.44,0,2000,0S96.46,802.13,7.59,1824.52h100.44C114.42,1754.63,124.63,1685.25,138.6,1616.98z"/>
					<g>
						<path class="st6" d="M107.94,2174.52h1085.53c10.79,50.05,26.29,99.04,46.43,146.66c41.56,98.26,101.03,186.47,176.74,262.18
							c75.71,75.71,163.92,135.17,262.18,176.74c101.82,43.06,209.88,64.9,321.18,64.9c59.6,0,118.27-6.26,175.55-18.69
							c49.69-10.78,98.33-26.21,145.63-46.21c98.26-41.57,186.47-101.03,262.18-176.74c75.71-75.71,135.17-163.92,176.74-262.18
							c20.14-47.62,35.64-96.61,46.43-146.66h1085.53c-6.38,70.22-16.63,139.91-30.66,208.5
							c-24.96,121.95-62.19,241.89-110.67,356.51c-47.61,112.57-106.54,221.14-175.16,322.71
							c-67.99,100.63-146.06,195.26-232.07,281.26c-86,86.01-180.63,164.08-281.26,232.07
							c-101.57,68.62-210.14,127.55-322.71,175.16c-114.62,48.48-234.56,85.71-356.51,110.67c-125.17,25.61-254.04,38.6-383.02,38.6
							c-60.15,0-120.28-2.83-180.03-8.45c-68.35-6.41-136.2-16.48-202.99-30.15c-121.95-24.96-241.89-62.19-356.51-110.67
							c-112.57-47.61-221.14-106.54-322.71-175.16c-100.63-67.99-195.26-146.06-281.26-232.07
							c-86.01-86-164.08-180.63-232.07-281.26c-68.62-101.57-127.55-210.14-175.16-322.71c-48.48-114.62-85.71-234.56-110.67-356.51
							C124.57,2314.43,114.32,2244.74,107.94,2174.52z"/>
					</g>
					<g>
						<path class="st6" d="M108.03,1824.52c6.39-69.89,16.6-139.27,30.57-207.54c24.96-121.95,62.19-241.89,110.67-356.51
							c47.61-112.57,106.54-221.14,175.16-322.71C492.42,837.13,570.49,742.5,656.5,656.5c86-86.01,180.63-164.08,281.26-232.07
							c101.57-68.62,210.14-127.55,322.71-175.16c114.62-48.48,234.56-85.71,356.51-110.67C1742.15,112.99,1871.02,100,2000,100
							s257.85,12.99,383.02,38.6c121.95,24.96,241.89,62.19,356.51,110.67c112.57,47.61,221.14,106.54,322.71,175.16
							c100.63,67.99,195.26,146.06,281.26,232.07c86.01,86,164.08,180.63,232.07,281.26c68.62,101.57,127.55,210.14,175.16,322.71
							c48.48,114.62,85.71,234.56,110.67,356.51c13.97,68.27,24.18,137.65,30.57,207.54H2806.32
							c-10.78-49.72-26.21-98.38-46.22-145.7c-41.57-98.26-101.03-186.47-176.74-262.18s-163.92-135.18-262.18-176.74
							c-101.82-43.06-209.88-64.9-321.18-64.9c-111.3,0-219.36,21.84-321.18,64.9c-98.26,41.56-186.47,101.03-262.18,176.74
							s-135.18,163.92-176.74,262.18c-20.01,47.32-35.44,95.98-46.22,145.7H108.03z"/>
					</g>
					<path class="st5" d="M2000,2400c220.91,0,400-179.09,400-400c0-220.91-179.09-400-400-400s-400,179.09-400,400
						S1779.09,2400,2000,2400z M1785.63,1785.63c57.26-57.26,133.39-88.79,214.37-88.79c80.98,0,157.11,31.53,214.37,88.79
						s88.79,133.39,88.79,214.37s-31.53,157.11-88.79,214.37s-133.39,88.79-214.37,88.79c-80.98,0-157.11-31.53-214.37-88.79
						s-88.79-133.39-88.79-214.37C1696.84,1919.02,1728.37,1842.89,1785.63,1785.63z"/>
					<g>
						<path class="st6" d="M1558.21,2174.52C1627.9,2350.34,1799.67,2475,2000,2475s372.1-124.66,441.79-300.48
							c21.43-54.05,33.21-112.93,33.21-174.52c0-61.95-11.92-121.17-33.6-175.48C2371.47,1649.2,2199.97,1525,2000,1525
							s-371.47,124.2-441.4,299.52c-21.68,54.31-33.6,113.53-33.6,175.48C1525,2061.59,1536.78,2120.47,1558.21,2174.52z M2000,1600
							c220.91,0,400,179.09,400,400s-179.09,400-400,400s-400-179.09-400-400C1600,1779.09,1779.09,1600,2000,1600z"/>
					</g>
					<g>
						<path class="st6" d="M1696.84,2000c0-80.98,31.53-157.11,88.79-214.37s133.39-88.79,214.37-88.79
							c80.98,0,157.11,31.53,214.37,88.79s88.79,133.39,88.79,214.37s-31.53,157.11-88.79,214.37s-133.39,88.79-214.37,88.79
							c-80.98,0-157.11-31.53-214.37-88.79S1696.84,2080.98,1696.84,2000z"/>
					</g>
					<g>
						<path class="st7" d="M2000,1200c107.93,0,212.71,21.17,311.44,62.93c95.27,40.29,180.81,97.96,254.24,171.39
							c73.42,73.41,131.08,158.95,171.39,254.24c19.32,45.68,34.39,93.21,44.81,141.25l4.27,19.7h1183.2
							c3.75,49.92,5.65,100.43,5.65,150.49c0,49.76-1.87,99.95-5.58,149.52H2786.34l-4.25,19.73
							c-10.43,48.39-25.58,96.23-45.02,142.19c-40.31,95.29-97.98,180.83-171.39,254.24c-73.41,73.41-158.96,131.08-254.24,171.39
							c-45.67,19.31-93.18,34.39-141.19,44.8c-55.41,12.02-112.69,18.12-170.25,18.12c-107.92,0-212.71-21.17-311.44-62.93
							c-95.29-40.31-180.83-97.98-254.24-171.39c-73.43-73.43-131.1-158.97-171.39-254.24c-19.44-45.96-34.59-93.8-45.02-142.19
							l-4.25-19.73H30.58c-3.7-49.57-5.58-99.76-5.58-149.52c0-50.06,1.9-100.57,5.65-150.48h1183.19l4.27-19.7
							c10.42-48.05,25.5-95.57,44.82-141.26c40.29-95.27,97.96-180.81,171.39-254.24s158.97-131.1,254.24-171.39
							C1787.29,1221.17,1892.07,1200,2000,1200z M2000,2500c206.34,0,388.88-124.14,465.03-316.27
							c23.2-58.52,34.97-120.34,34.97-183.73c0-63.78-11.9-125.94-35.38-184.75C2388.23,1623.75,2205.86,1500,2000,1500
							s-388.23,123.75-464.62,315.26c-23.47,58.81-35.38,120.97-35.38,184.74c0,63.39,11.77,125.21,34.97,183.73
							C1611.12,2375.86,1793.66,2500,2000,2500z"/>
						<path class="st5" d="M2000,2775c-104.56,0-206.07-20.51-301.7-60.95c-92.31-39.05-175.18-94.92-246.31-166.05
							c-71.15-71.14-127.01-154.01-166.04-246.3c-18.83-44.53-33.5-90.86-43.6-137.72l-8.51-39.46h-40.37H53.92
							C51.32,2083.13,50,2041.41,50,2000c0-41.72,1.33-83.75,3.98-125.48h1139.7H1234l8.54-39.41
							c10.09-46.53,24.69-92.57,43.41-136.82c39.04-92.29,94.9-175.16,166.05-246.3c71.14-71.15,154.01-127.01,246.3-166.04
							c95.64-40.44,197.14-60.95,301.71-60.95c104.56,0,206.07,20.51,301.7,60.95c92.29,39.04,175.16,94.9,246.3,166.05
							c71.13,71.13,126.99,154,166.04,246.3c18.71,44.26,33.32,90.29,43.41,136.82l8.54,39.41h40.32h1139.7
							c2.65,41.72,3.98,83.75,3.98,125.47c0,41.41-1.31,83.13-3.92,124.52H2806.53h-40.37l-8.51,39.46
							c-10.1,46.86-24.77,93.2-43.6,137.72c-39.05,92.31-94.92,175.18-166.05,246.31c-71.13,71.13-154,126.99-246.3,166.04
							c-44.25,18.71-90.26,33.31-136.76,43.4C2111.27,2769.09,2055.78,2775,2000,2775 M2000,1475
							c-216.15,0-407.64,129.92-487.84,330.98C1487.5,1867.75,1475,1933.03,1475,2000c0,66.56,12.36,131.48,36.73,192.94
							C1591.68,2394.66,1783.34,2525,2000,2525s408.32-130.34,488.27-332.05c24.37-61.47,36.73-126.39,36.73-192.95
							c0-66.97-12.5-132.24-37.16-194C2407.64,1604.92,2216.15,1475,2000,1475 M2000,2825c59.6,0,118.27-6.26,175.55-18.69
							c49.69-10.78,98.33-26.21,145.63-46.21c98.26-41.57,186.47-101.03,262.18-176.74c75.71-75.71,135.17-163.92,176.74-262.18
							c20.14-47.62,35.64-96.61,46.43-146.66h1185.96c4.97-57.51,7.51-115.72,7.51-174.52c0-59.13-2.57-117.66-7.59-175.48H2806.32
							c-10.78-49.72-26.21-98.38-46.22-145.7c-41.57-98.26-101.03-186.47-176.74-262.18s-163.92-135.18-262.18-176.74
							c-101.82-43.06-209.88-64.9-321.18-64.9c-111.3,0-219.36,21.84-321.18,64.9c-98.26,41.56-186.47,101.03-262.18,176.74
							s-135.18,163.92-176.74,262.18c-20.01,47.32-35.44,95.98-46.22,145.7H7.59C2.57,1882.34,0,1940.87,0,2000
							c0,58.8,2.54,117.01,7.51,174.52h1185.96c10.79,50.05,26.29,99.04,46.43,146.66c41.56,98.26,101.03,186.47,176.74,262.18
							c75.71,75.71,163.92,135.17,262.18,176.74C1780.64,2803.16,1888.7,2825,2000,2825L2000,2825z M2000,1525
							c199.97,0,371.47,124.2,441.4,299.52c21.68,54.31,33.6,113.53,33.6,175.48c0,61.59-11.78,120.47-33.21,174.52
							C2372.1,2350.34,2200.33,2475,2000,2475s-372.1-124.66-441.79-300.48c-21.43-54.05-33.21-112.93-33.21-174.52
							c0-61.95,11.92-121.17,33.6-175.48C1628.53,1649.2,1800.03,1525,2000,1525L2000,1525z"/>
					</g>
					<line class="st8" x1="1819.97" y1="3891.55" x2="1819.97" y2="3891.56"/>
				</g>
			</g>
		</g>
	</g>
	<g id="defisFacile_00000141439705581278855160000001121101279164460181_" class="st0">
		<g id="RDM_00000018956572654269418340000015075898515741537215_" class="st1">
			<g id="Difficile_00000010271676018724339070000016787589428599678894_" class="st0">
				<path class="st2" d="M1650.4,2600h699.2c138.29,0,250.4-112.11,250.4-250.4v-699.2c0-138.29-112.11-250.4-250.4-250.4h-699.2
					c-138.29,0-250.4,112.11-250.4,250.4v699.2C1400,2487.89,1512.11,2600,1650.4,2600z"/>
				<path class="st2" d="M1650.4,3900h699.2c138.29,0,250.4-112.11,250.4-250.4v-699.2c0-138.29-112.11-250.4-250.4-250.4h-699.2
					c-138.29,0-250.4,112.11-250.4,250.4v699.2C1400,3787.89,1512.11,3900,1650.4,3900z"/>
				<path class="st2" d="M1650.4,1300h699.2c138.29,0,250.4-112.11,250.4-250.4V350.4c0-138.29-112.11-250.4-250.4-250.4h-699.2
					c-138.29,0-250.4,112.11-250.4,250.4v699.2C1400,1187.89,1512.11,1300,1650.4,1300z"/>
			</g>
			<g id="Moyen_00000031181536307566774030000003085813101578975919_" class="st0">
				<path class="st3" d="M1650.4,3250h699.2c138.29,0,250.4-112.11,250.4-250.4v-699.2c0-138.29-112.11-250.4-250.4-250.4h-699.2
					c-138.29,0-250.4,112.11-250.4,250.4v699.2C1400,3137.89,1512.11,3250,1650.4,3250z"/>
				<path class="st3" d="M1650.4,1950h699.2c138.29,0,250.4-112.11,250.4-250.4v-699.2c0-138.29-112.11-250.4-250.4-250.4h-699.2
					c-138.29,0-250.4,112.11-250.4,250.4v699.2C1400,1837.89,1512.11,1950,1650.4,1950z"/>
			</g>
			<g id="Facile_00000135665750070853099800000015594031734583908534_">
				<path class="st9" d="M1650.4,2600h699.2c138.29,0,250.4-112.11,250.4-250.4v-699.2c0-138.29-112.11-250.4-250.4-250.4h-699.2
					c-138.29,0-250.4,112.11-250.4,250.4v699.2C1400,2487.89,1512.11,2600,1650.4,2600z"/>
			</g>
			<g id="BM_00000020396222715892720410000005869562552397939884_" class="st0">
				<g class="st1">
					<path class="st5" d="M3861.4,2383.02c-24.96,121.95-62.19,241.89-110.67,356.51c-47.61,112.57-106.54,221.14-175.16,322.71
						c-67.99,100.63-146.06,195.26-232.07,281.26c-86,86.01-180.63,164.08-281.26,232.07c-101.57,68.62-210.14,127.55-322.71,175.16
						c-114.62,48.48-234.56,85.71-356.51,110.67c-125.17,25.61-254.04,38.6-383.02,38.6c-60.15,0-120.28-2.83-180.03-8.45
						c-68.35-6.41-136.2-16.48-202.99-30.15c-121.95-24.96-241.89-62.19-356.51-110.67c-112.57-47.61-221.14-106.54-322.71-175.16
						c-100.63-67.99-195.26-146.06-281.26-232.07c-86.01-86-164.08-180.63-232.07-281.26c-68.62-101.57-127.55-210.14-175.16-322.71
						c-48.48-114.62-85.71-234.56-110.67-356.51c-14.03-68.59-24.28-138.28-30.66-208.5H7.51C95.93,3197.37,954.23,4000,2000,4000
						s1904.07-802.63,1992.49-1825.48h-100.43C3885.68,2244.74,3875.43,2314.43,3861.4,2383.02z M138.6,1616.98
						c24.96-121.95,62.19-241.89,110.67-356.51c47.61-112.57,106.54-221.14,175.16-322.71C492.42,837.13,570.49,742.5,656.5,656.5
						c86-86.01,180.63-164.08,281.26-232.07c101.57-68.62,210.14-127.55,322.71-175.16c114.62-48.48,234.56-85.71,356.51-110.67
						C1742.15,112.99,1871.02,100,2000,100s257.85,12.99,383.02,38.6c121.95,24.96,241.89,62.19,356.51,110.67
						c112.57,47.61,221.14,106.54,322.71,175.16c100.63,67.99,195.26,146.06,281.26,232.07c86.01,86,164.08,180.63,232.07,281.26
						c68.62,101.57,127.55,210.14,175.16,322.71c48.48,114.62,85.71,234.56,110.67,356.51c13.97,68.27,24.18,137.65,30.57,207.54
						h100.44C3903.54,802.13,3045.44,0,2000,0S96.46,802.13,7.59,1824.52h100.44C114.42,1754.63,124.63,1685.25,138.6,1616.98z"/>
					<g>
						<path class="st6" d="M107.94,2174.52h1085.53c10.79,50.05,26.29,99.04,46.43,146.66c41.56,98.26,101.03,186.47,176.74,262.18
							c75.71,75.71,163.92,135.17,262.18,176.74c101.82,43.06,209.88,64.9,321.18,64.9c59.6,0,118.27-6.26,175.55-18.69
							c49.69-10.78,98.33-26.21,145.63-46.21c98.26-41.57,186.47-101.03,262.18-176.74c75.71-75.71,135.17-163.92,176.74-262.18
							c20.14-47.62,35.64-96.61,46.43-146.66h1085.53c-6.38,70.22-16.63,139.91-30.66,208.5
							c-24.96,121.95-62.19,241.89-110.67,356.51c-47.61,112.57-106.54,221.14-175.16,322.71
							c-67.99,100.63-146.06,195.26-232.07,281.26c-86,86.01-180.63,164.08-281.26,232.07
							c-101.57,68.62-210.14,127.55-322.71,175.16c-114.62,48.48-234.56,85.71-356.51,110.67c-125.17,25.61-254.04,38.6-383.02,38.6
							c-60.15,0-120.28-2.83-180.03-8.45c-68.35-6.41-136.2-16.48-202.99-30.15c-121.95-24.96-241.89-62.19-356.51-110.67
							c-112.57-47.61-221.14-106.54-322.71-175.16c-100.63-67.99-195.26-146.06-281.26-232.07
							c-86.01-86-164.08-180.63-232.07-281.26c-68.62-101.57-127.55-210.14-175.16-322.71c-48.48-114.62-85.71-234.56-110.67-356.51
							C124.57,2314.43,114.32,2244.74,107.94,2174.52z"/>
					</g>
					<g>
						<path class="st6" d="M108.03,1824.52c6.39-69.89,16.6-139.27,30.57-207.54c24.96-121.95,62.19-241.89,110.67-356.51
							c47.61-112.57,106.54-221.14,175.16-322.71C492.42,837.13,570.49,742.5,656.5,656.5c86-86.01,180.63-164.08,281.26-232.07
							c101.57-68.62,210.14-127.55,322.71-175.16c114.62-48.48,234.56-85.71,356.51-110.67C1742.15,112.99,1871.02,100,2000,100
							s257.85,12.99,383.02,38.6c121.95,24.96,241.89,62.19,356.51,110.67c112.57,47.61,221.14,106.54,322.71,175.16
							c100.63,67.99,195.26,146.06,281.26,232.07c86.01,86,164.08,180.63,232.07,281.26c68.62,101.57,127.55,210.14,175.16,322.71
							c48.48,114.62,85.71,234.56,110.67,356.51c13.97,68.27,24.18,137.65,30.57,207.54H2806.32
							c-10.78-49.72-26.21-98.38-46.22-145.7c-41.57-98.26-101.03-186.47-176.74-262.18s-163.92-135.18-262.18-176.74
							c-101.82-43.06-209.88-64.9-321.18-64.9c-111.3,0-219.36,21.84-321.18,64.9c-98.26,41.56-186.47,101.03-262.18,176.74
							s-135.18,163.92-176.74,262.18c-20.01,47.32-35.44,95.98-46.22,145.7H108.03z"/>
					</g>
					<path class="st5" d="M2000,2400c220.91,0,400-179.09,400-400c0-220.91-179.09-400-400-400s-400,179.09-400,400
						S1779.09,2400,2000,2400z M1785.63,1785.63c57.26-57.26,133.39-88.79,214.37-88.79c80.98,0,157.11,31.53,214.37,88.79
						s88.79,133.39,88.79,214.37s-31.53,157.11-88.79,214.37s-133.39,88.79-214.37,88.79c-80.98,0-157.11-31.53-214.37-88.79
						s-88.79-133.39-88.79-214.37C1696.84,1919.02,1728.37,1842.89,1785.63,1785.63z"/>
					<g>
						<path class="st6" d="M1558.21,2174.52C1627.9,2350.34,1799.67,2475,2000,2475s372.1-124.66,441.79-300.48
							c21.43-54.05,33.21-112.93,33.21-174.52c0-61.95-11.92-121.17-33.6-175.48C2371.47,1649.2,2199.97,1525,2000,1525
							s-371.47,124.2-441.4,299.52c-21.68,54.31-33.6,113.53-33.6,175.48C1525,2061.59,1536.78,2120.47,1558.21,2174.52z M2000,1600
							c220.91,0,400,179.09,400,400s-179.09,400-400,400s-400-179.09-400-400C1600,1779.09,1779.09,1600,2000,1600z"/>
					</g>
					<g>
						<path class="st6" d="M1696.84,2000c0-80.98,31.53-157.11,88.79-214.37s133.39-88.79,214.37-88.79
							c80.98,0,157.11,31.53,214.37,88.79s88.79,133.39,88.79,214.37s-31.53,157.11-88.79,214.37s-133.39,88.79-214.37,88.79
							c-80.98,0-157.11-31.53-214.37-88.79S1696.84,2080.98,1696.84,2000z"/>
					</g>
					<g>
						<path class="st7" d="M2000,1200c107.93,0,212.71,21.17,311.44,62.93c95.27,40.29,180.81,97.96,254.24,171.39
							c73.42,73.41,131.08,158.95,171.39,254.24c19.32,45.68,34.39,93.21,44.81,141.25l4.27,19.7h1183.2
							c3.75,49.92,5.65,100.43,5.65,150.49c0,49.76-1.87,99.95-5.58,149.52H2786.34l-4.25,19.73
							c-10.43,48.39-25.58,96.23-45.02,142.19c-40.31,95.29-97.98,180.83-171.39,254.24c-73.41,73.41-158.96,131.08-254.24,171.39
							c-45.67,19.31-93.18,34.39-141.19,44.8c-55.41,12.02-112.69,18.12-170.25,18.12c-107.92,0-212.71-21.17-311.44-62.93
							c-95.29-40.31-180.83-97.98-254.24-171.39c-73.43-73.43-131.1-158.97-171.39-254.24c-19.44-45.96-34.59-93.8-45.02-142.19
							l-4.25-19.73H30.58c-3.7-49.57-5.58-99.76-5.58-149.52c0-50.06,1.9-100.57,5.65-150.48h1183.19l4.27-19.7
							c10.42-48.05,25.5-95.57,44.82-141.26c40.29-95.27,97.96-180.81,171.39-254.24s158.97-131.1,254.24-171.39
							C1787.29,1221.17,1892.07,1200,2000,1200z M2000,2500c206.34,0,388.88-124.14,465.03-316.27
							c23.2-58.52,34.97-120.34,34.97-183.73c0-63.78-11.9-125.94-35.38-184.75C2388.23,1623.75,2205.86,1500,2000,1500
							s-388.23,123.75-464.62,315.26c-23.47,58.81-35.38,120.97-35.38,184.74c0,63.39,11.77,125.21,34.97,183.73
							C1611.12,2375.86,1793.66,2500,2000,2500z"/>
						<path class="st5" d="M2000,2775c-104.56,0-206.07-20.51-301.7-60.95c-92.31-39.05-175.18-94.92-246.31-166.05
							c-71.15-71.14-127.01-154.01-166.04-246.3c-18.83-44.53-33.5-90.86-43.6-137.72l-8.51-39.46h-40.37H53.92
							C51.32,2083.13,50,2041.41,50,2000c0-41.72,1.33-83.75,3.98-125.48h1139.7H1234l8.54-39.41
							c10.09-46.53,24.69-92.57,43.41-136.82c39.04-92.29,94.9-175.16,166.05-246.3c71.14-71.15,154.01-127.01,246.3-166.04
							c95.64-40.44,197.14-60.95,301.71-60.95c104.56,0,206.07,20.51,301.7,60.95c92.29,39.04,175.16,94.9,246.3,166.05
							c71.13,71.13,126.99,154,166.04,246.3c18.71,44.26,33.32,90.29,43.41,136.82l8.54,39.41h40.32h1139.7
							c2.65,41.72,3.98,83.75,3.98,125.47c0,41.41-1.31,83.13-3.92,124.52H2806.53h-40.37l-8.51,39.46
							c-10.1,46.86-24.77,93.2-43.6,137.72c-39.05,92.31-94.92,175.18-166.05,246.31c-71.13,71.13-154,126.99-246.3,166.04
							c-44.25,18.71-90.26,33.31-136.76,43.4C2111.27,2769.09,2055.78,2775,2000,2775 M2000,1475
							c-216.15,0-407.64,129.92-487.84,330.98C1487.5,1867.75,1475,1933.03,1475,2000c0,66.56,12.36,131.48,36.73,192.94
							C1591.68,2394.66,1783.34,2525,2000,2525s408.32-130.34,488.27-332.05c24.37-61.47,36.73-126.39,36.73-192.95
							c0-66.97-12.5-132.24-37.16-194C2407.64,1604.92,2216.15,1475,2000,1475 M2000,2825c59.6,0,118.27-6.26,175.55-18.69
							c49.69-10.78,98.33-26.21,145.63-46.21c98.26-41.57,186.47-101.03,262.18-176.74c75.71-75.71,135.17-163.92,176.74-262.18
							c20.14-47.62,35.64-96.61,46.43-146.66h1185.96c4.97-57.51,7.51-115.72,7.51-174.52c0-59.13-2.57-117.66-7.59-175.48H2806.32
							c-10.78-49.72-26.21-98.38-46.22-145.7c-41.57-98.26-101.03-186.47-176.74-262.18s-163.92-135.18-262.18-176.74
							c-101.82-43.06-209.88-64.9-321.18-64.9c-111.3,0-219.36,21.84-321.18,64.9c-98.26,41.56-186.47,101.03-262.18,176.74
							s-135.18,163.92-176.74,262.18c-20.01,47.32-35.44,95.98-46.22,145.7H7.59C2.57,1882.34,0,1940.87,0,2000
							c0,58.8,2.54,117.01,7.51,174.52h1185.96c10.79,50.05,26.29,99.04,46.43,146.66c41.56,98.26,101.03,186.47,176.74,262.18
							c75.71,75.71,163.92,135.17,262.18,176.74C1780.64,2803.16,1888.7,2825,2000,2825L2000,2825z M2000,1525
							c199.97,0,371.47,124.2,441.4,299.52c21.68,54.31,33.6,113.53,33.6,175.48c0,61.59-11.78,120.47-33.21,174.52
							C2372.1,2350.34,2200.33,2475,2000,2475s-372.1-124.66-441.79-300.48c-21.43-54.05-33.21-112.93-33.21-174.52
							c0-61.95,11.92-121.17,33.6-175.48C1628.53,1649.2,1800.03,1525,2000,1525L2000,1525z"/>
					</g>
					<line class="st8" x1="1819.97" y1="3891.55" x2="1819.97" y2="3891.56"/>
				</g>
			</g>
		</g>
	</g>
	<g id="flecheDroite_00000039118711772541021070000013396549442709512862_" class="st0">
		<g class="st1">
			<g>
				<path class="st9" d="M82.86,2129.84l3714.19,1714.25c59.14,26.86,129.71,10.86,170.85-40c41.43-50.86,42.86-123.14,3.43-175.42
					l-1221.4-1628.53L3971.33,371.6c39.43-52.28,38-124.85-3.14-175.42c-27.71-34.57-69.14-53.14-111.14-53.14
					c-20.29,0-40.57,4.29-59.71,13.14L83.14,1870.42C32.28,1893.85,0,1944.42,0,2000.13C0,2055.84,32.28,2106.41,82.86,2129.84z"/>
			</g>
		</g>
	</g>
	<g id="flecheGauche_00000161619226261066351740000004816582527717118595_" class="st0">
		<g class="st1">
			<g>
				<path class="st9" d="M3917.14,1870.16L202.94,155.92c-59.14-26.86-129.71-10.86-170.85,40
					c-41.43,50.86-42.86,123.14-3.43,175.42l1221.4,1628.53L28.67,3628.4c-39.43,52.28-38,124.85,3.14,175.42
					c27.71,34.57,69.14,53.14,111.14,53.14c20.29,0,40.57-4.29,59.71-13.14l3714.2-1714.24c50.86-23.43,83.14-74,83.14-129.71
					C4000,1944.16,3967.72,1893.59,3917.14,1870.16z"/>
			</g>
		</g>
	</g>
	<g id="flecheBottom_00000029047029857584408190000009373824922276730813_" class="st0">
		<g class="st1">
			<g>
				<path class="st9" d="M1870.16,82.86L155.92,3797.06c-26.86,59.14-10.86,129.71,40,170.85c50.86,41.43,123.14,42.86,175.42,3.43
					l1628.53-1221.4L3628.4,3971.33c52.28,39.43,124.85,38,175.42-3.14c34.57-27.71,53.14-69.14,53.14-111.14
					c0-20.29-4.29-40.57-13.14-59.71L2129.58,83.14C2106.15,32.28,2055.58,0,1999.87,0C1944.16,0,1893.59,32.29,1870.16,82.86z"/>
			</g>
		</g>
	</g>
	<g id="flecheTop_00000089571156518958498480000015326257346211416226_">
		<g>
			<g>
				<path class="st9" d="M2129.84,3917.15l1714.25-3714.2c26.86-59.14,10.86-129.71-40-170.85
					c-50.86-41.43-123.14-42.86-175.42-3.43l-1628.53,1221.4L371.61,28.67c-52.28-39.43-124.85-38-175.42,3.14
					c-34.57,27.71-53.14,69.14-53.14,111.14c0,20.29,4.29,40.57,13.14,59.71l1714.23,3714.2c23.43,50.86,74,83.14,129.71,83.14
					C2055.84,4000,2106.42,3967.72,2129.84,3917.15z"/>
			</g>
		</g>
	</g>
</g>
</svg>
