<?xml version="1.0" encoding="utf-8"?>
<!-- Generator: Adobe Illustrator 26.0.2, SVG Export Plug-In . SVG Version: 6.00 Build 0)  -->
<svg version="1.0" id="Calque_1" xmlns="http://www.w3.org/2000/svg" xmlns:xlink="http://www.w3.org/1999/xlink" x="0px" y="0px"
	 viewBox="0 0 4000 4000" style="enable-background:new 0 0 4000 4000;" xml:space="preserve">
<path style="fill:#1D1D1B;" d="M1838.22,6.38C871.79,82.36,87.59,862.9,7.21,1828.97c-37.95,456.23,77.62,883.57,300.37,1236.54
	c24.95,39.55,29.74,88.47,10.77,131.21L6.38,3899.38c-26.52,59.74,34.5,120.77,94.24,94.24l702.66-311.97
	c42.75-18.98,91.66-14.2,131.21,10.77c352.96,222.73,780.27,338.3,1236.48,300.37c966.05-80.34,1746.61-864.49,1822.65-1830.89
	C4090.55,929.89,3070.21-90.5,1838.22,6.38z"/>
<circle style="fill:#009CCC;" cx="2000.04" cy="1999.96" r="1724.1"/>
<path style="fill:#3C3C3B;" d="M2000.04,268.2c-956.42,0-1731.76,775.33-1731.76,1731.76s775.34,1731.76,1731.76,1731.76
	S3731.8,2956.38,3731.8,1999.96S2956.46,268.2,2000.04,268.2z M2000.04,3523.8c-841.6,0-1523.86-682.25-1523.86-1523.86
	S1158.44,476.09,2000.04,476.09S3523.9,1158.35,3523.9,1999.96S2841.65,3523.8,2000.04,3523.8z"/>
<g>
	<path style="fill:#FFFFFF;" d="M2311.88,3130.38h-0.08c-43.05,0-77.96-34.9-77.96-77.96V1649.12c0-43.05,34.9-77.96,77.96-77.96
		h0.08c43.09,0,77.96-34.9,77.96-77.96c0-43.05-34.87-77.96-77.96-77.96H1688.2c-43.09,0-77.96,34.9-77.96,77.96
		c0,43.05,34.87,77.96,77.96,77.96h-0.08c43.05,0,77.96,34.9,77.96,77.96v1403.29c0,43.05-34.9,77.96-77.96,77.96h0.08
		c-43.09,0-77.96,34.9-77.96,77.96s34.87,77.96,77.96,77.96h623.69c43.09,0,77.96-34.9,77.96-77.96
		C2389.84,3165.28,2354.97,3130.38,2311.88,3130.38z"/>
	<circle style="fill:#FFFFFF;" cx="2000.05" cy="947.48" r="233.88"/>
</g>
</svg>
