<?xml version="1.0" encoding="utf-8"?>
<!-- Generator: Adobe Illustrator 26.0.2, SVG Export Plug-In . SVG Version: 6.00 Build 0)  -->
<svg version="1.0" id="Calque_1" xmlns="http://www.w3.org/2000/svg" xmlns:xlink="http://www.w3.org/1999/xlink" x="0px" y="0px"
	 viewBox="0 0 4000 4000" style="enable-background:new 0 0 4000 4000;" xml:space="preserve">
<path style="fill:#1D1D1B;" d="M2000,0C1402,0.73,917.4,485.33,916.66,1083.34V1750c0,46.02,37.31,83.34,83.34,83.34h333.34
	c46.02,0,83.34-37.31,83.34-83.34v-666.66C1416.66,761.16,1677.84,500,2000,500s583.34,261.16,583.34,583.34V1750
	c0,46.02,37.31,83.34,83.34,83.34H3000c46.02,0,83.34-37.31,83.34-83.34v-666.66C3082.6,485.33,2598,0.73,2000,0z"/>
<path style="fill:#FFC107;" d="M1000,1666.66h2000c230.12,0,416.66,186.55,416.66,416.66v1500c0,230.12-186.55,416.67-416.66,416.67
	H1000c-230.12,0-416.66-186.55-416.66-416.66v-1500C583.34,1853.21,769.88,1666.66,1000,1666.66z"/>
<path style="fill:#1D1D1B;" d="M2416.66,2583.34c0.97-230.12-184.79-417.45-414.91-418.42s-417.45,184.79-418.42,414.91
	c-0.67,159.06,89.27,304.62,231.83,375.18l-64.34,450c-6.45,45.57,25.27,87.73,70.84,94.18c3.86,0.55,7.76,0.82,11.66,0.82h333.34
	c46.02,0.47,83.71-36.46,84.17-82.48c0.04-4.24-0.23-8.48-0.84-12.68l-64.34-450C2326.47,2884.37,2415.75,2740.78,2416.66,2583.34z"
	/>
</svg>
