<?xml version="1.0" encoding="utf-8"?>
<!-- Generator: Adobe Illustrator 26.0.2, SVG Export Plug-In . SVG Version: 6.00 Build 0)  -->
<svg version="1.0" id="Calque_1" xmlns="http://www.w3.org/2000/svg" xmlns:xlink="http://www.w3.org/1999/xlink" x="0px" y="0px"
	 viewBox="0 0 4000 4000" style="enable-background:new 0 0 4000 4000;" xml:space="preserve">
<g id="option">
	<g>
		<g>
			<path style="fill:#1D1D1B;" d="M3470.36,1519.06l-19.03-6.78l-74.31-177.39l8.06-18.23c225.12-510.57,209.6-525.8,172.26-562.81
				l-300.29-292.94c-12.28-12.18-33.83-20.75-52.42-20.75c-16.9,0-68.07,0-511.57,200.87l-17.78,7.98l-182.98-73.68l-7.34-18.22
				C2276.4,40.7,2255.04,40.7,2203.14,40.7h-424.07c-51.7,0-75.25,0-268.65,517.32l-7.28,18.83l-182.03,74.2l-17.4-7.24
				c-300.19-126.56-475.46-190.73-521.15-190.73c-18.54,0-40.17,8.32-52.5,20.47L429.48,767.34
				c-38.13,37.61-53.94,53.36,182.97,553.27l8.71,18.54l-74.43,177.19l-18.22,7.04C0,1727.62,0,1747.54,0,1800.73v415.56
				c0,53.34,0,75.49,529.56,265.27l18.93,6.68l74.44,176.67l-7.99,18.05c-225.12,510.8-210.84,524.63-172.52,562.75l299.83,293.34
				c12.57,12.08,34.32,20.71,52.87,20.71c16.79,0,67.84,0,511.64-200.77l17.77-8.32l183.1,74.05l7.12,18.31
				c208.69,516.24,230.13,516.24,282.06,516.24h424.2c53.26,0,75.35,0,268.9-517.66l7.21-18.84l182.32-73.71l17.35,7.07
				c299.94,126.91,475.13,190.96,520.53,190.96c18.38,0,40.21-8.06,52.74-20.48l301.05-294.42c37.87-37.8,53.65-53.26-183.68-552.7
				l-8.83-18.76l74.3-176.42l17.74-6.96C4000,2272.08,4000,2252.06,4000,2198.8v-415.31
				C3999.99,1730.16,3999.99,1708.14,3470.36,1519.06z M1999.99,2673.96c-379,0-687.32-302.43-687.32-673.89
				c0-371.47,308.33-673.5,687.32-673.5c378.84,0,687.11,302.09,687.11,673.5C2687.11,2371.47,2378.84,2673.96,1999.99,2673.96z"/>
		</g>
	</g>
</g>
</svg>
