<?xml version="1.0" encoding="utf-8"?>
<!-- Generator: Adobe Illustrator 26.0.2, SVG Export Plug-In . SVG Version: 6.00 Build 0)  -->
<svg version="1.0" id="Calque_1" xmlns="http://www.w3.org/2000/svg" xmlns:xlink="http://www.w3.org/1999/xlink" x="0px" y="0px"
	 viewBox="0 0 4000 4000" style="enable-background:new 0 0 4000 4000;" xml:space="preserve">
<g id="Reduire">
	<path style="fill:#1D1D1B;" d="M0.01,2168.32v-336.64C0.01,1705.93,172.5,1604,385.27,1604h3229.47
		c212.78,0,385.26,101.94,385.26,227.68v336.64c0,125.75-172.49,227.68-385.26,227.68H385.27C172.5,2396,0.01,2294.06,0.01,2168.32z
		"/>
</g>
<g id="Reduire_00000057115158801889038120000001121864820375683773_">
	<path style="fill:#1D1D1B;" d="M1831.68,0.01h336.64C2294.07,0.01,2396,172.5,2396,385.27v3229.47
		c0,212.78-101.94,385.26-227.68,385.26h-336.64c-125.75,0-227.68-172.49-227.68-385.26V385.27
		C1604,172.5,1705.94,0.01,1831.68,0.01z"/>
</g>
</svg>
