<?xml version="1.0" encoding="utf-8"?>
<!-- Generator: Adobe Illustrator 26.0.1, SVG Export Plug-In . SVG Version: 6.00 Build 0)  -->
<svg version="1.1" xmlns="http://www.w3.org/2000/svg" xmlns:xlink="http://www.w3.org/1999/xlink" x="0px" y="0px"
	 viewBox="0 0 4000 4000" style="enable-background:new 0 0 4000 4000;" xml:space="preserve">
<style type="text/css">
	.st0{display:none;}
	.st1{display:inline;fill:#E7ECED;}
	.st2{display:inline;fill:#1D1D1B;}
	.st3{display:inline;fill:#3C3C3B;}
	.st4{display:inline;fill:#575756;}
	.st5{display:inline;fill:#366DB6;}
	.st6{display:inline;fill:#F6F6F6;}
	.st7{fill:#1D1D1B;}
	.st8{display:inline;}
</style>
<g id="Main" class="st0">
	<path class="st1" d="M1772.9,2255.66l-158.15,158.14l158.15,158.14c26.96,26.97,26.96,70.55,0,97.51
		c-13.46,13.45-31.11,20.2-48.76,20.2c-17.66,0-35.32-6.75-48.76-20.2l-206.9-206.9c-26.97-26.96-26.97-70.55,0-97.51l206.9-206.9
		c26.9-26.97,70.62-26.97,97.52,0C1799.86,2185.11,1799.86,2228.69,1772.9,2255.66z"/>
	<path class="st1" d="M2135.23,2156.84l-137.93,482.75c-8.62,30.34-36.2,50.06-66.27,50.06c-6.28,0-12.62-0.89-18.97-2.61
		c-36.62-10.49-57.86-48.69-47.38-85.24l137.93-482.76c10.48-36.62,48.61-57.59,85.24-47.45
		C2124.46,2082.08,2145.71,2120.28,2135.23,2156.84z"/>
	<path class="st1" d="M2531.51,2462.55l-206.9,206.9c-13.44,13.45-31.1,20.2-48.75,20.2c-17.66,0-35.32-6.75-48.76-20.2
		c-26.97-26.97-26.97-70.55,0-97.51l158.14-158.14l-158.14-158.14c-26.97-26.97-26.97-70.56,0-97.52c26.9-26.97,70.61-26.97,97.51,0
		l206.9,206.9C2558.48,2392.01,2558.48,2435.59,2531.51,2462.55z"/>
	<path class="st1" d="M3152.2,2206.89c-70.9,0-135.45-45.17-155.45-113.17c-20.9-70.97-49.1-112.62-83.86-176.42
		c-34-62.41-20.76-140.14,29.52-190.41l111.93-111.93l-255.59-255.58l-111.93,111.93c-50.27,50.27-128,63.51-190.41,29.51
		c-63.8-34.76-105.45-62.97-176.41-83.86c-67.93-19.93-113.11-84.48-113.11-155.38v-158.14H1793.1v158.14
		c0,70.9-45.17,135.44-113.17,155.44c-70.97,20.9-112.62,49.11-176.42,83.86c-62.41,34-140.14,20.76-190.41-29.51l-111.93-111.93
		l-255.59,255.58l111.93,111.93c50.28,50.28,63.52,128,29.52,190.42c-34.76,63.79-62.97,105.44-83.86,176.41
		c-19.93,67.93-84.48,113.1-155.38,113.1H689.65v413.8H847.8c70.89,0,135.44,45.17,155.44,113.17
		c20.9,70.97,49.1,112.62,83.86,176.41c34,62.42,20.76,140.14-29.52,190.42l-111.93,111.93l255.59,255.58l111.93-111.93
		c50.27-50.27,128-63.51,190.41-29.51c63.8,34.76,105.45,62.97,176.42,83.86c67.93,19.93,113.1,84.48,113.1,155.38v158.14h413.79
		v-158.14c0-70.9,45.18-135.45,113.18-155.45c70.96-20.89,112.61-49.1,176.41-83.86c62.41-34,140.14-20.75,190.41,29.52
		l111.93,111.93l255.59-255.59l-111.93-111.92c-50.27-50.28-63.52-128-29.52-190.42c34.76-63.8,62.97-105.44,83.86-176.41
		c19.93-67.93,84.49-113.1,155.38-113.1h158.14v-413.8H3152.2z M2000,3172.41c-418.98,0-758.62-339.64-758.62-758.61
		c0-418.98,339.64-758.62,758.62-758.62c418.97,0,758.61,339.64,758.61,758.62C2758.61,2832.77,2418.97,3172.41,2000,3172.41z"/>
	<path class="st2" d="M3999.99,653.61v173.98H0v2931.02C0,3891.93,108.07,4000,241.38,4000h3517.23
		c133.31,0,241.38-108.07,241.39-241.39V655.17C4000,654.65,4000,654.13,3999.99,653.61z M3310.34,2620.69H3152.2
		c-70.89,0-135.45,45.17-155.38,113.1c-20.89,70.97-49.1,112.61-83.86,176.41c-34,62.42-20.75,140.14,29.52,190.42l111.93,111.92
		l-255.59,255.59l-111.93-111.93c-50.27-50.27-128-63.52-190.41-29.52c-63.8,34.76-105.45,62.97-176.41,83.86
		c-68,20-113.18,84.55-113.18,155.45v158.14H1793.1v-158.14c0-70.9-45.17-135.45-113.1-155.38
		c-70.97-20.89-112.62-49.1-176.42-83.86c-62.41-34-140.14-20.76-190.41,29.51l-111.93,111.93l-255.59-255.58l111.93-111.93
		c50.28-50.28,63.52-128,29.52-190.42c-34.76-63.79-62.96-105.44-83.86-176.41c-20-68-84.55-113.17-155.44-113.17H689.65v-413.8
		h158.14c70.9,0,135.45-45.17,155.38-113.1c20.89-70.97,49.1-112.62,83.86-176.41c34-62.42,20.76-140.14-29.52-190.42
		l-111.93-111.93l255.59-255.58l111.93,111.93c50.27,50.27,128,63.51,190.41,29.51c63.8-34.75,105.45-62.96,176.42-83.86
		c68-20,113.17-84.54,113.17-155.44v-158.14h413.79v158.14c0,70.9,45.18,135.45,113.11,155.38c70.96,20.89,112.61,49.1,176.41,83.86
		c62.41,34,140.14,20.76,190.41-29.51l111.93-111.93l255.59,255.58l-111.93,111.93c-50.28,50.27-63.52,128-29.52,190.41
		c34.76,63.8,62.96,105.45,83.86,176.42c20,68,84.55,113.17,155.45,113.17h158.14V2620.69z"/>
	<path class="st3" d="M3758.62,0H241.38C108.07,0,0,108.07,0,241.39v586.2h3999.99v-586.2C3999.99,108.07,3891.92,0,3758.62,0z
		 M551.72,551.72H275.86V275.86h275.86V551.72z M1103.44,551.72H827.58V275.86h275.86V551.72z M1655.17,551.72h-275.86V275.86
		h275.86V551.72z"/>
	<rect x="275.86" y="275.86" class="st4" width="275.86" height="275.86"/>
	<rect x="827.58" y="275.86" class="st4" width="275.86" height="275.86"/>
	<rect x="1379.31" y="275.86" class="st4" width="275.86" height="275.86"/>
	<path class="st5" d="M1772.9,2255.66l-158.15,158.14l158.15,158.14c26.96,26.97,26.96,70.55,0,97.51
		c-13.46,13.45-31.11,20.2-48.76,20.2c-17.66,0-35.32-6.75-48.76-20.2l-206.9-206.9c-26.97-26.96-26.97-70.55,0-97.51l206.9-206.9
		c26.9-26.97,70.62-26.97,97.52,0C1799.86,2185.11,1799.86,2228.69,1772.9,2255.66z"/>
	<path class="st5" d="M2135.23,2156.84l-137.93,482.75c-8.62,30.34-36.2,50.06-66.27,50.06c-6.28,0-12.62-0.89-18.97-2.61
		c-36.62-10.49-57.86-48.69-47.38-85.24l137.93-482.76c10.48-36.62,48.61-57.59,85.24-47.45
		C2124.46,2082.08,2145.71,2120.28,2135.23,2156.84z"/>
	<path class="st5" d="M2531.51,2365.04c26.97,26.97,26.97,70.55,0,97.51l-206.9,206.9c-13.44,13.45-31.1,20.2-48.75,20.2
		c-17.66,0-35.32-6.75-48.76-20.2c-26.97-26.97-26.97-70.55,0-97.51l158.14-158.14l-158.14-158.14c-26.97-26.97-26.97-70.56,0-97.52
		c26.9-26.97,70.61-26.97,97.51,0L2531.51,2365.04z"/>
	<path class="st6" d="M3152.2,2206.89c-70.9,0-135.45-45.17-155.45-113.17c-20.9-70.97-49.1-112.62-83.86-176.42
		c-34-62.41-20.76-140.14,29.52-190.41l111.93-111.93l-255.59-255.58l-111.93,111.93c-50.27,50.27-128,63.51-190.41,29.51
		c-63.8-34.76-105.45-62.97-176.41-83.86c-67.93-19.93-113.11-84.48-113.11-155.38v-158.14H1793.1v158.14
		c0,70.9-45.17,135.44-113.17,155.44c-70.97,20.9-112.62,49.11-176.42,83.86c-62.41,34-140.14,20.76-190.41-29.51l-111.93-111.93
		l-255.59,255.58l111.93,111.93c50.28,50.28,63.52,128,29.52,190.42c-34.76,63.79-62.97,105.44-83.86,176.41
		c-19.93,67.93-84.48,113.1-155.38,113.1H689.65v413.8H847.8c70.89,0,135.44,45.17,155.44,113.17
		c20.9,70.97,49.1,112.62,83.86,176.41c34,62.42,20.76,140.14-29.52,190.42l-111.93,111.93l255.59,255.58l111.93-111.93
		c50.27-50.27,128-63.51,190.41-29.51c63.8,34.76,105.45,62.97,176.42,83.86c67.93,19.93,113.1,84.48,113.1,155.38v158.14h413.79
		v-158.14c0-70.9,45.18-135.45,113.18-155.45c70.96-20.89,112.61-49.1,176.41-83.86c62.41-34,140.14-20.75,190.41,29.52
		l111.93,111.93l255.59-255.59l-111.93-111.92c-50.27-50.28-63.52-128-29.52-190.42c34.76-63.8,62.97-105.44,83.86-176.41
		c19.93-67.93,84.49-113.1,155.38-113.1h158.14v-413.8H3152.2z M2000,3172.41c-418.98,0-758.62-339.64-758.62-758.61
		c0-418.98,339.64-758.62,758.62-758.62c418.97,0,758.61,339.64,758.61,758.62C2758.61,2832.77,2418.97,3172.41,2000,3172.41z"/>
	<path class="st3" d="M2000,1655.18c-418.98,0-758.62,339.64-758.62,758.62c0,418.97,339.64,758.61,758.62,758.61
		c418.97,0,758.61-339.64,758.61-758.61C2758.61,1994.82,2418.97,1655.18,2000,1655.18z M1772.9,2571.94
		c26.96,26.97,26.96,70.55,0,97.51c-13.46,13.45-31.11,20.2-48.76,20.2c-17.66,0-35.32-6.75-48.76-20.2l-206.9-206.9
		c-26.97-26.96-26.97-70.55,0-97.51l206.9-206.9c26.9-26.97,70.62-26.97,97.52,0c26.96,26.97,26.96,70.55,0,97.52l-158.15,158.14
		L1772.9,2571.94z M2135.23,2156.84l-137.93,482.75c-8.62,30.34-36.2,50.06-66.27,50.06c-6.28,0-12.62-0.89-18.97-2.61
		c-36.62-10.49-57.86-48.69-47.38-85.24l137.93-482.76c10.48-36.62,48.61-57.59,85.24-47.45
		C2124.46,2082.08,2145.71,2120.28,2135.23,2156.84z M2531.51,2462.55l-206.9,206.9c-13.44,13.45-31.1,20.2-48.75,20.2
		c-17.66,0-35.32-6.75-48.76-20.2c-26.97-26.97-26.97-70.55,0-97.51l158.14-158.14l-158.14-158.14c-26.97-26.97-26.97-70.56,0-97.52
		c26.9-26.97,70.61-26.97,97.51,0l206.9,206.9C2558.48,2392.01,2558.48,2435.59,2531.51,2462.55z"/>
	<path class="st4" d="M1772.9,2255.66l-158.15,158.14l158.15,158.14c26.96,26.97,26.96,70.55,0,97.51
		c-13.46,13.45-31.11,20.2-48.76,20.2c-17.66,0-35.32-6.75-48.76-20.2l-206.9-206.9c-26.97-26.96-26.97-70.55,0-97.51l206.9-206.9
		c26.9-26.97,70.62-26.97,97.52,0C1799.86,2185.11,1799.86,2228.69,1772.9,2255.66z"/>
	<path class="st4" d="M2135.23,2156.84l-137.93,482.75c-8.62,30.34-36.2,50.06-66.27,50.06c-6.28,0-12.62-0.89-18.97-2.61
		c-36.62-10.49-57.86-48.69-47.38-85.24l137.93-482.76c10.48-36.62,48.61-57.59,85.24-47.45
		C2124.46,2082.08,2145.71,2120.28,2135.23,2156.84z"/>
	<path class="st4" d="M2531.51,2462.55l-206.9,206.9c-13.44,13.45-31.1,20.2-48.75,20.2c-17.66,0-35.32-6.75-48.76-20.2
		c-26.97-26.97-26.97-70.55,0-97.51l158.14-158.14l-158.14-158.14c-26.97-26.97-26.97-70.56,0-97.52c26.9-26.97,70.61-26.97,97.51,0
		l206.9,206.9C2558.48,2392.01,2558.48,2435.59,2531.51,2462.55z"/>
</g>
<g id="Quitter">
	<g>
		<path class="st7" d="M3887.46,1174.77c70.65-66,111.26-158.28,112.52-254.96c1.01-96.8-37.84-189.83-107.11-257.47l-480.5-469.81
			c-67.26-65.75-157.9-102.08-252.19-100.95c-94.04,1.13-183.67,39.48-249.17,106.86l-904.79,927.42l-892.1-929.31
			c-70.28-73.29-166.58-115.54-268.03-117.55c-101.45-2.14-199.64,36.33-272.68,106.61l-464.53,446.3
			C38.97,698.92-0.25,791.45,0,888.38c0.25,96.8,39.98,189.21,110.13,255.96l973.81,926.29l-862.18,883.55
			c-131.5,134.64-134.64,348.74-7.29,487.66l335.67,364.71c63.99,69.9,153.12,110.76,247.67,114.28
			c94.41,3.52,186.44-30.68,255.46-95.42l945.65-884.43l922.65,877.51c68.52,65.25,159.91,100.2,254.45,97.05
			c94.54-2.64,183.93-43.25,248.8-112.52l338.31-361.69c128.48-137.91,127.48-352.01-2.89-487.79l-839.8-875.5L3887.46,1174.77z"/>
	</g>
</g>
<g id="Reduire" class="st0">
	<path class="st2" d="M0,2284.82v-569.64c0-212.78,172.49-385.26,385.26-385.26h3229.47c212.78,0,385.26,172.49,385.26,385.26
		v569.64c0,212.78-172.49,385.26-385.26,385.26H385.26C172.49,2670.08,0,2497.59,0,2284.82z"/>
</g>
<g id="Agrandir" class="st0">
	<g class="st8">
		<path class="st7" d="M3300,700v2600H700V700H3300 M3614.73,0H385.27C172.49,0,0,172.49,0,385.27v3229.47
			C0,3827.51,172.49,4000,385.27,4000h3229.47c212.78,0,385.27-172.49,385.27-385.27V385.27C4000,172.49,3827.51,0,3614.73,0
			L3614.73,0z"/>
	</g>
</g>
</svg>
