<?xml version="1.0" encoding="utf-8"?>
<!-- Generator: Adobe Illustrator 26.0.2, SVG Export Plug-In . SVG Version: 6.00 Build 0)  -->
<svg version="1.0" id="Calque_1" xmlns="http://www.w3.org/2000/svg" xmlns:xlink="http://www.w3.org/1999/xlink" x="0px" y="0px"
	 viewBox="0 0 4000 4000" style="enable-background:new 0 0 4000 4000;" xml:space="preserve">
<path style="fill:#1D1D1B;" d="M3257.2,3960.2L3257.2,3960.2c-53.07-53.07-53.07-139.11,0-192.18l510.81-510.81
	c53.07-53.07,139.11-53.07,192.18,0v0c53.07,53.07,53.07,139.11,0,192.18l-510.81,510.81
	C3396.31,4013.27,3310.27,4013.27,3257.2,3960.2z"/>
<path style="fill:#1D1D1B;" d="M2318.22,3959.82L2318.22,3959.82c-53.07-53.07-53.07-139.11,0-192.18l1449.42-1449.42
	c53.07-53.07,139.11-53.07,192.18,0l0,0c53.07,53.07,53.07,139.11,0,192.18L2510.41,3959.82
	C2457.34,4012.89,2371.29,4012.89,2318.22,3959.82z"/>
<path style="fill:#1D1D1B;" d="M1437.16,3959.56L1437.16,3959.56c-53.07-53.07-53.07-139.11,0-192.18l2330.22-2330.22
	c53.07-53.07,139.11-53.07,192.18,0l0,0c53.07,53.07,53.07,139.11,0,192.18L1629.35,3959.56
	C1576.28,4012.63,1490.23,4012.63,1437.16,3959.56z"/>
</svg>
