<?xml version="1.0" encoding="utf-8"?>
<!-- Generator: Adobe Illustrator 26.0.2, SVG Export Plug-In . SVG Version: 6.00 Build 0)  -->
<svg version="1.0" id="Calque_1" xmlns="http://www.w3.org/2000/svg" xmlns:xlink="http://www.w3.org/1999/xlink" x="0px" y="0px"
	 viewBox="0 0 4000 4000" style="enable-background:new 0 0 4000 4000;" xml:space="preserve">
<path style="fill:#1D1D1B;" d="M2089.88,112.22l-74.23,320.26c-8.89,38.35-41.1,66.75-80.23,71.06
	c-291.77,32.13-518.76,279.45-518.74,579.81V1750c0,46.03-37.32,83.34-83.34,83.34H1000c-46.03,0-83.34-37.32-83.34-83.34v-666.66
	C917.4,485.33,1402,0.73,2000,0c0.39,0,0.77,0,1.16,0C2059.88,0.14,2103.14,55.02,2089.88,112.22z"/>
<path style="fill:#FFC107;" d="M1000,1666.66h2000c230.12,0,416.66,186.55,416.66,416.66v1500c0,230.12-186.55,416.67-416.66,416.67
	H1000c-230.12,0-416.66-186.55-416.66-416.66v-1500C583.34,1853.21,769.88,1666.66,1000,1666.66z"/>
<path style="fill:#1D1D1B;" d="M2416.66,2583.34c0.97-230.12-184.79-417.45-414.91-418.42s-417.45,184.79-418.42,414.91
	c-0.67,159.06,89.27,304.62,231.83,375.18l-64.34,450c-6.45,45.57,25.27,87.73,70.84,94.18c3.86,0.55,7.76,0.82,11.66,0.82h333.34
	c46.02,0.45,83.7-36.48,84.15-82.51c0.04-4.18-0.23-8.35-0.82-12.49l-64.34-450C2326.49,2884.48,2415.77,2740.83,2416.66,2583.34z"
	/>
<line style="fill:none;stroke:#1D1D1B;stroke-miterlimit:10;" x1="2114.47" y1="6.12" x2="2114.47" y2="6.11"/>
</svg>
